%TF.GenerationSoftware,KiCad,Pcbnew,10.0.5-1-g226df246f3*%
%TF.CreationDate,2026-09-11T10:55:31+01:00*%
%TF.ProjectId,zorro-breakout,7a6f7272-6f2d-4627-9265-616b6f75742e,rev?*%
%TF.SameCoordinates,Original*%
%TF.FileFunction,Copper,L4,Bot*%
%TF.FilePolarity,Positive*%
%FSLAX46Y46*%
G04 Gerber Fmt 4.6, Leading zero omitted, Abs format (unit mm)*
G04 Created by KiCad (PCBNEW 10.0.5-1-g226df246f3) date 2026-09-11 10:55:31*
%MOMM*%
%LPD*%
G01*
G04 APERTURE LIST*
%TA.AperFunction,ComponentPad*%
%ADD10R,1.700000X1.700000*%
%TD*%
%TA.AperFunction,ComponentPad*%
%ADD11C,1.700000*%
%TD*%
%TA.AperFunction,ConnectorPad*%
%ADD12R,1.600000X5.000000*%
%TD*%
%TA.AperFunction,ViaPad*%
%ADD13C,0.650000*%
%TD*%
%TA.AperFunction,Conductor*%
%ADD14C,0.300000*%
%TD*%
%TA.AperFunction,Conductor*%
%ADD15C,0.500000*%
%TD*%
G04 APERTURE END LIST*
D10*
%TO.P,J8,1*%
%TO.N,C3_N*%
X35000000Y-39000000D03*
D11*
%TO.P,J8,2*%
X37540000Y-39000000D03*
%TO.P,J8,3*%
%TO.N,CDAC*%
X35000000Y-41540000D03*
%TO.P,J8,4*%
X37540000Y-41540000D03*
%TO.P,J8,5*%
%TO.N,C1_N*%
X35000000Y-44080000D03*
%TO.P,J8,6*%
X37540000Y-44080000D03*
%TO.P,J8,7*%
%TO.N,E*%
X35000000Y-46620000D03*
%TO.P,J8,8*%
X37540000Y-46620000D03*
%TO.P,J8,9*%
%TO.N,CLK7M*%
X35000000Y-49160000D03*
%TO.P,J8,10*%
X37540000Y-49160000D03*
%TO.P,J8,11*%
%TO.N,GND*%
X35000000Y-51700000D03*
%TO.P,J8,12*%
X37540000Y-51700000D03*
%TD*%
D10*
%TO.P,J5,1*%
%TO.N,SLAVE_N*%
X35000000Y-66000000D03*
D11*
%TO.P,J5,2*%
X37540000Y-66000000D03*
%TO.P,J5,3*%
%TO.N,CFGIN_N*%
X35000000Y-68540000D03*
%TO.P,J5,4*%
X37540000Y-68540000D03*
%TO.P,J5,5*%
%TO.N,CFGOUT_N*%
X35000000Y-71080000D03*
%TO.P,J5,6*%
X37540000Y-71080000D03*
%TO.P,J5,7*%
%TO.N,GND*%
X35000000Y-73620000D03*
%TO.P,J5,8*%
X37540000Y-73620000D03*
%TD*%
D10*
%TO.P,J4,1*%
%TO.N,AS_N*%
X158000000Y-48000000D03*
D11*
%TO.P,J4,2*%
X160540000Y-48000000D03*
%TO.P,J4,3*%
%TO.N,UDS_N*%
X158000000Y-50540000D03*
%TO.P,J4,4*%
X160540000Y-50540000D03*
%TO.P,J4,5*%
%TO.N,LDS_N*%
X158000000Y-53080000D03*
%TO.P,J4,6*%
X160540000Y-53080000D03*
%TO.P,J4,7*%
%TO.N,READ*%
X158000000Y-55620000D03*
%TO.P,J4,8*%
X160540000Y-55620000D03*
%TO.P,J4,9*%
%TO.N,DTACK_N*%
X158000000Y-58160000D03*
%TO.P,J4,10*%
X160540000Y-58160000D03*
%TO.P,J4,11*%
%TO.N,OVR_N*%
X158000000Y-60700000D03*
%TO.P,J4,12*%
X160540000Y-60700000D03*
%TO.P,J4,13*%
%TO.N,XRDY*%
X158000000Y-63240000D03*
%TO.P,J4,14*%
X160540000Y-63240000D03*
%TO.P,J4,15*%
%TO.N,RESET_N*%
X158000000Y-65780000D03*
%TO.P,J4,16*%
X160540000Y-65780000D03*
%TO.P,J4,17*%
%TO.N,HLT_N*%
X158000000Y-68320000D03*
%TO.P,J4,18*%
X160540000Y-68320000D03*
%TO.P,J4,19*%
%TO.N,BERR_N*%
X158000000Y-70860000D03*
%TO.P,J4,20*%
X160540000Y-70860000D03*
%TO.P,J4,21*%
%TO.N,FC0*%
X158000000Y-73400000D03*
%TO.P,J4,22*%
X160540000Y-73400000D03*
%TO.P,J4,23*%
%TO.N,FC1*%
X158000000Y-75940000D03*
%TO.P,J4,24*%
X160540000Y-75940000D03*
%TO.P,J4,25*%
%TO.N,FC2*%
X158000000Y-78480000D03*
%TO.P,J4,26*%
X160540000Y-78480000D03*
%TO.P,J4,27*%
%TO.N,DOE*%
X158000000Y-81020000D03*
%TO.P,J4,28*%
X160540000Y-81020000D03*
%TO.P,J4,29*%
%TO.N,BUSRST_N*%
X158000000Y-83560000D03*
%TO.P,J4,30*%
X160540000Y-83560000D03*
%TO.P,J4,31*%
%TO.N,GND*%
X158000000Y-86100000D03*
%TO.P,J4,32*%
X160540000Y-86100000D03*
%TD*%
D10*
%TO.P,TP2,1*%
%TO.N,+12V*%
X48000000Y-83000000D03*
%TD*%
%TO.P,TP1,1*%
%TO.N,-5V*%
X35000000Y-83000000D03*
%TD*%
%TO.P,J10,1*%
%TO.N,RESERVED_40*%
X72000000Y-37000000D03*
D11*
%TO.P,J10,2*%
%TO.N,RESERVED_42*%
X72000000Y-39540000D03*
%TO.P,J10,3*%
%TO.N,RESERVED_44*%
X72000000Y-42080000D03*
%TO.P,J10,4*%
%TO.N,RESERVED_96*%
X72000000Y-44620000D03*
%TO.P,J10,5*%
%TO.N,LEGACY_VPA_N*%
X72000000Y-47160000D03*
%TO.P,J10,6*%
%TO.N,LEGACY_VMA_N*%
X72000000Y-49700000D03*
%TO.P,J10,7*%
%TO.N,NC_97*%
X72000000Y-52240000D03*
%TO.P,J10,8*%
%TO.N,NC_98*%
X72000000Y-54780000D03*
%TO.P,J10,9*%
%TO.N,SENSEZ3_91*%
X72000000Y-57320000D03*
%TO.P,J10,10*%
%TO.N,GND*%
X72000000Y-59860000D03*
%TD*%
D10*
%TO.P,J9,1*%
%TO.N,+5V*%
X35000000Y-92000000D03*
D11*
%TO.P,J9,2*%
X37540000Y-92000000D03*
%TO.P,J9,3*%
X35000000Y-94540000D03*
%TO.P,J9,4*%
X37540000Y-94540000D03*
%TO.P,J9,5*%
%TO.N,GND*%
X35000000Y-97080000D03*
%TO.P,J9,6*%
X37540000Y-97080000D03*
%TO.P,J9,7*%
X35000000Y-99620000D03*
%TO.P,J9,8*%
X37540000Y-99620000D03*
%TO.P,J9,9*%
X35000000Y-102160000D03*
%TO.P,J9,10*%
X37540000Y-102160000D03*
%TO.P,J9,11*%
X35000000Y-104700000D03*
%TO.P,J9,12*%
X37540000Y-104700000D03*
%TD*%
D10*
%TO.P,TP3,1*%
%TO.N,-12V*%
X61000000Y-83000000D03*
%TD*%
%TO.P,J6,1*%
%TO.N,INT2_N*%
X72000000Y-69000000D03*
D11*
%TO.P,J6,2*%
X74540000Y-69000000D03*
%TO.P,J6,3*%
%TO.N,INT6_N*%
X72000000Y-71540000D03*
%TO.P,J6,4*%
X74540000Y-71540000D03*
%TO.P,J6,5*%
%TO.N,GND*%
X72000000Y-74080000D03*
%TO.P,J6,6*%
X74540000Y-74080000D03*
%TD*%
D12*
%TO.P,J1,1*%
%TO.N,GND*%
X166860000Y-124120000D03*
%TO.P,J1,3*%
X164320000Y-124120000D03*
%TO.P,J1,5*%
%TO.N,+5V*%
X161780000Y-124120000D03*
%TO.P,J1,7*%
%TO.N,OWN_N*%
X159240000Y-124120000D03*
%TO.P,J1,9*%
%TO.N,SLAVE_N*%
X156700000Y-124120000D03*
%TO.P,J1,11*%
%TO.N,CFGOUT_N*%
X154160000Y-124120000D03*
%TO.P,J1,13*%
%TO.N,GND*%
X151620000Y-124120000D03*
%TO.P,J1,15*%
%TO.N,CDAC*%
X149080000Y-124120000D03*
%TO.P,J1,17*%
%TO.N,OVR_N*%
X146540000Y-124120000D03*
%TO.P,J1,19*%
%TO.N,INT2_N*%
X144000000Y-124120000D03*
%TO.P,J1,21*%
%TO.N,A5*%
X141460000Y-124120000D03*
%TO.P,J1,23*%
%TO.N,A6*%
X138920000Y-124120000D03*
%TO.P,J1,25*%
%TO.N,GND*%
X136380000Y-124120000D03*
%TO.P,J1,27*%
%TO.N,A2*%
X133840000Y-124120000D03*
%TO.P,J1,29*%
%TO.N,A1*%
X131300000Y-124120000D03*
%TO.P,J1,31*%
%TO.N,FC0*%
X128760000Y-124120000D03*
%TO.P,J1,33*%
%TO.N,FC1*%
X126220000Y-124120000D03*
%TO.P,J1,35*%
%TO.N,FC2*%
X123680000Y-124120000D03*
%TO.P,J1,37*%
%TO.N,GND*%
X121140000Y-124120000D03*
%TO.P,J1,39*%
%TO.N,A13*%
X118600000Y-124120000D03*
%TO.P,J1,41*%
%TO.N,A14*%
X116060000Y-124120000D03*
%TO.P,J1,43*%
%TO.N,A15*%
X113520000Y-124120000D03*
%TO.P,J1,45*%
%TO.N,A16*%
X110980000Y-124120000D03*
%TO.P,J1,47*%
%TO.N,A17*%
X108440000Y-124120000D03*
%TO.P,J1,49*%
%TO.N,GND*%
X105900000Y-124120000D03*
%TO.P,J1,51*%
%TO.N,LEGACY_VMA_N*%
X103360000Y-124120000D03*
%TO.P,J1,53*%
%TO.N,RESET_N*%
X100820000Y-124120000D03*
%TO.P,J1,55*%
%TO.N,HLT_N*%
X98280000Y-124120000D03*
%TO.P,J1,57*%
%TO.N,A22*%
X95740000Y-124120000D03*
%TO.P,J1,59*%
%TO.N,A23*%
X93200000Y-124120000D03*
%TO.P,J1,61*%
%TO.N,GND*%
X90660000Y-124120000D03*
%TO.P,J1,63*%
%TO.N,D15*%
X88120000Y-124120000D03*
%TO.P,J1,65*%
%TO.N,D14*%
X85580000Y-124120000D03*
%TO.P,J1,67*%
%TO.N,D13*%
X83040000Y-124120000D03*
%TO.P,J1,69*%
%TO.N,D12*%
X80500000Y-124120000D03*
%TO.P,J1,71*%
%TO.N,D11*%
X77960000Y-124120000D03*
%TO.P,J1,73*%
%TO.N,GND*%
X75420000Y-124120000D03*
%TO.P,J1,75*%
%TO.N,D0*%
X72880000Y-124120000D03*
%TO.P,J1,77*%
%TO.N,D1*%
X70340000Y-124120000D03*
%TO.P,J1,79*%
%TO.N,D2*%
X67800000Y-124120000D03*
%TO.P,J1,81*%
%TO.N,D3*%
X65260000Y-124120000D03*
%TO.P,J1,83*%
%TO.N,D4*%
X62720000Y-124120000D03*
%TO.P,J1,85*%
%TO.N,GND*%
X60180000Y-124120000D03*
%TO.P,J1,87*%
X57640000Y-124120000D03*
%TO.P,J1,89*%
X55100000Y-124120000D03*
%TO.P,J1,91*%
%TO.N,SENSEZ3_91*%
X52560000Y-124120000D03*
%TO.P,J1,93*%
%TO.N,DOE*%
X50020000Y-124120000D03*
%TO.P,J1,95*%
%TO.N,GBG_N*%
X47480000Y-124120000D03*
%TO.P,J1,97*%
%TO.N,NC_97*%
X44940000Y-124120000D03*
%TO.P,J1,99*%
%TO.N,GND*%
X42400000Y-124120000D03*
%TD*%
D10*
%TO.P,J3,1*%
%TO.N,D0*%
X132000000Y-38000000D03*
D11*
%TO.P,J3,2*%
%TO.N,D1*%
X132000000Y-40540000D03*
%TO.P,J3,3*%
%TO.N,D2*%
X132000000Y-43080000D03*
%TO.P,J3,4*%
%TO.N,D3*%
X132000000Y-45620000D03*
%TO.P,J3,5*%
%TO.N,D4*%
X132000000Y-48160000D03*
%TO.P,J3,6*%
%TO.N,D5*%
X132000000Y-50700000D03*
%TO.P,J3,7*%
%TO.N,D6*%
X132000000Y-53240000D03*
%TO.P,J3,8*%
%TO.N,D7*%
X132000000Y-55780000D03*
%TO.P,J3,9*%
%TO.N,D8*%
X132000000Y-58320000D03*
%TO.P,J3,10*%
%TO.N,D9*%
X132000000Y-60860000D03*
%TO.P,J3,11*%
%TO.N,D10*%
X132000000Y-63400000D03*
%TO.P,J3,12*%
%TO.N,D11*%
X132000000Y-65940000D03*
%TO.P,J3,13*%
%TO.N,D12*%
X132000000Y-68480000D03*
%TO.P,J3,14*%
%TO.N,D13*%
X132000000Y-71020000D03*
%TO.P,J3,15*%
%TO.N,D14*%
X132000000Y-73560000D03*
%TO.P,J3,16*%
%TO.N,D15*%
X132000000Y-76100000D03*
%TO.P,J3,17*%
%TO.N,GND*%
X132000000Y-78640000D03*
%TD*%
D10*
%TO.P,J2,1*%
%TO.N,A1*%
X108000000Y-38000000D03*
D11*
%TO.P,J2,2*%
%TO.N,A2*%
X108000000Y-40540000D03*
%TO.P,J2,3*%
%TO.N,A3*%
X108000000Y-43080000D03*
%TO.P,J2,4*%
%TO.N,A4*%
X108000000Y-45620000D03*
%TO.P,J2,5*%
%TO.N,A5*%
X108000000Y-48160000D03*
%TO.P,J2,6*%
%TO.N,A6*%
X108000000Y-50700000D03*
%TO.P,J2,7*%
%TO.N,A7*%
X108000000Y-53240000D03*
%TO.P,J2,8*%
%TO.N,A8*%
X108000000Y-55780000D03*
%TO.P,J2,9*%
%TO.N,A9*%
X108000000Y-58320000D03*
%TO.P,J2,10*%
%TO.N,A10*%
X108000000Y-60860000D03*
%TO.P,J2,11*%
%TO.N,A11*%
X108000000Y-63400000D03*
%TO.P,J2,12*%
%TO.N,A12*%
X108000000Y-65940000D03*
%TO.P,J2,13*%
%TO.N,A13*%
X108000000Y-68480000D03*
%TO.P,J2,14*%
%TO.N,A14*%
X108000000Y-71020000D03*
%TO.P,J2,15*%
%TO.N,A15*%
X108000000Y-73560000D03*
%TO.P,J2,16*%
%TO.N,A16*%
X108000000Y-76100000D03*
%TO.P,J2,17*%
%TO.N,A17*%
X108000000Y-78640000D03*
%TO.P,J2,18*%
%TO.N,A18*%
X108000000Y-81180000D03*
%TO.P,J2,19*%
%TO.N,A19*%
X108000000Y-83720000D03*
%TO.P,J2,20*%
%TO.N,A20*%
X108000000Y-86259999D03*
%TO.P,J2,21*%
%TO.N,A21*%
X108000000Y-88800000D03*
%TO.P,J2,22*%
%TO.N,A22*%
X108000000Y-91340000D03*
%TO.P,J2,23*%
%TO.N,A23*%
X108000000Y-93880000D03*
%TO.P,J2,24*%
%TO.N,GND*%
X108000000Y-96420000D03*
%TD*%
D10*
%TO.P,J7,1*%
%TO.N,OWN_N*%
X72000000Y-88000000D03*
D11*
%TO.P,J7,2*%
%TO.N,BR_N*%
X72000000Y-90540000D03*
%TO.P,J7,3*%
%TO.N,BGACK_N*%
X72000000Y-93080000D03*
%TO.P,J7,4*%
%TO.N,BG_N*%
X72000000Y-95620000D03*
%TO.P,J7,5*%
%TO.N,GBG_N*%
X72000000Y-98160000D03*
%TO.P,J7,6*%
%TO.N,GND*%
X72000000Y-100700000D03*
%TD*%
D13*
%TO.N,C3_N*%
X151620000Y-35277600D03*
%TO.N,CDAC*%
X148080000Y-113500000D03*
X148080000Y-44349900D03*
%TO.N,C1_N*%
X149080000Y-46952600D03*
%TO.N,E*%
X105900000Y-116000000D03*
X42643600Y-114274400D03*
%TO.N,CLK7M*%
X52560000Y-116000000D03*
%TO.N,GND*%
X120140000Y-113500000D03*
X104900000Y-113500000D03*
X59180000Y-113500000D03*
X163320000Y-113500000D03*
X165860000Y-113500000D03*
X55100000Y-116000000D03*
X42400000Y-116000000D03*
X135380000Y-113500000D03*
X57640000Y-116000000D03*
X54100000Y-113500000D03*
X150620000Y-113500000D03*
X74420000Y-113500000D03*
X56640000Y-113500000D03*
X164320000Y-116000000D03*
X89660000Y-113500000D03*
X166860000Y-116000000D03*
X41400000Y-113500000D03*
%TO.N,SLAVE_N*%
X40091200Y-116707500D03*
X155700000Y-113500000D03*
%TO.N,CFGIN_N*%
X154160000Y-116000000D03*
X154756700Y-79910000D03*
%TO.N,CFGOUT_N*%
X150225000Y-82512600D03*
%TO.N,AS_N*%
X75420000Y-116000000D03*
X154408300Y-107471500D03*
%TO.N,UDS_N*%
X77960000Y-116000000D03*
X77960000Y-107107200D03*
X156086000Y-106716800D03*
%TO.N,LDS_N*%
X80500000Y-54510000D03*
X80500000Y-116000000D03*
%TO.N,READ*%
X83040000Y-67142300D03*
X83040000Y-116000000D03*
%TO.N,DTACK_N*%
X85580000Y-69749900D03*
X85580000Y-116000000D03*
%TO.N,XRDY*%
X146540000Y-116000000D03*
%TO.N,RESET_N*%
X153052400Y-108095100D03*
X99820000Y-113500000D03*
%TO.N,HLT_N*%
X98738600Y-77315400D03*
%TO.N,BERR_N*%
X113559000Y-77726500D03*
%TO.N,FC0*%
X127760000Y-113500000D03*
X153731600Y-111014000D03*
%TO.N,FC1*%
X125220000Y-113500000D03*
X156798100Y-109786100D03*
%TO.N,FC2*%
X159270000Y-107782400D03*
X122680000Y-113500000D03*
%TO.N,DOE*%
X49020000Y-113500000D03*
%TO.N,BUSRST_N*%
X51404800Y-84990100D03*
%TO.N,+12V*%
X156700000Y-116000000D03*
X48337500Y-118270500D03*
%TO.N,-5V*%
X159240000Y-116000000D03*
X157764700Y-92611500D03*
%TO.N,RESERVED_40*%
X118600000Y-41810000D03*
%TO.N,RESERVED_42*%
X71015200Y-115402600D03*
X116060000Y-116000000D03*
%TO.N,RESERVED_44*%
X79339600Y-96918700D03*
X79339600Y-46265400D03*
X113520000Y-116000000D03*
X112882300Y-97760800D03*
%TO.N,RESERVED_96*%
X46798300Y-44620000D03*
%TO.N,LEGACY_VPA_N*%
X105174400Y-59539200D03*
X108440000Y-116000000D03*
%TO.N,LEGACY_VMA_N*%
X102360000Y-113500000D03*
X102360000Y-63981700D03*
%TO.N,NC_97*%
X43940000Y-113500000D03*
X43940000Y-55352600D03*
%TO.N,NC_98*%
X44940000Y-56071900D03*
%TO.N,SENSEZ3_91*%
X51560000Y-113500000D03*
X56905900Y-57320000D03*
%TO.N,+5V*%
X38779200Y-118956300D03*
X161780000Y-116000000D03*
%TO.N,-12V*%
X60822200Y-114983500D03*
X144000000Y-116000000D03*
%TO.N,INT2_N*%
X76213300Y-106426000D03*
X143000000Y-105988800D03*
X143000000Y-113500000D03*
%TO.N,INT6_N*%
X77439800Y-87596200D03*
X141460000Y-87596200D03*
X141460000Y-116000000D03*
%TO.N,OWN_N*%
X155407700Y-96918000D03*
X158240000Y-113500000D03*
%TO.N,A5*%
X140460000Y-113500000D03*
X137353400Y-49430000D03*
%TO.N,A6*%
X134719900Y-51970100D03*
X137920000Y-113500000D03*
%TO.N,A4*%
X130179300Y-45936600D03*
X138920000Y-116000000D03*
%TO.N,A3*%
X127699700Y-43080000D03*
%TO.N,A2*%
X128460700Y-40540000D03*
%TO.N,A7*%
X129476100Y-53240000D03*
X133840000Y-116000000D03*
%TO.N,A1*%
X127003700Y-38000000D03*
%TO.N,A8*%
X124481800Y-59539200D03*
%TO.N,A9*%
X128760000Y-116000000D03*
X123552300Y-62710400D03*
%TO.N,A10*%
X126220000Y-116000000D03*
X110480000Y-63340000D03*
X110480000Y-110854300D03*
%TO.N,A11*%
X110339400Y-112572100D03*
X123680000Y-116000000D03*
%TO.N,A12*%
X121140000Y-116000000D03*
%TO.N,A17*%
X107440000Y-113500000D03*
%TO.N,A19*%
X100820000Y-84303900D03*
X100820000Y-116000000D03*
%TO.N,A20*%
X103968100Y-86260000D03*
X98280000Y-116000000D03*
X103968100Y-115321900D03*
%TO.N,A22*%
X94740000Y-91340000D03*
%TO.N,A21*%
X95740000Y-88800000D03*
X95740000Y-116000000D03*
%TO.N,A23*%
X92200000Y-96394000D03*
%TO.N,BR_N*%
X93200000Y-100783900D03*
X93200000Y-116000000D03*
%TO.N,BGACK_N*%
X90660000Y-116000000D03*
X90660000Y-102878500D03*
%TO.N,D15*%
X87120000Y-90129300D03*
X130459500Y-91013500D03*
%TO.N,BG_N*%
X88892500Y-103555200D03*
X88120000Y-116000000D03*
%TO.N,D14*%
X84580000Y-113500000D03*
X131521700Y-108265800D03*
%TO.N,D13*%
X119856100Y-107994100D03*
X120272500Y-74887100D03*
X82040000Y-113500000D03*
%TO.N,D12*%
X79500000Y-113500000D03*
X135170800Y-107584200D03*
%TO.N,D11*%
X130165200Y-107006500D03*
X76960000Y-113500000D03*
%TO.N,D0*%
X73393200Y-35974600D03*
%TO.N,D10*%
X133039400Y-101075900D03*
X73951900Y-106432000D03*
%TO.N,D1*%
X76213200Y-36651300D03*
X69340000Y-113500000D03*
%TO.N,D9*%
X129137400Y-98603600D03*
X70338400Y-104232000D03*
X70340000Y-116000000D03*
%TO.N,D2*%
X128629500Y-109456300D03*
X66800000Y-113500000D03*
%TO.N,D8*%
X67800000Y-116000000D03*
X67800000Y-76638600D03*
X128799100Y-72290000D03*
%TO.N,D3*%
X131818300Y-106728000D03*
X64260000Y-113500000D03*
%TO.N,D7*%
X65260000Y-116000000D03*
X65260000Y-64670100D03*
%TO.N,D4*%
X128560100Y-73860300D03*
X61720000Y-113500000D03*
X64550100Y-75028300D03*
%TO.N,D6*%
X63567800Y-105737100D03*
X62720000Y-116000000D03*
X131136200Y-99906900D03*
%TO.N,D5*%
X74801600Y-49365400D03*
%TO.N,GBG_N*%
X46480000Y-113500000D03*
%TD*%
%TO.N,CDAC*%
D14*
X149080000Y-119000000D02*
X148080000Y-118000000D01*
X149080000Y-122000000D02*
X149080000Y-124120000D01*
X149080000Y-122000000D02*
X149080000Y-119000000D01*
X148080000Y-118000000D02*
X148080000Y-113500000D01*
%TO.N,CLK7M*%
X37540000Y-49160000D02*
X40685400Y-52305400D01*
X52560000Y-112914800D02*
X52560000Y-116000000D01*
X40685400Y-52305400D02*
X40685400Y-101040200D01*
X40685400Y-101040200D02*
X52560000Y-112914800D01*
%TO.N,GND*%
D15*
X75420000Y-122000000D02*
X75420000Y-119000000D01*
X57640000Y-122000000D02*
X57640000Y-119000000D01*
X55100000Y-119000000D02*
X54100000Y-118000000D01*
X105900000Y-122000000D02*
X105900000Y-119000000D01*
X166860000Y-122000000D02*
X166860000Y-119000000D01*
X105900000Y-119000000D02*
X104900000Y-118000000D01*
D14*
X57640000Y-122000000D02*
X57640000Y-124120000D01*
D15*
X75420000Y-119000000D02*
X74420000Y-118000000D01*
X165860000Y-118000000D02*
X165860000Y-113500000D01*
X121140000Y-119000000D02*
X120140000Y-118000000D01*
X90660000Y-119000000D02*
X89660000Y-118000000D01*
X57640000Y-119000000D02*
X56640000Y-118000000D01*
D14*
X105900000Y-122000000D02*
X105900000Y-124120000D01*
D15*
X136380000Y-119000000D02*
X135380000Y-118000000D01*
X166860000Y-119000000D02*
X165860000Y-118000000D01*
X163320000Y-118000000D02*
X163320000Y-113500000D01*
X56640000Y-118000000D02*
X56640000Y-113500000D01*
D14*
X55100000Y-122000000D02*
X55100000Y-124120000D01*
D15*
X60180000Y-119000000D02*
X59180000Y-118000000D01*
D14*
X136380000Y-122000000D02*
X136380000Y-124120000D01*
D15*
X164320000Y-122000000D02*
X164320000Y-119000000D01*
X42400000Y-119000000D02*
X41400000Y-118000000D01*
X89660000Y-118000000D02*
X89660000Y-113500000D01*
D14*
X166860000Y-122000000D02*
X166860000Y-124120000D01*
D15*
X121140000Y-122000000D02*
X121140000Y-119000000D01*
X135380000Y-118000000D02*
X135380000Y-113500000D01*
D14*
X75420000Y-122000000D02*
X75420000Y-124120000D01*
X121140000Y-122000000D02*
X121140000Y-124120000D01*
D15*
X55100000Y-122000000D02*
X55100000Y-119000000D01*
X136380000Y-122000000D02*
X136380000Y-119000000D01*
D14*
X60180000Y-122000000D02*
X60180000Y-124120000D01*
D15*
X151620000Y-119000000D02*
X150620000Y-118000000D01*
D14*
X164320000Y-122000000D02*
X164320000Y-124120000D01*
D15*
X42400000Y-122000000D02*
X42400000Y-119000000D01*
X104900000Y-118000000D02*
X104900000Y-113500000D01*
D14*
X90660000Y-122000000D02*
X90660000Y-124120000D01*
D15*
X60180000Y-122000000D02*
X60180000Y-119000000D01*
X151620000Y-122000000D02*
X151620000Y-119000000D01*
X150620000Y-118000000D02*
X150620000Y-113500000D01*
X54100000Y-118000000D02*
X54100000Y-113500000D01*
X41400000Y-118000000D02*
X41400000Y-113500000D01*
X90660000Y-122000000D02*
X90660000Y-119000000D01*
X59180000Y-118000000D02*
X59180000Y-113500000D01*
X120140000Y-118000000D02*
X120140000Y-113500000D01*
X164320000Y-119000000D02*
X163320000Y-118000000D01*
D14*
X151620000Y-122000000D02*
X151620000Y-124120000D01*
X42400000Y-122000000D02*
X42400000Y-124120000D01*
D15*
X74420000Y-118000000D02*
X74420000Y-113500000D01*
%TO.N,SLAVE_N*%
D14*
X155700000Y-118000000D02*
X155700000Y-113500000D01*
X156700000Y-119000000D02*
X155700000Y-118000000D01*
X156700000Y-122000000D02*
X156700000Y-119000000D01*
X156700000Y-122000000D02*
X156700000Y-124120000D01*
%TO.N,CFGIN_N*%
X154731000Y-79935700D02*
X154756700Y-79910000D01*
X154160000Y-116000000D02*
X154858500Y-115301500D01*
X155085000Y-109608500D02*
X155085000Y-104035500D01*
X154858500Y-115301500D02*
X154858500Y-109835000D01*
X154731000Y-103681500D02*
X154731000Y-79935700D01*
X155085000Y-104035500D02*
X154731000Y-103681500D01*
X154858500Y-109835000D02*
X155085000Y-109608500D01*
%TO.N,CFGOUT_N*%
X153160000Y-118000000D02*
X153160000Y-113500000D01*
X154160000Y-119000000D02*
X153160000Y-118000000D01*
X150225000Y-110565000D02*
X150225000Y-82512600D01*
X154160000Y-122000000D02*
X154160000Y-124120000D01*
X153160000Y-113500000D02*
X150225000Y-110565000D01*
X154160000Y-122000000D02*
X154160000Y-119000000D01*
%TO.N,UDS_N*%
X77960000Y-116000000D02*
X77960000Y-107107200D01*
%TO.N,LDS_N*%
X80500000Y-116000000D02*
X80500000Y-54510000D01*
%TO.N,READ*%
X83040000Y-116000000D02*
X83040000Y-67142300D01*
%TO.N,DTACK_N*%
X85580000Y-116000000D02*
X85580000Y-69749900D01*
%TO.N,OVR_N*%
X146540000Y-122000000D02*
X146540000Y-124120000D01*
X145540000Y-118000000D02*
X145540000Y-113500000D01*
X146540000Y-119000000D02*
X145540000Y-118000000D01*
X158000000Y-60700000D02*
X145540000Y-73160000D01*
X145540000Y-73160000D02*
X145540000Y-113500000D01*
X146540000Y-122000000D02*
X146540000Y-119000000D01*
%TO.N,XRDY*%
X146540000Y-74700000D02*
X158000000Y-63240000D01*
X146540000Y-116000000D02*
X146540000Y-74700000D01*
%TO.N,RESET_N*%
X100820000Y-122000000D02*
X100820000Y-119000000D01*
X100820000Y-122000000D02*
X100820000Y-124120000D01*
X99820000Y-118000000D02*
X99820000Y-113500000D01*
X158000000Y-65780000D02*
X153052400Y-70727600D01*
X153052400Y-70727600D02*
X153052400Y-108095100D01*
X100820000Y-119000000D02*
X99820000Y-118000000D01*
%TO.N,HLT_N*%
X98280000Y-122000000D02*
X98280000Y-124120000D01*
X98280000Y-122000000D02*
X98280000Y-119000000D01*
X98280000Y-119000000D02*
X97280000Y-118000000D01*
X97280000Y-113500000D02*
X98738600Y-112041400D01*
X97280000Y-118000000D02*
X97280000Y-113500000D01*
X98738600Y-112041400D02*
X98738600Y-77315400D01*
%TO.N,FC0*%
X153731600Y-77668400D02*
X153731600Y-111014000D01*
X158000000Y-73400000D02*
X153731600Y-77668400D01*
X128760000Y-122000000D02*
X128760000Y-124120000D01*
X128760000Y-119000000D02*
X127760000Y-118000000D01*
X127760000Y-118000000D02*
X127760000Y-113500000D01*
X128760000Y-122000000D02*
X128760000Y-119000000D01*
%TO.N,FC1*%
X126220000Y-119000000D02*
X125220000Y-118000000D01*
X125220000Y-118000000D02*
X125220000Y-113500000D01*
X126220000Y-122000000D02*
X126220000Y-119000000D01*
X126220000Y-122000000D02*
X126220000Y-124120000D01*
%TO.N,FC2*%
X123680000Y-122000000D02*
X123680000Y-124120000D01*
X123680000Y-119000000D02*
X122680000Y-118000000D01*
X160540000Y-78480000D02*
X159270000Y-79750000D01*
X123680000Y-122000000D02*
X123680000Y-119000000D01*
X159270000Y-79750000D02*
X159270000Y-107782400D01*
X122680000Y-118000000D02*
X122680000Y-113500000D01*
%TO.N,DOE*%
X50020000Y-122000000D02*
X50020000Y-119000000D01*
X50020000Y-122000000D02*
X50020000Y-124120000D01*
X50020000Y-119000000D02*
X49020000Y-118000000D01*
X49020000Y-118000000D02*
X49020000Y-113500000D01*
%TO.N,-5V*%
X157764700Y-107713300D02*
X157764700Y-92611500D01*
X159240000Y-116000000D02*
X159240000Y-109188600D01*
X159240000Y-109188600D02*
X157764700Y-107713300D01*
%TO.N,RESERVED_42*%
X72000000Y-39540000D02*
X70798300Y-40741700D01*
X70798300Y-40741700D02*
X70798300Y-102625800D01*
X70798300Y-102625800D02*
X71015200Y-102842700D01*
X71015200Y-102842700D02*
X71015200Y-115402600D01*
%TO.N,RESERVED_44*%
X112882300Y-97760800D02*
X113520000Y-98398500D01*
X113520000Y-98398500D02*
X113520000Y-116000000D01*
%TO.N,LEGACY_VPA_N*%
X108440000Y-101202700D02*
X105174400Y-97937100D01*
X105174400Y-97937100D02*
X105174400Y-59539200D01*
X108440000Y-116000000D02*
X108440000Y-101202700D01*
%TO.N,LEGACY_VMA_N*%
X102360000Y-118000000D02*
X102360000Y-113500000D01*
X103360000Y-119000000D02*
X102360000Y-118000000D01*
X103360000Y-122000000D02*
X103360000Y-119000000D01*
X103360000Y-122000000D02*
X103360000Y-124120000D01*
%TO.N,NC_97*%
X43940000Y-118000000D02*
X43940000Y-113500000D01*
X44940000Y-119000000D02*
X43940000Y-118000000D01*
X44940000Y-122000000D02*
X44940000Y-119000000D01*
X44940000Y-122000000D02*
X44940000Y-124120000D01*
%TO.N,SENSEZ3_91*%
X52560000Y-122000000D02*
X52560000Y-124120000D01*
X52560000Y-119000000D02*
X51560000Y-118000000D01*
X51560000Y-118000000D02*
X51560000Y-113500000D01*
X52560000Y-122000000D02*
X52560000Y-119000000D01*
%TO.N,+5V*%
X161780000Y-122000000D02*
X161780000Y-119000000D01*
X161780000Y-122000000D02*
X161780000Y-124120000D01*
X161780000Y-119000000D02*
X161780000Y-116000000D01*
%TO.N,INT2_N*%
X144000000Y-122000000D02*
X144000000Y-124120000D01*
X143000000Y-118000000D02*
X143000000Y-113500000D01*
X144000000Y-122000000D02*
X144000000Y-119000000D01*
X144000000Y-119000000D02*
X143000000Y-118000000D01*
%TO.N,INT6_N*%
X77439800Y-74439800D02*
X77439800Y-87596200D01*
X141460000Y-116000000D02*
X141460000Y-87596200D01*
X74540000Y-71540000D02*
X77439800Y-74439800D01*
%TO.N,OWN_N*%
X159240000Y-122000000D02*
X159240000Y-119000000D01*
X158240000Y-118000000D02*
X158240000Y-113500000D01*
X159240000Y-119000000D02*
X158240000Y-118000000D01*
X159240000Y-122000000D02*
X159240000Y-124120000D01*
%TO.N,A5*%
X141460000Y-122000000D02*
X141460000Y-119000000D01*
X141460000Y-119000000D02*
X140460000Y-118000000D01*
X141460000Y-122000000D02*
X141460000Y-124120000D01*
X140460000Y-118000000D02*
X140460000Y-113500000D01*
%TO.N,A6*%
X138920000Y-122000000D02*
X138920000Y-119000000D01*
X137920000Y-118000000D02*
X137920000Y-113500000D01*
X138920000Y-119000000D02*
X137920000Y-118000000D01*
X138920000Y-122000000D02*
X138920000Y-124120000D01*
%TO.N,A4*%
X130315800Y-91826700D02*
X130315800Y-104207300D01*
X129782800Y-90733300D02*
X129782800Y-91293700D01*
X130315800Y-104207300D02*
X138920000Y-112811500D01*
X130179300Y-45936600D02*
X130179300Y-90336800D01*
X138920000Y-112811500D02*
X138920000Y-116000000D01*
X129782800Y-91293700D02*
X130315800Y-91826700D01*
X130179300Y-90336800D02*
X129782800Y-90733300D01*
%TO.N,A2*%
X133840000Y-119000000D02*
X132840000Y-118000000D01*
X128460700Y-40540000D02*
X128460700Y-69700600D01*
X127877400Y-109187900D02*
X127952800Y-109263300D01*
X128460700Y-69700600D02*
X127877400Y-70283900D01*
X127952800Y-109736500D02*
X128349300Y-110133000D01*
X133840000Y-122000000D02*
X133840000Y-119000000D01*
X132840000Y-118000000D02*
X132840000Y-113500000D01*
X128349300Y-110133000D02*
X129473000Y-110133000D01*
X129473000Y-110133000D02*
X132840000Y-113500000D01*
X133840000Y-122000000D02*
X133840000Y-124120000D01*
X127952800Y-109263300D02*
X127952800Y-109736500D01*
X127877400Y-70283900D02*
X127877400Y-109187900D01*
%TO.N,A7*%
X129476100Y-107842300D02*
X133840000Y-112206200D01*
X129281100Y-91501400D02*
X129476100Y-91696400D01*
X129476100Y-97985300D02*
X129814100Y-98323300D01*
X129476100Y-53240000D02*
X129476100Y-90330600D01*
X129814100Y-98883900D02*
X129476100Y-99221900D01*
X129476100Y-90330600D02*
X129281100Y-90525600D01*
X129281100Y-90525600D02*
X129281100Y-91501400D01*
X129476100Y-91696400D02*
X129476100Y-97985300D01*
X129476100Y-99221900D02*
X129476100Y-107842300D01*
X133840000Y-112206200D02*
X133840000Y-116000000D01*
X129814100Y-98323300D02*
X129814100Y-98883900D01*
%TO.N,A1*%
X131300000Y-119000000D02*
X130300000Y-118000000D01*
X131300000Y-122000000D02*
X131300000Y-124120000D01*
X131300000Y-122000000D02*
X131300000Y-119000000D01*
X130300000Y-112793100D02*
X130300000Y-113500000D01*
X130300000Y-118000000D02*
X130300000Y-113500000D01*
X127003700Y-109496800D02*
X130300000Y-112793100D01*
X127003700Y-38000000D02*
X127003700Y-109496800D01*
%TO.N,A9*%
X123552300Y-107105900D02*
X123552300Y-62710400D01*
X128760000Y-116000000D02*
X128760000Y-112313600D01*
X128760000Y-112313600D02*
X123552300Y-107105900D01*
%TO.N,A12*%
X121140000Y-116000000D02*
X121140000Y-79080000D01*
X121140000Y-79080000D02*
X108000000Y-65940000D01*
%TO.N,A13*%
X117600000Y-118000000D02*
X117600000Y-113500000D01*
X117600000Y-113500000D02*
X117600000Y-78080000D01*
X118600000Y-119000000D02*
X117600000Y-118000000D01*
X118600000Y-122000000D02*
X118600000Y-119000000D01*
X118600000Y-122000000D02*
X118600000Y-124120000D01*
X117600000Y-78080000D02*
X108000000Y-68480000D01*
%TO.N,A14*%
X116060000Y-122000000D02*
X116060000Y-124120000D01*
X115060000Y-78080000D02*
X108000000Y-71020000D01*
X116060000Y-122000000D02*
X116060000Y-119000000D01*
X116060000Y-119000000D02*
X115060000Y-118000000D01*
X115060000Y-113500000D02*
X115060000Y-78080000D01*
X115060000Y-118000000D02*
X115060000Y-113500000D01*
%TO.N,A15*%
X113520000Y-122000000D02*
X113520000Y-124120000D01*
X112205600Y-113185600D02*
X112520000Y-113500000D01*
X108000000Y-73560000D02*
X112205600Y-77765600D01*
X112520000Y-118000000D02*
X112520000Y-113500000D01*
X112205600Y-77765600D02*
X112205600Y-113185600D01*
X113520000Y-119000000D02*
X112520000Y-118000000D01*
X113520000Y-122000000D02*
X113520000Y-119000000D01*
%TO.N,A16*%
X110980000Y-122000000D02*
X110980000Y-119000000D01*
X109662700Y-77762700D02*
X109662700Y-113182700D01*
X109980000Y-118000000D02*
X109980000Y-113500000D01*
X110980000Y-122000000D02*
X110980000Y-124120000D01*
X109662700Y-113182700D02*
X109980000Y-113500000D01*
X108000000Y-76100000D02*
X109662700Y-77762700D01*
X110980000Y-119000000D02*
X109980000Y-118000000D01*
%TO.N,A17*%
X107440000Y-118000000D02*
X107440000Y-113500000D01*
X108440000Y-119000000D02*
X107440000Y-118000000D01*
X108440000Y-122000000D02*
X108440000Y-119000000D01*
X108440000Y-122000000D02*
X108440000Y-124120000D01*
%TO.N,A19*%
X100820000Y-116000000D02*
X100820000Y-84303900D01*
%TO.N,A22*%
X94740000Y-113500000D02*
X94740000Y-91340000D01*
X95740000Y-122000000D02*
X95740000Y-124120000D01*
X94740000Y-118000000D02*
X94740000Y-113500000D01*
X95740000Y-122000000D02*
X95740000Y-119000000D01*
X95740000Y-119000000D02*
X94740000Y-118000000D01*
%TO.N,A21*%
X95740000Y-116000000D02*
X95740000Y-88800000D01*
%TO.N,A23*%
X92200000Y-113500000D02*
X92200000Y-96394000D01*
X93200000Y-122000000D02*
X93200000Y-119000000D01*
X93200000Y-119000000D02*
X92200000Y-118000000D01*
X92200000Y-118000000D02*
X92200000Y-113500000D01*
X93200000Y-122000000D02*
X93200000Y-124120000D01*
%TO.N,BR_N*%
X93200000Y-116000000D02*
X93200000Y-100783900D01*
%TO.N,BGACK_N*%
X90660000Y-116000000D02*
X90660000Y-102878500D01*
%TO.N,D15*%
X87120000Y-113500000D02*
X87120000Y-90129300D01*
X88120000Y-122000000D02*
X88120000Y-119000000D01*
X87120000Y-118000000D02*
X87120000Y-113500000D01*
X88120000Y-119000000D02*
X87120000Y-118000000D01*
X88120000Y-122000000D02*
X88120000Y-124120000D01*
%TO.N,BG_N*%
X88120000Y-116000000D02*
X88892500Y-115227500D01*
X88892500Y-115227500D02*
X88892500Y-103555200D01*
%TO.N,D14*%
X85580000Y-119000000D02*
X84580000Y-118000000D01*
X85580000Y-122000000D02*
X85580000Y-124120000D01*
X85580000Y-122000000D02*
X85580000Y-119000000D01*
X84580000Y-118000000D02*
X84580000Y-113500000D01*
%TO.N,D13*%
X83040000Y-122000000D02*
X83040000Y-124120000D01*
X83040000Y-122000000D02*
X83040000Y-119000000D01*
X82040000Y-118000000D02*
X82040000Y-113500000D01*
X83040000Y-119000000D02*
X82040000Y-118000000D01*
%TO.N,D12*%
X135170800Y-71650800D02*
X135170800Y-107584200D01*
X80500000Y-122000000D02*
X80500000Y-119000000D01*
X80500000Y-122000000D02*
X80500000Y-124120000D01*
X132000000Y-68480000D02*
X135170800Y-71650800D01*
X79500000Y-118000000D02*
X79500000Y-113500000D01*
X80500000Y-119000000D02*
X79500000Y-118000000D01*
%TO.N,D11*%
X77960000Y-122000000D02*
X77960000Y-119000000D01*
X77960000Y-119000000D02*
X76960000Y-118000000D01*
X76960000Y-118000000D02*
X76960000Y-113500000D01*
X77960000Y-122000000D02*
X77960000Y-124120000D01*
%TO.N,D0*%
X71880000Y-113500000D02*
X73269900Y-112110100D01*
X72880000Y-122000000D02*
X72880000Y-119000000D01*
X73269900Y-112110100D02*
X73269900Y-36097900D01*
X73269900Y-36097900D02*
X73393200Y-35974600D01*
X72880000Y-122000000D02*
X72880000Y-124120000D01*
X71880000Y-118000000D02*
X71880000Y-113500000D01*
X72880000Y-119000000D02*
X71880000Y-118000000D01*
%TO.N,D1*%
X70340000Y-122000000D02*
X70340000Y-119000000D01*
X70340000Y-119000000D02*
X69340000Y-118000000D01*
X70340000Y-122000000D02*
X70340000Y-124120000D01*
X69340000Y-118000000D02*
X69340000Y-113500000D01*
%TO.N,D9*%
X70340000Y-116000000D02*
X70338400Y-115998400D01*
X70338400Y-115998400D02*
X70338400Y-104232000D01*
%TO.N,D2*%
X67800000Y-122000000D02*
X67800000Y-119000000D01*
X67800000Y-119000000D02*
X66800000Y-118000000D01*
X67800000Y-122000000D02*
X67800000Y-124120000D01*
X66800000Y-118000000D02*
X66800000Y-113500000D01*
%TO.N,D8*%
X67800000Y-116000000D02*
X67800000Y-76638600D01*
%TO.N,D3*%
X64260000Y-118000000D02*
X64260000Y-113500000D01*
X65260000Y-122000000D02*
X65260000Y-124120000D01*
X65260000Y-122000000D02*
X65260000Y-119000000D01*
X65260000Y-119000000D02*
X64260000Y-118000000D01*
%TO.N,D7*%
X65260000Y-116000000D02*
X65260000Y-64670100D01*
%TO.N,D4*%
X62720000Y-122000000D02*
X62720000Y-124120000D01*
X62720000Y-122000000D02*
X62720000Y-119000000D01*
X62720000Y-119000000D02*
X61720000Y-118000000D01*
X61720000Y-118000000D02*
X61720000Y-113500000D01*
%TO.N,D6*%
X130739800Y-90336800D02*
X131136200Y-90733200D01*
X63567800Y-115152200D02*
X63567800Y-105737100D01*
X130739800Y-54500200D02*
X130739800Y-90336800D01*
X131136200Y-90733200D02*
X131136200Y-99906900D01*
X132000000Y-53240000D02*
X130739800Y-54500200D01*
X62720000Y-116000000D02*
X63567800Y-115152200D01*
%TO.N,GBG_N*%
X46480000Y-118000000D02*
X46480000Y-113500000D01*
X47480000Y-122000000D02*
X47480000Y-124120000D01*
X47480000Y-122000000D02*
X47480000Y-119000000D01*
X47480000Y-119000000D02*
X46480000Y-118000000D01*
%TD*%
M02*
