%TF.GenerationSoftware,KiCad,Pcbnew,10.0.5-1-g226df246f3*%
%TF.CreationDate,2026-09-10T20:59:29+01:00*%
%TF.ProjectId,zorro-breakout,7a6f7272-6f2d-4627-9265-616b6f75742e,rev?*%
%TF.SameCoordinates,Original*%
%TF.FileFunction,Copper,L3,Inr*%
%TF.FilePolarity,Positive*%
%FSLAX46Y46*%
G04 Gerber Fmt 4.6, Leading zero omitted, Abs format (unit mm)*
G04 Created by KiCad (PCBNEW 10.0.5-1-g226df246f3) date 2026-09-10 20:59:29*
%MOMM*%
%LPD*%
G01*
G04 APERTURE LIST*
%TA.AperFunction,ComponentPad*%
%ADD10R,1.700000X1.700000*%
%TD*%
%TA.AperFunction,ComponentPad*%
%ADD11C,1.700000*%
%TD*%
%TA.AperFunction,ViaPad*%
%ADD12C,0.650000*%
%TD*%
%TA.AperFunction,Conductor*%
%ADD13C,0.300000*%
%TD*%
G04 APERTURE END LIST*
D10*
%TO.N,C3_N*%
%TO.C,J8*%
X35000000Y-39000000D03*
D11*
X37540000Y-39000000D03*
%TO.N,CDAC*%
X35000000Y-41540000D03*
X37540000Y-41540000D03*
%TO.N,C1_N*%
X35000000Y-44080000D03*
X37540000Y-44080000D03*
%TO.N,E*%
X35000000Y-46620000D03*
X37540000Y-46620000D03*
%TO.N,CLK7M*%
X35000000Y-49160000D03*
X37540000Y-49160000D03*
%TO.N,GND*%
X35000000Y-51700000D03*
X37540000Y-51700000D03*
%TD*%
D10*
%TO.N,SLAVE_N*%
%TO.C,J5*%
X35000000Y-66000000D03*
D11*
X37540000Y-66000000D03*
%TO.N,CFGIN_N*%
X35000000Y-68540000D03*
X37540000Y-68540000D03*
%TO.N,CFGOUT_N*%
X35000000Y-71080000D03*
X37540000Y-71080000D03*
%TO.N,GND*%
X35000000Y-73620000D03*
X37540000Y-73620000D03*
%TD*%
D10*
%TO.N,AS_N*%
%TO.C,J4*%
X158000000Y-48000000D03*
D11*
X160540000Y-48000000D03*
%TO.N,UDS_N*%
X158000000Y-50540000D03*
X160540000Y-50540000D03*
%TO.N,LDS_N*%
X158000000Y-53080000D03*
X160540000Y-53080000D03*
%TO.N,READ*%
X158000000Y-55620000D03*
X160540000Y-55620000D03*
%TO.N,DTACK_N*%
X158000000Y-58160000D03*
X160540000Y-58160000D03*
%TO.N,OVR_N*%
X158000000Y-60700000D03*
X160540000Y-60700000D03*
%TO.N,XRDY*%
X158000000Y-63240000D03*
X160540000Y-63240000D03*
%TO.N,RESET_N*%
X158000000Y-65780000D03*
X160540000Y-65780000D03*
%TO.N,HLT_N*%
X158000000Y-68320000D03*
X160540000Y-68320000D03*
%TO.N,BERR_N*%
X158000000Y-70860000D03*
X160540000Y-70860000D03*
%TO.N,FC0*%
X158000000Y-73400000D03*
X160540000Y-73400000D03*
%TO.N,FC1*%
X158000000Y-75940000D03*
X160540000Y-75940000D03*
%TO.N,FC2*%
X158000000Y-78480000D03*
X160540000Y-78480000D03*
%TO.N,DOE*%
X158000000Y-81020000D03*
X160540000Y-81020000D03*
%TO.N,BUSRST_N*%
X158000000Y-83560000D03*
X160540000Y-83560000D03*
%TO.N,GND*%
X158000000Y-86100000D03*
X160540000Y-86100000D03*
%TD*%
D10*
%TO.N,+12V*%
%TO.C,TP2*%
X48000000Y-83000000D03*
%TD*%
%TO.N,-5V*%
%TO.C,TP1*%
X35000000Y-83000000D03*
%TD*%
%TO.N,RESERVED_40*%
%TO.C,J10*%
X72000000Y-37000000D03*
D11*
%TO.N,RESERVED_42*%
X72000000Y-39540000D03*
%TO.N,RESERVED_44*%
X72000000Y-42080000D03*
%TO.N,RESERVED_96*%
X72000000Y-44620000D03*
%TO.N,LEGACY_VPA_N*%
X72000000Y-47160000D03*
%TO.N,LEGACY_VMA_N*%
X72000000Y-49700000D03*
%TO.N,NC_97*%
X72000000Y-52240000D03*
%TO.N,NC_98*%
X72000000Y-54780000D03*
%TO.N,SENSEZ3_91*%
X72000000Y-57320000D03*
%TO.N,GND*%
X72000000Y-59860000D03*
%TD*%
D10*
%TO.N,+5V*%
%TO.C,J9*%
X35000000Y-92000000D03*
D11*
X37540000Y-92000000D03*
X35000000Y-94540000D03*
X37540000Y-94540000D03*
%TO.N,GND*%
X35000000Y-97080000D03*
X37540000Y-97080000D03*
X35000000Y-99620000D03*
X37540000Y-99620000D03*
X35000000Y-102160000D03*
X37540000Y-102160000D03*
X35000000Y-104700000D03*
X37540000Y-104700000D03*
%TD*%
D10*
%TO.N,-12V*%
%TO.C,TP3*%
X61000000Y-83000000D03*
%TD*%
%TO.N,INT2_N*%
%TO.C,J6*%
X72000000Y-69000000D03*
D11*
X74540000Y-69000000D03*
%TO.N,INT6_N*%
X72000000Y-71540000D03*
X74540000Y-71540000D03*
%TO.N,GND*%
X72000000Y-74080000D03*
X74540000Y-74080000D03*
%TD*%
D10*
%TO.N,D0*%
%TO.C,J3*%
X132000000Y-38000000D03*
D11*
%TO.N,D1*%
X132000000Y-40540000D03*
%TO.N,D2*%
X132000000Y-43080000D03*
%TO.N,D3*%
X132000000Y-45620000D03*
%TO.N,D4*%
X132000000Y-48160000D03*
%TO.N,D5*%
X132000000Y-50700000D03*
%TO.N,D6*%
X132000000Y-53240000D03*
%TO.N,D7*%
X132000000Y-55780000D03*
%TO.N,D8*%
X132000000Y-58320000D03*
%TO.N,D9*%
X132000000Y-60860000D03*
%TO.N,D10*%
X132000000Y-63400000D03*
%TO.N,D11*%
X132000000Y-65940000D03*
%TO.N,D12*%
X132000000Y-68480000D03*
%TO.N,D13*%
X132000000Y-71020000D03*
%TO.N,D14*%
X132000000Y-73560000D03*
%TO.N,D15*%
X132000000Y-76100000D03*
%TO.N,GND*%
X132000000Y-78640000D03*
%TD*%
D10*
%TO.N,A1*%
%TO.C,J2*%
X108000000Y-38000000D03*
D11*
%TO.N,A2*%
X108000000Y-40540000D03*
%TO.N,A3*%
X108000000Y-43080000D03*
%TO.N,A4*%
X108000000Y-45620000D03*
%TO.N,A5*%
X108000000Y-48160000D03*
%TO.N,A6*%
X108000000Y-50700000D03*
%TO.N,A7*%
X108000000Y-53240000D03*
%TO.N,A8*%
X108000000Y-55780000D03*
%TO.N,A9*%
X108000000Y-58320000D03*
%TO.N,A10*%
X108000000Y-60860000D03*
%TO.N,A11*%
X108000000Y-63400000D03*
%TO.N,A12*%
X108000000Y-65940000D03*
%TO.N,A13*%
X108000000Y-68480000D03*
%TO.N,A14*%
X108000000Y-71020000D03*
%TO.N,A15*%
X108000000Y-73560000D03*
%TO.N,A16*%
X108000000Y-76100000D03*
%TO.N,A17*%
X108000000Y-78640000D03*
%TO.N,A18*%
X108000000Y-81180000D03*
%TO.N,A19*%
X108000000Y-83720000D03*
%TO.N,A20*%
X108000000Y-86259999D03*
%TO.N,A21*%
X108000000Y-88800000D03*
%TO.N,A22*%
X108000000Y-91340000D03*
%TO.N,A23*%
X108000000Y-93880000D03*
%TO.N,GND*%
X108000000Y-96420000D03*
%TD*%
D10*
%TO.N,OWN_N*%
%TO.C,J7*%
X72000000Y-88000000D03*
D11*
%TO.N,BR_N*%
X72000000Y-90540000D03*
%TO.N,BGACK_N*%
X72000000Y-93080000D03*
%TO.N,BG_N*%
X72000000Y-95620000D03*
%TO.N,GBG_N*%
X72000000Y-98160000D03*
%TO.N,GND*%
X72000000Y-100700000D03*
%TD*%
D12*
%TO.N,C3_N*%
X151620000Y-35277600D03*
%TO.N,CDAC*%
X148080000Y-113500000D03*
X148080000Y-44349900D03*
%TO.N,C1_N*%
X149080000Y-46952600D03*
%TO.N,E*%
X105900000Y-116000000D03*
X42643600Y-114274400D03*
%TO.N,CLK7M*%
X52560000Y-116000000D03*
%TO.N,GND*%
X120140000Y-113500000D03*
X104900000Y-113500000D03*
X59180000Y-113500000D03*
X163320000Y-113500000D03*
X165860000Y-113500000D03*
X55100000Y-116000000D03*
X42400000Y-116000000D03*
X135380000Y-113500000D03*
X57640000Y-116000000D03*
X54100000Y-113500000D03*
X150620000Y-113500000D03*
X74420000Y-113500000D03*
X56640000Y-113500000D03*
X164320000Y-116000000D03*
X89660000Y-113500000D03*
X166860000Y-116000000D03*
X41400000Y-113500000D03*
%TO.N,SLAVE_N*%
X40091200Y-116707500D03*
X155700000Y-113500000D03*
%TO.N,CFGIN_N*%
X154160000Y-116000000D03*
X154756700Y-79910000D03*
%TO.N,CFGOUT_N*%
X150225000Y-82512600D03*
%TO.N,AS_N*%
X75420000Y-116000000D03*
X154408300Y-107471500D03*
%TO.N,UDS_N*%
X77960000Y-116000000D03*
X77960000Y-107107200D03*
X156086000Y-106716800D03*
%TO.N,LDS_N*%
X80500000Y-54510000D03*
X80500000Y-116000000D03*
%TO.N,READ*%
X83040000Y-67142300D03*
X83040000Y-116000000D03*
%TO.N,DTACK_N*%
X85580000Y-69749900D03*
X85580000Y-116000000D03*
%TO.N,XRDY*%
X146540000Y-116000000D03*
%TO.N,RESET_N*%
X153052400Y-108095100D03*
X99820000Y-113500000D03*
%TO.N,HLT_N*%
X98738600Y-77315400D03*
%TO.N,BERR_N*%
X113559000Y-77726500D03*
%TO.N,FC0*%
X127760000Y-113500000D03*
X153731600Y-111014000D03*
%TO.N,FC1*%
X125220000Y-113500000D03*
X156798100Y-109786100D03*
%TO.N,FC2*%
X159270000Y-107782400D03*
X122680000Y-113500000D03*
%TO.N,DOE*%
X49020000Y-113500000D03*
%TO.N,BUSRST_N*%
X51404800Y-84990100D03*
%TO.N,+12V*%
X156700000Y-116000000D03*
X48337500Y-118270500D03*
%TO.N,-5V*%
X159240000Y-116000000D03*
X157764700Y-92611500D03*
%TO.N,RESERVED_40*%
X118600000Y-41810000D03*
%TO.N,RESERVED_42*%
X71015200Y-115402600D03*
X116060000Y-116000000D03*
%TO.N,RESERVED_44*%
X79339600Y-96918700D03*
X79339600Y-46265400D03*
X113520000Y-116000000D03*
X112882300Y-97760800D03*
%TO.N,RESERVED_96*%
X46798300Y-44620000D03*
%TO.N,LEGACY_VPA_N*%
X105174400Y-59539200D03*
X108440000Y-116000000D03*
%TO.N,LEGACY_VMA_N*%
X102360000Y-113500000D03*
X102360000Y-63981700D03*
%TO.N,NC_97*%
X43940000Y-113500000D03*
X43940000Y-55352600D03*
%TO.N,NC_98*%
X44940000Y-56071900D03*
%TO.N,SENSEZ3_91*%
X51560000Y-113500000D03*
X56905900Y-57320000D03*
%TO.N,+5V*%
X38779200Y-118956300D03*
X161780000Y-116000000D03*
%TO.N,-12V*%
X60822200Y-114983500D03*
X144000000Y-116000000D03*
%TO.N,INT2_N*%
X76213300Y-106426000D03*
X143000000Y-105988800D03*
X143000000Y-113500000D03*
%TO.N,INT6_N*%
X77439800Y-87596200D03*
X141460000Y-87596200D03*
X141460000Y-116000000D03*
%TO.N,OWN_N*%
X155407700Y-96918000D03*
X158240000Y-113500000D03*
%TO.N,A5*%
X140460000Y-113500000D03*
X137353400Y-49430000D03*
%TO.N,A6*%
X134719900Y-51970100D03*
X137920000Y-113500000D03*
%TO.N,A4*%
X130179300Y-45936600D03*
X138920000Y-116000000D03*
%TO.N,A3*%
X127699700Y-43080000D03*
%TO.N,A2*%
X128460700Y-40540000D03*
%TO.N,A7*%
X129476100Y-53240000D03*
X133840000Y-116000000D03*
%TO.N,A1*%
X127003700Y-38000000D03*
%TO.N,A8*%
X124481800Y-59539200D03*
%TO.N,A9*%
X128760000Y-116000000D03*
X123552300Y-62710400D03*
%TO.N,A10*%
X126220000Y-116000000D03*
X110480000Y-63340000D03*
X110480000Y-110854300D03*
%TO.N,A11*%
X110339400Y-112572100D03*
X123680000Y-116000000D03*
%TO.N,A12*%
X121140000Y-116000000D03*
%TO.N,A17*%
X107440000Y-113500000D03*
%TO.N,A19*%
X100820000Y-84303900D03*
X100820000Y-116000000D03*
%TO.N,A20*%
X103968100Y-86260000D03*
X98280000Y-116000000D03*
X103968100Y-115321900D03*
%TO.N,A22*%
X94740000Y-91340000D03*
%TO.N,A21*%
X95740000Y-88800000D03*
X95740000Y-116000000D03*
%TO.N,A23*%
X92200000Y-96394000D03*
%TO.N,BR_N*%
X93200000Y-100783900D03*
X93200000Y-116000000D03*
%TO.N,BGACK_N*%
X90660000Y-116000000D03*
X90660000Y-102878500D03*
%TO.N,D15*%
X87120000Y-90129300D03*
X130459500Y-91013500D03*
%TO.N,BG_N*%
X88892500Y-103555200D03*
X88120000Y-116000000D03*
%TO.N,D14*%
X84580000Y-113500000D03*
X131521700Y-108265800D03*
%TO.N,D13*%
X119856100Y-107994100D03*
X120272500Y-74887100D03*
X82040000Y-113500000D03*
%TO.N,D12*%
X79500000Y-113500000D03*
X135170800Y-107584200D03*
%TO.N,D11*%
X130165200Y-107006500D03*
X76960000Y-113500000D03*
%TO.N,D0*%
X73393200Y-35974600D03*
%TO.N,D10*%
X133039400Y-101075900D03*
X73951900Y-106432000D03*
%TO.N,D1*%
X76213200Y-36651300D03*
X69340000Y-113500000D03*
%TO.N,D9*%
X129137400Y-98603600D03*
X70338400Y-104232000D03*
X70340000Y-116000000D03*
%TO.N,D2*%
X128629500Y-109456300D03*
X66800000Y-113500000D03*
%TO.N,D8*%
X67800000Y-116000000D03*
X67800000Y-76638600D03*
X128799100Y-72290000D03*
%TO.N,D3*%
X131818300Y-106728000D03*
X64260000Y-113500000D03*
%TO.N,D7*%
X65260000Y-116000000D03*
X65260000Y-64670100D03*
%TO.N,D4*%
X128560100Y-73860300D03*
X61720000Y-113500000D03*
X64550100Y-75028300D03*
%TO.N,D6*%
X63567800Y-105737100D03*
X62720000Y-116000000D03*
X131136200Y-99906900D03*
%TO.N,D5*%
X74801600Y-49365400D03*
%TO.N,GBG_N*%
X46480000Y-113500000D03*
%TD*%
%TO.N,C3_N*%
D13*
X37540000Y-39000000D02*
X41262400Y-35277600D01*
X41262400Y-35277600D02*
X151620000Y-35277600D01*
%TO.N,CDAC*%
X148080000Y-44349900D02*
X79222600Y-44349900D01*
X75682700Y-40810000D02*
X38270000Y-40810000D01*
X38270000Y-40810000D02*
X37540000Y-41540000D01*
X79222600Y-44349900D02*
X75682700Y-40810000D01*
%TO.N,C1_N*%
X37540000Y-44080000D02*
X39409400Y-45949400D01*
X39409400Y-45949400D02*
X73687100Y-45949400D01*
X73687100Y-45949400D02*
X74690300Y-46952600D01*
X74690300Y-46952600D02*
X149080000Y-46952600D01*
%TO.N,E*%
X101487300Y-114630600D02*
X101415400Y-114702500D01*
X101415400Y-114702500D02*
X65698000Y-114702500D01*
X65269900Y-114274400D02*
X42643600Y-114274400D01*
X65698000Y-114702500D02*
X65269900Y-114274400D01*
X104530600Y-114630600D02*
X101487300Y-114630600D01*
X105900000Y-116000000D02*
X104530600Y-114630600D01*
%TO.N,SLAVE_N*%
X40091200Y-116707500D02*
X60682700Y-116707500D01*
X150985100Y-118214900D02*
X155700000Y-113500000D01*
X62190100Y-118214900D02*
X150985100Y-118214900D01*
X60682700Y-116707500D02*
X62190100Y-118214900D01*
%TO.N,CFGIN_N*%
X68474900Y-79910000D02*
X130861200Y-79910000D01*
X131294600Y-80343400D02*
X154323300Y-80343400D01*
X57104900Y-68540000D02*
X68474900Y-79910000D01*
X37540000Y-68540000D02*
X57104900Y-68540000D01*
X154323300Y-80343400D02*
X154756700Y-79910000D01*
X130861200Y-79910000D02*
X131294600Y-80343400D01*
%TO.N,CFGOUT_N*%
X62710000Y-82512600D02*
X150225000Y-82512600D01*
X37540000Y-71080000D02*
X51277400Y-71080000D01*
X51277400Y-71080000D02*
X62710000Y-82512600D01*
%TO.N,AS_N*%
X75629600Y-116209600D02*
X77212700Y-116209600D01*
X130870800Y-109281200D02*
X131033800Y-109444200D01*
X77712800Y-116709800D02*
X106175100Y-116709800D01*
X121789400Y-110133000D02*
X128909800Y-110133000D01*
X106175100Y-116709800D02*
X109303300Y-113581600D01*
X121744900Y-110177500D02*
X121789400Y-110133000D01*
X136509900Y-108782700D02*
X153330700Y-108782700D01*
X132172700Y-109281200D02*
X136011400Y-109281200D01*
X132009700Y-109444200D02*
X132172700Y-109281200D01*
X131033800Y-109444200D02*
X132009700Y-109444200D01*
X77212700Y-116209600D02*
X77212700Y-116209700D01*
X75420000Y-116000000D02*
X75629600Y-116209600D01*
X109303300Y-113581600D02*
X109303300Y-110996100D01*
X109303300Y-110996100D02*
X110121900Y-110177500D01*
X110121900Y-110177500D02*
X121744900Y-110177500D01*
X136011400Y-109281200D02*
X136509900Y-108782700D01*
X154408300Y-107705100D02*
X154408300Y-107471500D01*
X128909800Y-110133000D02*
X129761600Y-109281200D01*
X153330700Y-108782700D02*
X154408300Y-107705100D01*
X77212700Y-116209700D02*
X77712800Y-116709800D01*
X129761600Y-109281200D02*
X130870800Y-109281200D01*
%TO.N,UDS_N*%
X103611300Y-106163900D02*
X103326900Y-106448300D01*
X133453800Y-105812300D02*
X118952800Y-105812300D01*
X108003400Y-106162400D02*
X108001900Y-106163900D01*
X78325500Y-106741700D02*
X77960000Y-107107200D01*
X118952800Y-105812300D02*
X118602700Y-106162400D01*
X103326700Y-106448300D02*
X103033300Y-106741700D01*
X134358300Y-106716800D02*
X133453800Y-105812300D01*
X103326900Y-106448300D02*
X103326700Y-106448300D01*
X118602700Y-106162400D02*
X108003400Y-106162400D01*
X108001900Y-106163900D02*
X103611300Y-106163900D01*
X103033300Y-106741700D02*
X78325500Y-106741700D01*
X156086000Y-106716800D02*
X134358300Y-106716800D01*
%TO.N,LDS_N*%
X156570000Y-54510000D02*
X80500000Y-54510000D01*
X158000000Y-53080000D02*
X156570000Y-54510000D01*
%TO.N,READ*%
X158000000Y-55620000D02*
X146477700Y-67142300D01*
X146477700Y-67142300D02*
X83040000Y-67142300D01*
%TO.N,DTACK_N*%
X158000000Y-58160000D02*
X146410100Y-69749900D01*
X146410100Y-69749900D02*
X85580000Y-69749900D01*
%TO.N,RESET_N*%
X131241500Y-108942500D02*
X131802000Y-108942500D01*
X108474400Y-110168000D02*
X109468300Y-109174100D01*
X131078500Y-108779500D02*
X131241500Y-108942500D01*
X121190900Y-108779500D02*
X131078500Y-108779500D01*
X131965000Y-108779500D02*
X134218600Y-108779500D01*
X134218600Y-108779500D02*
X134720300Y-108277800D01*
X109468300Y-109174100D02*
X120796300Y-109174100D01*
X120796300Y-109174100D02*
X121190900Y-108779500D01*
X99820000Y-113500000D02*
X103152000Y-110168000D01*
X134720300Y-108277800D02*
X152869700Y-108277800D01*
X152869700Y-108277800D02*
X153052400Y-108095100D01*
X103152000Y-110168000D02*
X108474400Y-110168000D01*
X131802000Y-108942500D02*
X131965000Y-108779500D01*
%TO.N,HLT_N*%
X149018300Y-77301700D02*
X131502300Y-77301700D01*
X110614700Y-77315400D02*
X98738600Y-77315400D01*
X131179100Y-76978500D02*
X110951600Y-76978500D01*
X131502300Y-77301700D02*
X131179100Y-76978500D01*
X110951600Y-76978500D02*
X110614700Y-77315400D01*
X158000000Y-68320000D02*
X149018300Y-77301700D01*
%TO.N,BERR_N*%
X131502300Y-79841700D02*
X129387100Y-77726500D01*
X158000000Y-70860000D02*
X149018300Y-79841700D01*
X149018300Y-79841700D02*
X131502300Y-79841700D01*
X129387100Y-77726500D02*
X113559000Y-77726500D01*
%TO.N,FC0*%
X128935700Y-113500000D02*
X131421700Y-111014000D01*
X127760000Y-113500000D02*
X128935700Y-113500000D01*
X131421700Y-111014000D02*
X153731600Y-111014000D01*
%TO.N,FC1*%
X130524800Y-110354000D02*
X130683100Y-110512300D01*
X130366600Y-110354000D02*
X130524800Y-110354000D01*
X129584200Y-111136400D02*
X130366600Y-110354000D01*
X136925300Y-109786100D02*
X156798100Y-109786100D01*
X130683100Y-110512300D02*
X136199100Y-110512300D01*
X125220000Y-113500000D02*
X127583600Y-111136400D01*
X127583600Y-111136400D02*
X129584200Y-111136400D01*
X136199100Y-110512300D02*
X136925300Y-109786100D01*
%TO.N,FC2*%
X129117500Y-110634700D02*
X129224600Y-110527600D01*
X155070300Y-107782400D02*
X159270000Y-107782400D01*
X153568300Y-109284400D02*
X155070300Y-107782400D01*
X134471000Y-109945900D02*
X134634000Y-109782900D01*
X122680000Y-113500000D02*
X125545300Y-110634700D01*
X136219100Y-109782900D02*
X136717600Y-109284400D01*
X136717600Y-109284400D02*
X153568300Y-109284400D01*
X129483600Y-110527600D02*
X130228300Y-109782900D01*
X134634000Y-109782900D02*
X136219100Y-109782900D01*
X130826100Y-109945900D02*
X134471000Y-109945900D01*
X125545300Y-110634700D02*
X129117500Y-110634700D01*
X130228300Y-109782900D02*
X130663100Y-109782900D01*
X130663100Y-109782900D02*
X130826100Y-109945900D01*
X129224600Y-110527600D02*
X129483600Y-110527600D01*
%TO.N,DOE*%
X118187300Y-105159000D02*
X107588000Y-105159000D01*
X159270000Y-82290000D02*
X159270000Y-94043400D01*
X159270000Y-94043400D02*
X148504500Y-104808900D01*
X107586500Y-105160500D02*
X103195900Y-105160500D01*
X70466700Y-110874200D02*
X51645800Y-110874200D01*
X107588000Y-105159000D02*
X107586500Y-105160500D01*
X102619100Y-105737100D02*
X75603700Y-105737100D01*
X75603700Y-105737100D02*
X75603700Y-105737200D01*
X102911500Y-105444900D02*
X102911300Y-105444900D01*
X118537400Y-104808900D02*
X118187300Y-105159000D01*
X148504500Y-104808900D02*
X118537400Y-104808900D01*
X75603700Y-105737200D02*
X70466700Y-110874200D01*
X51645800Y-110874200D02*
X49020000Y-113500000D01*
X103195900Y-105160500D02*
X102911500Y-105444900D01*
X102911300Y-105444900D02*
X102619100Y-105737100D01*
X160540000Y-81020000D02*
X159270000Y-82290000D01*
%TO.N,BUSRST_N*%
X158000000Y-83560000D02*
X156569900Y-84990100D01*
X156569900Y-84990100D02*
X51404800Y-84990100D01*
%TO.N,+12V*%
X48783600Y-118716600D02*
X153983400Y-118716600D01*
X153983400Y-118716600D02*
X156700000Y-116000000D01*
X48337500Y-118270500D02*
X48783600Y-118716600D01*
%TO.N,-5V*%
X38870300Y-85668600D02*
X71866000Y-85668600D01*
X71866000Y-85668600D02*
X78808900Y-92611500D01*
X35000000Y-83000000D02*
X36201700Y-83000000D01*
X78808900Y-92611500D02*
X157764700Y-92611500D01*
X36201700Y-83000000D02*
X38870300Y-85668600D01*
%TO.N,RESERVED_40*%
X72000000Y-37000000D02*
X73201700Y-37000000D01*
X118600000Y-41810000D02*
X78011700Y-41810000D01*
X78011700Y-41810000D02*
X73201700Y-37000000D01*
%TO.N,RESERVED_42*%
X113749700Y-115272600D02*
X110164000Y-115272600D01*
X116060000Y-116000000D02*
X115832800Y-115772800D01*
X114249800Y-115772700D02*
X113749700Y-115272600D01*
X108225100Y-117211500D02*
X72824100Y-117211500D01*
X115832800Y-115772800D02*
X114249800Y-115772800D01*
X110164000Y-115272600D02*
X108225100Y-117211500D01*
X114249800Y-115772800D02*
X114249800Y-115772700D01*
X72824100Y-117211500D02*
X71015200Y-115402600D01*
%TO.N,RESERVED_44*%
X79339600Y-96918700D02*
X80181700Y-97760800D01*
X80181700Y-97760800D02*
X112882300Y-97760800D01*
X72000000Y-42080000D02*
X76185400Y-46265400D01*
X76185400Y-46265400D02*
X79339600Y-46265400D01*
%TO.N,RESERVED_96*%
X72000000Y-44620000D02*
X46798300Y-44620000D01*
%TO.N,LEGACY_VPA_N*%
X83957700Y-59539200D02*
X105174400Y-59539200D01*
X72000000Y-47160000D02*
X72000000Y-47581500D01*
X72000000Y-47581500D02*
X83957700Y-59539200D01*
%TO.N,LEGACY_VMA_N*%
X86281700Y-63981700D02*
X102360000Y-63981700D01*
X72000000Y-49700000D02*
X86281700Y-63981700D01*
%TO.N,NC_97*%
X72000000Y-52240000D02*
X68887400Y-55352600D01*
X68887400Y-55352600D02*
X43940000Y-55352600D01*
%TO.N,NC_98*%
X70708100Y-56071900D02*
X44940000Y-56071900D01*
X72000000Y-54780000D02*
X70708100Y-56071900D01*
%TO.N,SENSEZ3_91*%
X72000000Y-57320000D02*
X56905900Y-57320000D01*
%TO.N,+5V*%
X38779200Y-118956300D02*
X39041200Y-119218300D01*
X158561700Y-119218300D02*
X161780000Y-116000000D01*
X39041200Y-119218300D02*
X158561700Y-119218300D01*
%TO.N,-12V*%
X61025200Y-115186500D02*
X65472600Y-115186500D01*
X65472600Y-115186500D02*
X67999300Y-117713200D01*
X67999300Y-117713200D02*
X142286800Y-117713200D01*
X60822200Y-114983500D02*
X61025200Y-115186500D01*
X142286800Y-117713200D02*
X144000000Y-116000000D01*
%TO.N,INT2_N*%
X143000000Y-105988800D02*
X142321800Y-105310600D01*
X103403600Y-105662200D02*
X103119200Y-105946600D01*
X118745100Y-105310600D02*
X118395000Y-105660700D01*
X107795700Y-105660700D02*
X107794200Y-105662200D01*
X76399300Y-106240000D02*
X76213300Y-106426000D01*
X102825600Y-106240000D02*
X76399300Y-106240000D01*
X107794200Y-105662200D02*
X103403600Y-105662200D01*
X103119200Y-105946600D02*
X103119000Y-105946600D01*
X103119000Y-105946600D02*
X102825600Y-106240000D01*
X118395000Y-105660700D02*
X107795700Y-105660700D01*
X142321800Y-105310600D02*
X118745100Y-105310600D01*
%TO.N,INT6_N*%
X141460000Y-87596200D02*
X77439800Y-87596200D01*
%TO.N,OWN_N*%
X108497800Y-95218300D02*
X107502300Y-95218300D01*
X110197400Y-96917900D02*
X108497800Y-95218300D01*
X107502300Y-95218300D02*
X105598300Y-97122300D01*
X105598300Y-97122300D02*
X82324000Y-97122300D01*
X110197400Y-96918000D02*
X110197400Y-96917900D01*
X155407700Y-96918000D02*
X110197400Y-96918000D01*
X82324000Y-97122300D02*
X73201700Y-88000000D01*
X72000000Y-88000000D02*
X73201700Y-88000000D01*
%TO.N,A5*%
X108000000Y-48160000D02*
X108649900Y-48160000D01*
X108649900Y-48160000D02*
X109919900Y-49430000D01*
X109919900Y-49430000D02*
X137353400Y-49430000D01*
%TO.N,A6*%
X108000000Y-50700000D02*
X109270100Y-51970100D01*
X109270100Y-51970100D02*
X134719900Y-51970100D01*
%TO.N,A4*%
X108316600Y-45936600D02*
X130179300Y-45936600D01*
X108000000Y-45620000D02*
X108316600Y-45936600D01*
%TO.N,A3*%
X108000000Y-43080000D02*
X127699700Y-43080000D01*
%TO.N,A2*%
X108000000Y-40540000D02*
X128460700Y-40540000D01*
%TO.N,A7*%
X108000000Y-53240000D02*
X129476100Y-53240000D01*
%TO.N,A1*%
X108000000Y-38000000D02*
X127003700Y-38000000D01*
%TO.N,A8*%
X111759200Y-59539200D02*
X108000000Y-55780000D01*
X124481800Y-59539200D02*
X111759200Y-59539200D01*
%TO.N,A9*%
X112390400Y-62710400D02*
X123552300Y-62710400D01*
X108000000Y-58320000D02*
X112390400Y-62710400D01*
%TO.N,A10*%
X124940300Y-114720300D02*
X114847700Y-114720300D01*
X114847700Y-114720300D02*
X110981700Y-110854300D01*
X108000000Y-60860000D02*
X110480000Y-63340000D01*
X110981700Y-110854300D02*
X110480000Y-110854300D01*
X126220000Y-116000000D02*
X124940300Y-114720300D01*
%TO.N,A11*%
X114152900Y-114770900D02*
X112538200Y-114770900D01*
X112538200Y-114770900D02*
X110339400Y-112572100D01*
X114653100Y-115271100D02*
X114152900Y-114770900D01*
X122951100Y-115271100D02*
X114653100Y-115271100D01*
X123680000Y-116000000D02*
X122951100Y-115271100D01*
%TO.N,A19*%
X108000000Y-83720000D02*
X107416100Y-84303900D01*
X107416100Y-84303900D02*
X100820000Y-84303900D01*
%TO.N,A20*%
X108000000Y-86260000D02*
X103968100Y-86260000D01*
X98280000Y-116000000D02*
X98958100Y-115321900D01*
X98958100Y-115321900D02*
X103968100Y-115321900D01*
%TO.N,A22*%
X108000000Y-91340000D02*
X94740000Y-91340000D01*
%TO.N,A21*%
X108000000Y-88800000D02*
X95740000Y-88800000D01*
%TO.N,A23*%
X105486000Y-96394000D02*
X92200000Y-96394000D01*
X108000000Y-93880000D02*
X105486000Y-96394000D01*
%TO.N,BR_N*%
X82243900Y-100783900D02*
X72000000Y-90540000D01*
X93200000Y-100783900D02*
X82243900Y-100783900D01*
%TO.N,BGACK_N*%
X72000000Y-93080000D02*
X81798500Y-102878500D01*
X81798500Y-102878500D02*
X90660000Y-102878500D01*
%TO.N,D15*%
X130459500Y-91013500D02*
X129575300Y-90129300D01*
X129575300Y-90129300D02*
X87120000Y-90129300D01*
%TO.N,BG_N*%
X88892500Y-103555200D02*
X79935200Y-103555200D01*
X79935200Y-103555200D02*
X72000000Y-95620000D01*
%TO.N,D14*%
X88414300Y-109665700D02*
X84580000Y-113500000D01*
X131521700Y-108265800D02*
X120895500Y-108265800D01*
X120895500Y-108265800D02*
X120490400Y-108670900D01*
X109167000Y-108670900D02*
X108172200Y-109665700D01*
X108172200Y-109665700D02*
X88414300Y-109665700D01*
X120490400Y-108670900D02*
X109167000Y-108670900D01*
%TO.N,D13*%
X119681000Y-108169200D02*
X108834200Y-108169200D01*
X86376000Y-109164000D02*
X82040000Y-113500000D01*
X108834200Y-108169200D02*
X107839400Y-109164000D01*
X120272500Y-74887100D02*
X128494600Y-74887100D01*
X119856100Y-107994100D02*
X119681000Y-108169200D01*
X107839400Y-109164000D02*
X86376000Y-109164000D01*
X132000000Y-71381700D02*
X132000000Y-71020000D01*
X128494600Y-74887100D02*
X132000000Y-71381700D01*
%TO.N,D12*%
X79500000Y-113500000D02*
X84337700Y-108662300D01*
X84337700Y-108662300D02*
X103241100Y-108662300D01*
X131246400Y-107584200D02*
X135170800Y-107584200D01*
X119225800Y-107667500D02*
X119575900Y-107317400D01*
X108625000Y-107669000D02*
X108626500Y-107667500D01*
X104234400Y-107669000D02*
X108625000Y-107669000D01*
X120571000Y-107752100D02*
X131078500Y-107752100D01*
X120136400Y-107317400D02*
X120571000Y-107752000D01*
X103241100Y-108662300D02*
X104234400Y-107669000D01*
X131078500Y-107752100D02*
X131246400Y-107584200D01*
X108626500Y-107667500D02*
X119225800Y-107667500D01*
X120571000Y-107752000D02*
X120571000Y-107752100D01*
X119575900Y-107317400D02*
X120136400Y-107317400D01*
%TO.N,D11*%
X103742100Y-107451700D02*
X103033200Y-108160600D01*
X104026700Y-107167300D02*
X103742300Y-107451700D01*
X103033200Y-108160600D02*
X82299400Y-108160600D01*
X130165200Y-107006500D02*
X129974400Y-106815700D01*
X129974400Y-106815700D02*
X119368200Y-106815700D01*
X119368200Y-106815700D02*
X119018100Y-107165800D01*
X103742300Y-107451700D02*
X103742100Y-107451700D01*
X108418800Y-107165800D02*
X108417300Y-107167300D01*
X119018100Y-107165800D02*
X108418800Y-107165800D01*
X108417300Y-107167300D02*
X104026700Y-107167300D01*
X82299400Y-108160600D02*
X76960000Y-113500000D01*
%TO.N,D0*%
X132000000Y-38000000D02*
X130798300Y-38000000D01*
X130798300Y-38000000D02*
X128772900Y-35974600D01*
X128772900Y-35974600D02*
X73393200Y-35974600D01*
%TO.N,D10*%
X107378800Y-104658800D02*
X102988200Y-104658800D01*
X133039400Y-101075900D02*
X110961700Y-101075900D01*
X102703600Y-104943200D02*
X102411400Y-105235400D01*
X102988200Y-104658800D02*
X102703800Y-104943200D01*
X110961700Y-101075900D02*
X107378800Y-104658800D01*
X75148500Y-105235400D02*
X73951900Y-106432000D01*
X102411400Y-105235400D02*
X75148500Y-105235400D01*
X102703800Y-104943200D02*
X102703600Y-104943200D01*
%TO.N,D1*%
X132000000Y-40540000D02*
X128111300Y-36651300D01*
X128111300Y-36651300D02*
X76213200Y-36651300D01*
%TO.N,D9*%
X107624400Y-98603600D02*
X129137400Y-98603600D01*
X101996000Y-104232000D02*
X107624400Y-98603600D01*
X70338400Y-104232000D02*
X101996000Y-104232000D01*
%TO.N,D2*%
X121004000Y-109675800D02*
X121255800Y-109424000D01*
X104193900Y-110669700D02*
X108711900Y-110669700D01*
X100670200Y-114193400D02*
X104193900Y-110669700D01*
X108711900Y-110669700D02*
X109705800Y-109675800D01*
X67493400Y-114193400D02*
X100670200Y-114193400D01*
X109705800Y-109675800D02*
X121004000Y-109675800D01*
X66800000Y-113500000D02*
X67493400Y-114193400D01*
X121255800Y-109424000D02*
X128597200Y-109424000D01*
X128597200Y-109424000D02*
X128629500Y-109456300D01*
%TO.N,D8*%
X67800000Y-76638600D02*
X82699800Y-76638600D01*
X87048400Y-72290000D02*
X128799100Y-72290000D01*
X82699800Y-76638600D02*
X87048400Y-72290000D01*
%TO.N,D3*%
X103819000Y-106665600D02*
X103534600Y-106950000D01*
X78953900Y-107418400D02*
X74996400Y-111375900D01*
X103534400Y-106950000D02*
X103066000Y-107418400D01*
X66384100Y-111375900D02*
X64260000Y-113500000D01*
X103534600Y-106950000D02*
X103534400Y-106950000D01*
X131404300Y-106314000D02*
X119160500Y-106314000D01*
X74996400Y-111375900D02*
X66384100Y-111375900D01*
X108209600Y-106665600D02*
X103819000Y-106665600D01*
X103066000Y-107418400D02*
X78953900Y-107418400D01*
X131818300Y-106728000D02*
X131404300Y-106314000D01*
X119160500Y-106314000D02*
X118810400Y-106664100D01*
X108211100Y-106664100D02*
X108209600Y-106665600D01*
X118810400Y-106664100D02*
X108211100Y-106664100D01*
%TO.N,D7*%
X123109900Y-64670100D02*
X65260000Y-64670100D01*
X132000000Y-55780000D02*
X123109900Y-64670100D01*
%TO.N,D4*%
X64550100Y-75028300D02*
X66864200Y-77342400D01*
X66864200Y-77342400D02*
X85282600Y-77342400D01*
X115045600Y-73860300D02*
X128560100Y-73860300D01*
X114075900Y-74830000D02*
X115045600Y-73860300D01*
X85282600Y-77342400D02*
X87795000Y-74830000D01*
X87795000Y-74830000D02*
X114075900Y-74830000D01*
%TO.N,D6*%
X102495900Y-104441500D02*
X102203700Y-104733700D01*
X107030700Y-99906900D02*
X102496100Y-104441500D01*
X73689900Y-105737100D02*
X63567800Y-105737100D01*
X102496100Y-104441500D02*
X102495900Y-104441500D01*
X131136200Y-99906900D02*
X107030700Y-99906900D01*
X102203700Y-104733700D02*
X74693300Y-104733700D01*
X74693300Y-104733700D02*
X73689900Y-105737100D01*
%TO.N,D5*%
X132000000Y-50700000D02*
X110186400Y-50700000D01*
X110186400Y-50700000D02*
X108851800Y-49365400D01*
X108851800Y-49365400D02*
X74801600Y-49365400D01*
%TO.N,GBG_N*%
X61820000Y-98160000D02*
X72000000Y-98160000D01*
X46480000Y-113500000D02*
X61820000Y-98160000D01*
%TD*%
M02*
