%TF.GenerationSoftware,KiCad,Pcbnew,10.0.5-1-g226df246f3*%
%TF.CreationDate,2026-09-10T20:59:29+01:00*%
%TF.ProjectId,zorro-breakout,7a6f7272-6f2d-4627-9265-616b6f75742e,rev?*%
%TF.SameCoordinates,Original*%
%TF.FileFunction,Copper,L1,Top*%
%TF.FilePolarity,Positive*%
%FSLAX46Y46*%
G04 Gerber Fmt 4.6, Leading zero omitted, Abs format (unit mm)*
G04 Created by KiCad (PCBNEW 10.0.5-1-g226df246f3) date 2026-09-10 20:59:29*
%MOMM*%
%LPD*%
G01*
G04 APERTURE LIST*
%TA.AperFunction,ComponentPad*%
%ADD10R,1.700000X1.700000*%
%TD*%
%TA.AperFunction,ComponentPad*%
%ADD11C,1.700000*%
%TD*%
%TA.AperFunction,ConnectorPad*%
%ADD12R,1.524000X5.000000*%
%TD*%
%TA.AperFunction,ViaPad*%
%ADD13C,0.650000*%
%TD*%
%TA.AperFunction,Conductor*%
%ADD14C,0.300000*%
%TD*%
%TA.AperFunction,Conductor*%
%ADD15C,0.500000*%
%TD*%
G04 APERTURE END LIST*
D10*
%TO.P,J8,1*%
%TO.N,C3_N*%
X35000000Y-39000000D03*
D11*
%TO.P,J8,2*%
X37540000Y-39000000D03*
%TO.P,J8,3*%
%TO.N,CDAC*%
X35000000Y-41540000D03*
%TO.P,J8,4*%
X37540000Y-41540000D03*
%TO.P,J8,5*%
%TO.N,C1_N*%
X35000000Y-44080000D03*
%TO.P,J8,6*%
X37540000Y-44080000D03*
%TO.P,J8,7*%
%TO.N,E*%
X35000000Y-46620000D03*
%TO.P,J8,8*%
X37540000Y-46620000D03*
%TO.P,J8,9*%
%TO.N,CLK7M*%
X35000000Y-49160000D03*
%TO.P,J8,10*%
X37540000Y-49160000D03*
%TO.P,J8,11*%
%TO.N,GND*%
X35000000Y-51700000D03*
%TO.P,J8,12*%
X37540000Y-51700000D03*
%TD*%
D10*
%TO.P,J5,1*%
%TO.N,SLAVE_N*%
X35000000Y-66000000D03*
D11*
%TO.P,J5,2*%
X37540000Y-66000000D03*
%TO.P,J5,3*%
%TO.N,CFGIN_N*%
X35000000Y-68540000D03*
%TO.P,J5,4*%
X37540000Y-68540000D03*
%TO.P,J5,5*%
%TO.N,CFGOUT_N*%
X35000000Y-71080000D03*
%TO.P,J5,6*%
X37540000Y-71080000D03*
%TO.P,J5,7*%
%TO.N,GND*%
X35000000Y-73620000D03*
%TO.P,J5,8*%
X37540000Y-73620000D03*
%TD*%
D10*
%TO.P,J4,1*%
%TO.N,AS_N*%
X158000000Y-48000000D03*
D11*
%TO.P,J4,2*%
X160540000Y-48000000D03*
%TO.P,J4,3*%
%TO.N,UDS_N*%
X158000000Y-50540000D03*
%TO.P,J4,4*%
X160540000Y-50540000D03*
%TO.P,J4,5*%
%TO.N,LDS_N*%
X158000000Y-53080000D03*
%TO.P,J4,6*%
X160540000Y-53080000D03*
%TO.P,J4,7*%
%TO.N,READ*%
X158000000Y-55620000D03*
%TO.P,J4,8*%
X160540000Y-55620000D03*
%TO.P,J4,9*%
%TO.N,DTACK_N*%
X158000000Y-58160000D03*
%TO.P,J4,10*%
X160540000Y-58160000D03*
%TO.P,J4,11*%
%TO.N,OVR_N*%
X158000000Y-60700000D03*
%TO.P,J4,12*%
X160540000Y-60700000D03*
%TO.P,J4,13*%
%TO.N,XRDY*%
X158000000Y-63240000D03*
%TO.P,J4,14*%
X160540000Y-63240000D03*
%TO.P,J4,15*%
%TO.N,RESET_N*%
X158000000Y-65780000D03*
%TO.P,J4,16*%
X160540000Y-65780000D03*
%TO.P,J4,17*%
%TO.N,HLT_N*%
X158000000Y-68320000D03*
%TO.P,J4,18*%
X160540000Y-68320000D03*
%TO.P,J4,19*%
%TO.N,BERR_N*%
X158000000Y-70860000D03*
%TO.P,J4,20*%
X160540000Y-70860000D03*
%TO.P,J4,21*%
%TO.N,FC0*%
X158000000Y-73400000D03*
%TO.P,J4,22*%
X160540000Y-73400000D03*
%TO.P,J4,23*%
%TO.N,FC1*%
X158000000Y-75940000D03*
%TO.P,J4,24*%
X160540000Y-75940000D03*
%TO.P,J4,25*%
%TO.N,FC2*%
X158000000Y-78480000D03*
%TO.P,J4,26*%
X160540000Y-78480000D03*
%TO.P,J4,27*%
%TO.N,DOE*%
X158000000Y-81020000D03*
%TO.P,J4,28*%
X160540000Y-81020000D03*
%TO.P,J4,29*%
%TO.N,BUSRST_N*%
X158000000Y-83560000D03*
%TO.P,J4,30*%
X160540000Y-83560000D03*
%TO.P,J4,31*%
%TO.N,GND*%
X158000000Y-86100000D03*
%TO.P,J4,32*%
X160540000Y-86100000D03*
%TD*%
D10*
%TO.P,TP2,1*%
%TO.N,+12V*%
X48000000Y-83000000D03*
%TD*%
%TO.P,TP1,1*%
%TO.N,-5V*%
X35000000Y-83000000D03*
%TD*%
%TO.P,J10,1*%
%TO.N,RESERVED_40*%
X72000000Y-37000000D03*
D11*
%TO.P,J10,2*%
%TO.N,RESERVED_42*%
X72000000Y-39540000D03*
%TO.P,J10,3*%
%TO.N,RESERVED_44*%
X72000000Y-42080000D03*
%TO.P,J10,4*%
%TO.N,RESERVED_96*%
X72000000Y-44620000D03*
%TO.P,J10,5*%
%TO.N,LEGACY_VPA_N*%
X72000000Y-47160000D03*
%TO.P,J10,6*%
%TO.N,LEGACY_VMA_N*%
X72000000Y-49700000D03*
%TO.P,J10,7*%
%TO.N,NC_97*%
X72000000Y-52240000D03*
%TO.P,J10,8*%
%TO.N,NC_98*%
X72000000Y-54780000D03*
%TO.P,J10,9*%
%TO.N,SENSEZ3_91*%
X72000000Y-57320000D03*
%TO.P,J10,10*%
%TO.N,GND*%
X72000000Y-59860000D03*
%TD*%
D10*
%TO.P,J9,1*%
%TO.N,+5V*%
X35000000Y-92000000D03*
D11*
%TO.P,J9,2*%
X37540000Y-92000000D03*
%TO.P,J9,3*%
X35000000Y-94540000D03*
%TO.P,J9,4*%
X37540000Y-94540000D03*
%TO.P,J9,5*%
%TO.N,GND*%
X35000000Y-97080000D03*
%TO.P,J9,6*%
X37540000Y-97080000D03*
%TO.P,J9,7*%
X35000000Y-99620000D03*
%TO.P,J9,8*%
X37540000Y-99620000D03*
%TO.P,J9,9*%
X35000000Y-102160000D03*
%TO.P,J9,10*%
X37540000Y-102160000D03*
%TO.P,J9,11*%
X35000000Y-104700000D03*
%TO.P,J9,12*%
X37540000Y-104700000D03*
%TD*%
D10*
%TO.P,TP3,1*%
%TO.N,-12V*%
X61000000Y-83000000D03*
%TD*%
%TO.P,J6,1*%
%TO.N,INT2_N*%
X72000000Y-69000000D03*
D11*
%TO.P,J6,2*%
X74540000Y-69000000D03*
%TO.P,J6,3*%
%TO.N,INT6_N*%
X72000000Y-71540000D03*
%TO.P,J6,4*%
X74540000Y-71540000D03*
%TO.P,J6,5*%
%TO.N,GND*%
X72000000Y-74080000D03*
%TO.P,J6,6*%
X74540000Y-74080000D03*
%TD*%
D12*
%TO.P,J1,2*%
%TO.N,GND*%
X166860000Y-124120000D03*
%TO.P,J1,4*%
X164320000Y-124120000D03*
%TO.P,J1,6*%
%TO.N,+5V*%
X161780000Y-124120000D03*
%TO.P,J1,8*%
%TO.N,-5V*%
X159240000Y-124120000D03*
%TO.P,J1,10*%
%TO.N,+12V*%
X156700000Y-124120000D03*
%TO.P,J1,12*%
%TO.N,CFGIN_N*%
X154160000Y-124120000D03*
%TO.P,J1,14*%
%TO.N,C3_N*%
X151620000Y-124120000D03*
%TO.P,J1,16*%
%TO.N,C1_N*%
X149080000Y-124120000D03*
%TO.P,J1,18*%
%TO.N,XRDY*%
X146540000Y-124120000D03*
%TO.P,J1,20*%
%TO.N,-12V*%
X144000000Y-124120000D03*
%TO.P,J1,22*%
%TO.N,INT6_N*%
X141460000Y-124120000D03*
%TO.P,J1,24*%
%TO.N,A4*%
X138920000Y-124120000D03*
%TO.P,J1,26*%
%TO.N,A3*%
X136380000Y-124120000D03*
%TO.P,J1,28*%
%TO.N,A7*%
X133840000Y-124120000D03*
%TO.P,J1,30*%
%TO.N,A8*%
X131300000Y-124120000D03*
%TO.P,J1,32*%
%TO.N,A9*%
X128760000Y-124120000D03*
%TO.P,J1,34*%
%TO.N,A10*%
X126220000Y-124120000D03*
%TO.P,J1,36*%
%TO.N,A11*%
X123680000Y-124120000D03*
%TO.P,J1,38*%
%TO.N,A12*%
X121140000Y-124120000D03*
%TO.P,J1,40*%
%TO.N,RESERVED_40*%
X118600000Y-124120000D03*
%TO.P,J1,42*%
%TO.N,RESERVED_42*%
X116060000Y-124120000D03*
%TO.P,J1,44*%
%TO.N,RESERVED_44*%
X113520000Y-124120000D03*
%TO.P,J1,46*%
%TO.N,BERR_N*%
X110980000Y-124120000D03*
%TO.P,J1,48*%
%TO.N,LEGACY_VPA_N*%
X108440000Y-124120000D03*
%TO.P,J1,50*%
%TO.N,E*%
X105900000Y-124120000D03*
%TO.P,J1,52*%
%TO.N,A18*%
X103360000Y-124120000D03*
%TO.P,J1,54*%
%TO.N,A19*%
X100820000Y-124120000D03*
%TO.P,J1,56*%
%TO.N,A20*%
X98280000Y-124120000D03*
%TO.P,J1,58*%
%TO.N,A21*%
X95740000Y-124120000D03*
%TO.P,J1,60*%
%TO.N,BR_N*%
X93200000Y-124120000D03*
%TO.P,J1,62*%
%TO.N,BGACK_N*%
X90660000Y-124120000D03*
%TO.P,J1,64*%
%TO.N,BG_N*%
X88120000Y-124120000D03*
%TO.P,J1,66*%
%TO.N,DTACK_N*%
X85580000Y-124120000D03*
%TO.P,J1,68*%
%TO.N,READ*%
X83040000Y-124120000D03*
%TO.P,J1,70*%
%TO.N,LDS_N*%
X80500000Y-124120000D03*
%TO.P,J1,72*%
%TO.N,UDS_N*%
X77960000Y-124120000D03*
%TO.P,J1,74*%
%TO.N,AS_N*%
X75420000Y-124120000D03*
%TO.P,J1,76*%
%TO.N,D10*%
X72880000Y-124120000D03*
%TO.P,J1,78*%
%TO.N,D9*%
X70340000Y-124120000D03*
%TO.P,J1,80*%
%TO.N,D8*%
X67800000Y-124120000D03*
%TO.P,J1,82*%
%TO.N,D7*%
X65260000Y-124120000D03*
%TO.P,J1,84*%
%TO.N,D6*%
X62720000Y-124120000D03*
%TO.P,J1,86*%
%TO.N,D5*%
X60180000Y-124120000D03*
%TO.P,J1,88*%
%TO.N,GND*%
X57640000Y-124120000D03*
%TO.P,J1,90*%
X55100000Y-124120000D03*
%TO.P,J1,92*%
%TO.N,CLK7M*%
X52560000Y-124120000D03*
%TO.P,J1,94*%
%TO.N,BUSRST_N*%
X50020000Y-124120000D03*
%TO.P,J1,96*%
%TO.N,RESERVED_96*%
X47480000Y-124120000D03*
%TO.P,J1,98*%
%TO.N,NC_98*%
X44940000Y-124120000D03*
%TO.P,J1,100*%
%TO.N,GND*%
X42400000Y-124120000D03*
%TD*%
D10*
%TO.P,J3,1*%
%TO.N,D0*%
X132000000Y-38000000D03*
D11*
%TO.P,J3,2*%
%TO.N,D1*%
X132000000Y-40540000D03*
%TO.P,J3,3*%
%TO.N,D2*%
X132000000Y-43080000D03*
%TO.P,J3,4*%
%TO.N,D3*%
X132000000Y-45620000D03*
%TO.P,J3,5*%
%TO.N,D4*%
X132000000Y-48160000D03*
%TO.P,J3,6*%
%TO.N,D5*%
X132000000Y-50700000D03*
%TO.P,J3,7*%
%TO.N,D6*%
X132000000Y-53240000D03*
%TO.P,J3,8*%
%TO.N,D7*%
X132000000Y-55780000D03*
%TO.P,J3,9*%
%TO.N,D8*%
X132000000Y-58320000D03*
%TO.P,J3,10*%
%TO.N,D9*%
X132000000Y-60860000D03*
%TO.P,J3,11*%
%TO.N,D10*%
X132000000Y-63400000D03*
%TO.P,J3,12*%
%TO.N,D11*%
X132000000Y-65940000D03*
%TO.P,J3,13*%
%TO.N,D12*%
X132000000Y-68480000D03*
%TO.P,J3,14*%
%TO.N,D13*%
X132000000Y-71020000D03*
%TO.P,J3,15*%
%TO.N,D14*%
X132000000Y-73560000D03*
%TO.P,J3,16*%
%TO.N,D15*%
X132000000Y-76100000D03*
%TO.P,J3,17*%
%TO.N,GND*%
X132000000Y-78640000D03*
%TD*%
D10*
%TO.P,J2,1*%
%TO.N,A1*%
X108000000Y-38000000D03*
D11*
%TO.P,J2,2*%
%TO.N,A2*%
X108000000Y-40540000D03*
%TO.P,J2,3*%
%TO.N,A3*%
X108000000Y-43080000D03*
%TO.P,J2,4*%
%TO.N,A4*%
X108000000Y-45620000D03*
%TO.P,J2,5*%
%TO.N,A5*%
X108000000Y-48160000D03*
%TO.P,J2,6*%
%TO.N,A6*%
X108000000Y-50700000D03*
%TO.P,J2,7*%
%TO.N,A7*%
X108000000Y-53240000D03*
%TO.P,J2,8*%
%TO.N,A8*%
X108000000Y-55780000D03*
%TO.P,J2,9*%
%TO.N,A9*%
X108000000Y-58320000D03*
%TO.P,J2,10*%
%TO.N,A10*%
X108000000Y-60860000D03*
%TO.P,J2,11*%
%TO.N,A11*%
X108000000Y-63400000D03*
%TO.P,J2,12*%
%TO.N,A12*%
X108000000Y-65940000D03*
%TO.P,J2,13*%
%TO.N,A13*%
X108000000Y-68480000D03*
%TO.P,J2,14*%
%TO.N,A14*%
X108000000Y-71020000D03*
%TO.P,J2,15*%
%TO.N,A15*%
X108000000Y-73560000D03*
%TO.P,J2,16*%
%TO.N,A16*%
X108000000Y-76100000D03*
%TO.P,J2,17*%
%TO.N,A17*%
X108000000Y-78640000D03*
%TO.P,J2,18*%
%TO.N,A18*%
X108000000Y-81180000D03*
%TO.P,J2,19*%
%TO.N,A19*%
X108000000Y-83720000D03*
%TO.P,J2,20*%
%TO.N,A20*%
X108000000Y-86259999D03*
%TO.P,J2,21*%
%TO.N,A21*%
X108000000Y-88800000D03*
%TO.P,J2,22*%
%TO.N,A22*%
X108000000Y-91340000D03*
%TO.P,J2,23*%
%TO.N,A23*%
X108000000Y-93880000D03*
%TO.P,J2,24*%
%TO.N,GND*%
X108000000Y-96420000D03*
%TD*%
D10*
%TO.P,J7,1*%
%TO.N,OWN_N*%
X72000000Y-88000000D03*
D11*
%TO.P,J7,2*%
%TO.N,BR_N*%
X72000000Y-90540000D03*
%TO.P,J7,3*%
%TO.N,BGACK_N*%
X72000000Y-93080000D03*
%TO.P,J7,4*%
%TO.N,BG_N*%
X72000000Y-95620000D03*
%TO.P,J7,5*%
%TO.N,GBG_N*%
X72000000Y-98160000D03*
%TO.P,J7,6*%
%TO.N,GND*%
X72000000Y-100700000D03*
%TD*%
D13*
%TO.N,C3_N*%
X151620000Y-35277600D03*
%TO.N,CDAC*%
X148080000Y-113500000D03*
X148080000Y-44349900D03*
%TO.N,C1_N*%
X149080000Y-46952600D03*
%TO.N,E*%
X105900000Y-116000000D03*
X42643600Y-114274400D03*
%TO.N,CLK7M*%
X52560000Y-116000000D03*
%TO.N,GND*%
X120140000Y-113500000D03*
X104900000Y-113500000D03*
X59180000Y-113500000D03*
X163320000Y-113500000D03*
X165860000Y-113500000D03*
X55100000Y-116000000D03*
X42400000Y-116000000D03*
X135380000Y-113500000D03*
X57640000Y-116000000D03*
X54100000Y-113500000D03*
X150620000Y-113500000D03*
X74420000Y-113500000D03*
X56640000Y-113500000D03*
X164320000Y-116000000D03*
X89660000Y-113500000D03*
X166860000Y-116000000D03*
X41400000Y-113500000D03*
%TO.N,SLAVE_N*%
X40091200Y-116707500D03*
X155700000Y-113500000D03*
%TO.N,CFGIN_N*%
X154160000Y-116000000D03*
X154756700Y-79910000D03*
%TO.N,CFGOUT_N*%
X150225000Y-82512600D03*
%TO.N,AS_N*%
X75420000Y-116000000D03*
X154408300Y-107471500D03*
%TO.N,UDS_N*%
X77960000Y-116000000D03*
X77960000Y-107107200D03*
X156086000Y-106716800D03*
%TO.N,LDS_N*%
X80500000Y-54510000D03*
X80500000Y-116000000D03*
%TO.N,READ*%
X83040000Y-67142300D03*
X83040000Y-116000000D03*
%TO.N,DTACK_N*%
X85580000Y-69749900D03*
X85580000Y-116000000D03*
%TO.N,XRDY*%
X146540000Y-116000000D03*
%TO.N,RESET_N*%
X153052400Y-108095100D03*
X99820000Y-113500000D03*
%TO.N,HLT_N*%
X98738600Y-77315400D03*
%TO.N,BERR_N*%
X113559000Y-77726500D03*
%TO.N,FC0*%
X127760000Y-113500000D03*
X153731600Y-111014000D03*
%TO.N,FC1*%
X125220000Y-113500000D03*
X156798100Y-109786100D03*
%TO.N,FC2*%
X159270000Y-107782400D03*
X122680000Y-113500000D03*
%TO.N,DOE*%
X49020000Y-113500000D03*
%TO.N,BUSRST_N*%
X51404800Y-84990100D03*
%TO.N,+12V*%
X156700000Y-116000000D03*
X48337500Y-118270500D03*
%TO.N,-5V*%
X159240000Y-116000000D03*
X157764700Y-92611500D03*
%TO.N,RESERVED_40*%
X118600000Y-41810000D03*
%TO.N,RESERVED_42*%
X71015200Y-115402600D03*
X116060000Y-116000000D03*
%TO.N,RESERVED_44*%
X79339600Y-96918700D03*
X79339600Y-46265400D03*
X113520000Y-116000000D03*
X112882300Y-97760800D03*
%TO.N,RESERVED_96*%
X46798300Y-44620000D03*
%TO.N,LEGACY_VPA_N*%
X105174400Y-59539200D03*
X108440000Y-116000000D03*
%TO.N,LEGACY_VMA_N*%
X102360000Y-113500000D03*
X102360000Y-63981700D03*
%TO.N,NC_97*%
X43940000Y-113500000D03*
X43940000Y-55352600D03*
%TO.N,NC_98*%
X44940000Y-56071900D03*
%TO.N,SENSEZ3_91*%
X51560000Y-113500000D03*
X56905900Y-57320000D03*
%TO.N,+5V*%
X38779200Y-118956300D03*
X161780000Y-116000000D03*
%TO.N,-12V*%
X60822200Y-114983500D03*
X144000000Y-116000000D03*
%TO.N,INT2_N*%
X76213300Y-106426000D03*
X143000000Y-105988800D03*
X143000000Y-113500000D03*
%TO.N,INT6_N*%
X77439800Y-87596200D03*
X141460000Y-87596200D03*
X141460000Y-116000000D03*
%TO.N,OWN_N*%
X155407700Y-96918000D03*
X158240000Y-113500000D03*
%TO.N,A5*%
X140460000Y-113500000D03*
X137353400Y-49430000D03*
%TO.N,A6*%
X134719900Y-51970100D03*
X137920000Y-113500000D03*
%TO.N,A4*%
X130179300Y-45936600D03*
X138920000Y-116000000D03*
%TO.N,A3*%
X127699700Y-43080000D03*
%TO.N,A2*%
X128460700Y-40540000D03*
%TO.N,A7*%
X129476100Y-53240000D03*
X133840000Y-116000000D03*
%TO.N,A1*%
X127003700Y-38000000D03*
%TO.N,A8*%
X124481800Y-59539200D03*
%TO.N,A9*%
X128760000Y-116000000D03*
X123552300Y-62710400D03*
%TO.N,A10*%
X126220000Y-116000000D03*
X110480000Y-63340000D03*
X110480000Y-110854300D03*
%TO.N,A11*%
X110339400Y-112572100D03*
X123680000Y-116000000D03*
%TO.N,A12*%
X121140000Y-116000000D03*
%TO.N,A17*%
X107440000Y-113500000D03*
%TO.N,A19*%
X100820000Y-84303900D03*
X100820000Y-116000000D03*
%TO.N,A20*%
X103968100Y-86260000D03*
X98280000Y-116000000D03*
X103968100Y-115321900D03*
%TO.N,A22*%
X94740000Y-91340000D03*
%TO.N,A21*%
X95740000Y-88800000D03*
X95740000Y-116000000D03*
%TO.N,A23*%
X92200000Y-96394000D03*
%TO.N,BR_N*%
X93200000Y-100783900D03*
X93200000Y-116000000D03*
%TO.N,BGACK_N*%
X90660000Y-116000000D03*
X90660000Y-102878500D03*
%TO.N,D15*%
X87120000Y-90129300D03*
X130459500Y-91013500D03*
%TO.N,BG_N*%
X88892500Y-103555200D03*
X88120000Y-116000000D03*
%TO.N,D14*%
X84580000Y-113500000D03*
X131521700Y-108265800D03*
%TO.N,D13*%
X119856100Y-107994100D03*
X120272500Y-74887100D03*
X82040000Y-113500000D03*
%TO.N,D12*%
X79500000Y-113500000D03*
X135170800Y-107584200D03*
%TO.N,D11*%
X130165200Y-107006500D03*
X76960000Y-113500000D03*
%TO.N,D0*%
X73393200Y-35974600D03*
%TO.N,D10*%
X133039400Y-101075900D03*
X73951900Y-106432000D03*
%TO.N,D1*%
X76213200Y-36651300D03*
X69340000Y-113500000D03*
%TO.N,D9*%
X129137400Y-98603600D03*
X70338400Y-104232000D03*
X70340000Y-116000000D03*
%TO.N,D2*%
X128629500Y-109456300D03*
X66800000Y-113500000D03*
%TO.N,D8*%
X67800000Y-116000000D03*
X67800000Y-76638600D03*
X128799100Y-72290000D03*
%TO.N,D3*%
X131818300Y-106728000D03*
X64260000Y-113500000D03*
%TO.N,D7*%
X65260000Y-116000000D03*
X65260000Y-64670100D03*
%TO.N,D4*%
X128560100Y-73860300D03*
X61720000Y-113500000D03*
X64550100Y-75028300D03*
%TO.N,D6*%
X63567800Y-105737100D03*
X62720000Y-116000000D03*
X131136200Y-99906900D03*
%TO.N,D5*%
X74801600Y-49365400D03*
%TO.N,GBG_N*%
X46480000Y-113500000D03*
%TD*%
%TO.N,C3_N*%
D14*
X151620000Y-122000000D02*
X151620000Y-124120000D01*
X151620000Y-122000000D02*
X151620000Y-116000000D01*
X35000000Y-39000000D02*
X37540000Y-39000000D01*
X151620000Y-116000000D02*
X151620000Y-35277600D01*
%TO.N,CDAC*%
X35000000Y-41540000D02*
X37540000Y-41540000D01*
X148080000Y-113500000D02*
X148080000Y-44349900D01*
%TO.N,C1_N*%
X35000000Y-44080000D02*
X37540000Y-44080000D01*
X149080000Y-122000000D02*
X149080000Y-124120000D01*
X149080000Y-116000000D02*
X149080000Y-46952600D01*
X149080000Y-122000000D02*
X149080000Y-116000000D01*
%TO.N,E*%
X42643600Y-51723600D02*
X42643600Y-114274400D01*
X37540000Y-46620000D02*
X42643600Y-51723600D01*
X105900000Y-122000000D02*
X105900000Y-116000000D01*
X35000000Y-46620000D02*
X37540000Y-46620000D01*
X105900000Y-122000000D02*
X105900000Y-124120000D01*
%TO.N,CLK7M*%
X52560000Y-122000000D02*
X52560000Y-116000000D01*
X35000000Y-49160000D02*
X37540000Y-49160000D01*
X52560000Y-122000000D02*
X52560000Y-124120000D01*
%TO.N,GND*%
D15*
X35000000Y-102160000D02*
X37540000Y-102160000D01*
D14*
X164320000Y-122000000D02*
X164320000Y-124120000D01*
D15*
X35000000Y-104700000D02*
X37540000Y-104700000D01*
X166860000Y-122000000D02*
X166860000Y-116000000D01*
D14*
X55100000Y-122000000D02*
X55100000Y-124120000D01*
X42400000Y-122000000D02*
X42400000Y-124120000D01*
D15*
X42400000Y-122000000D02*
X42400000Y-116000000D01*
X158000000Y-86100000D02*
X160540000Y-86100000D01*
X57640000Y-122000000D02*
X57640000Y-116000000D01*
D14*
X166860000Y-122000000D02*
X166860000Y-124120000D01*
D15*
X35000000Y-73620000D02*
X37540000Y-73620000D01*
X164320000Y-122000000D02*
X164320000Y-116000000D01*
D14*
X57640000Y-122000000D02*
X57640000Y-124120000D01*
D15*
X35000000Y-51700000D02*
X37540000Y-51700000D01*
X72000000Y-74080000D02*
X74540000Y-74080000D01*
X55100000Y-122000000D02*
X55100000Y-116000000D01*
X35000000Y-97080000D02*
X37540000Y-97080000D01*
X35000000Y-99620000D02*
X37540000Y-99620000D01*
%TO.N,SLAVE_N*%
D14*
X40091200Y-68551200D02*
X40091200Y-116707500D01*
X35000000Y-66000000D02*
X37540000Y-66000000D01*
X37540000Y-66000000D02*
X40091200Y-68551200D01*
%TO.N,CFGIN_N*%
X154160000Y-122000000D02*
X154160000Y-116000000D01*
X154160000Y-122000000D02*
X154160000Y-124120000D01*
X35000000Y-68540000D02*
X37540000Y-68540000D01*
%TO.N,CFGOUT_N*%
X35000000Y-71080000D02*
X37540000Y-71080000D01*
%TO.N,AS_N*%
X75420000Y-122000000D02*
X75420000Y-124120000D01*
X75420000Y-122000000D02*
X75420000Y-116000000D01*
X158000000Y-48000000D02*
X158000000Y-49201700D01*
X158000000Y-48000000D02*
X160540000Y-48000000D01*
X154067900Y-52758300D02*
X154067900Y-107131100D01*
X158000000Y-49201700D02*
X157624500Y-49201700D01*
X157624500Y-49201700D02*
X154067900Y-52758300D01*
X154067900Y-107131100D02*
X154408300Y-107471500D01*
%TO.N,UDS_N*%
X156086000Y-52454000D02*
X156086000Y-106716800D01*
X77960000Y-122000000D02*
X77960000Y-124120000D01*
X77960000Y-122000000D02*
X77960000Y-116000000D01*
X158000000Y-50540000D02*
X156086000Y-52454000D01*
X158000000Y-50540000D02*
X160540000Y-50540000D01*
%TO.N,LDS_N*%
X80500000Y-122000000D02*
X80500000Y-116000000D01*
X80500000Y-122000000D02*
X80500000Y-124120000D01*
X158000000Y-53080000D02*
X160540000Y-53080000D01*
%TO.N,READ*%
X83040000Y-122000000D02*
X83040000Y-124120000D01*
X158000000Y-55620000D02*
X160540000Y-55620000D01*
X83040000Y-122000000D02*
X83040000Y-116000000D01*
%TO.N,DTACK_N*%
X85580000Y-122000000D02*
X85580000Y-124120000D01*
X158000000Y-58160000D02*
X160540000Y-58160000D01*
X85580000Y-122000000D02*
X85580000Y-116000000D01*
%TO.N,OVR_N*%
X158000000Y-60700000D02*
X160540000Y-60700000D01*
%TO.N,XRDY*%
X146540000Y-122000000D02*
X146540000Y-124120000D01*
X158000000Y-63240000D02*
X160540000Y-63240000D01*
X146540000Y-122000000D02*
X146540000Y-116000000D01*
%TO.N,RESET_N*%
X158000000Y-65780000D02*
X160540000Y-65780000D01*
%TO.N,HLT_N*%
X158000000Y-68320000D02*
X160540000Y-68320000D01*
%TO.N,BERR_N*%
X110980000Y-122000000D02*
X110980000Y-124120000D01*
X110980000Y-116000000D02*
X113559000Y-113421000D01*
X158000000Y-70860000D02*
X160540000Y-70860000D01*
X113559000Y-113421000D02*
X113559000Y-77726500D01*
X110980000Y-122000000D02*
X110980000Y-116000000D01*
%TO.N,FC0*%
X158000000Y-73400000D02*
X160540000Y-73400000D01*
%TO.N,FC1*%
X156798100Y-77141900D02*
X156798100Y-109786100D01*
X158000000Y-75940000D02*
X156798100Y-77141900D01*
X158000000Y-75940000D02*
X160540000Y-75940000D01*
%TO.N,FC2*%
X158000000Y-78480000D02*
X160540000Y-78480000D01*
%TO.N,DOE*%
X158000000Y-81020000D02*
X160540000Y-81020000D01*
%TO.N,BUSRST_N*%
X50020000Y-112500200D02*
X51404800Y-111115400D01*
X50020000Y-116000000D02*
X50020000Y-112500200D01*
X51404800Y-111115400D02*
X51404800Y-84990100D01*
X158000000Y-83560000D02*
X160540000Y-83560000D01*
X50020000Y-122000000D02*
X50020000Y-116000000D01*
X50020000Y-122000000D02*
X50020000Y-124120000D01*
%TO.N,+12V*%
X48337500Y-84539200D02*
X48337500Y-118270500D01*
X156700000Y-122000000D02*
X156700000Y-124120000D01*
X156700000Y-122000000D02*
X156700000Y-116000000D01*
X48000000Y-84201700D02*
X48337500Y-84539200D01*
X48000000Y-83000000D02*
X48000000Y-84201700D01*
%TO.N,-5V*%
X159240000Y-122000000D02*
X159240000Y-124120000D01*
X159240000Y-122000000D02*
X159240000Y-116000000D01*
%TO.N,RESERVED_40*%
X118600000Y-116000000D02*
X118600000Y-41810000D01*
X118600000Y-122000000D02*
X118600000Y-116000000D01*
X118600000Y-122000000D02*
X118600000Y-124120000D01*
%TO.N,RESERVED_42*%
X116060000Y-122000000D02*
X116060000Y-116000000D01*
X116060000Y-122000000D02*
X116060000Y-124120000D01*
%TO.N,RESERVED_44*%
X79339600Y-96918700D02*
X79339600Y-46265400D01*
X113520000Y-122000000D02*
X113520000Y-116000000D01*
X113520000Y-122000000D02*
X113520000Y-124120000D01*
%TO.N,RESERVED_96*%
X47480000Y-122000000D02*
X47480000Y-124120000D01*
X47480000Y-122000000D02*
X47480000Y-116000000D01*
X47480000Y-116000000D02*
X47480000Y-103963500D01*
X46798300Y-103281800D02*
X46798300Y-44620000D01*
X47480000Y-103963500D02*
X46798300Y-103281800D01*
%TO.N,LEGACY_VPA_N*%
X108440000Y-122000000D02*
X108440000Y-124120000D01*
X108440000Y-122000000D02*
X108440000Y-116000000D01*
%TO.N,LEGACY_VMA_N*%
X102360000Y-113500000D02*
X102360000Y-63981700D01*
%TO.N,NC_97*%
X43940000Y-113500000D02*
X43940000Y-55352600D01*
%TO.N,NC_98*%
X44940000Y-122000000D02*
X44940000Y-116000000D01*
X44940000Y-116000000D02*
X44940000Y-56071900D01*
X44940000Y-122000000D02*
X44940000Y-124120000D01*
%TO.N,SENSEZ3_91*%
X56905900Y-108154100D02*
X56905900Y-57320000D01*
X51560000Y-113500000D02*
X56905900Y-108154100D01*
%TO.N,+5V*%
D15*
X35000000Y-92000000D02*
X37540000Y-92000000D01*
D14*
X37540000Y-94540000D02*
X38779200Y-95779200D01*
D15*
X35000000Y-94540000D02*
X37540000Y-94540000D01*
D14*
X38779200Y-95779200D02*
X38779200Y-118956300D01*
X161780000Y-122000000D02*
X161780000Y-116000000D01*
X37540000Y-92000000D02*
X37540000Y-94540000D01*
X161780000Y-122000000D02*
X161780000Y-124120000D01*
%TO.N,-12V*%
X61000000Y-83000000D02*
X61000000Y-84201700D01*
X61000000Y-84201700D02*
X60822200Y-84379500D01*
X144000000Y-122000000D02*
X144000000Y-116000000D01*
X60822200Y-84379500D02*
X60822200Y-114983500D01*
X144000000Y-122000000D02*
X144000000Y-124120000D01*
%TO.N,INT2_N*%
X72000000Y-69000000D02*
X74540000Y-69000000D01*
X143000000Y-113500000D02*
X143000000Y-105988800D01*
X74540000Y-69000000D02*
X76213300Y-70673300D01*
X76213300Y-70673300D02*
X76213300Y-106426000D01*
%TO.N,INT6_N*%
X141460000Y-122000000D02*
X141460000Y-116000000D01*
X72000000Y-71540000D02*
X74540000Y-71540000D01*
X141460000Y-122000000D02*
X141460000Y-124120000D01*
%TO.N,OWN_N*%
X158240000Y-113500000D02*
X155407700Y-110667700D01*
X155407700Y-110667700D02*
X155407700Y-96918000D01*
%TO.N,A5*%
X137353400Y-110393400D02*
X137353400Y-49430000D01*
X140460000Y-113500000D02*
X137353400Y-110393400D01*
%TO.N,A6*%
X134719900Y-80213300D02*
X134719900Y-51970100D01*
X134347200Y-109927200D02*
X134347200Y-80586000D01*
X137920000Y-113500000D02*
X134347200Y-109927200D01*
X134347200Y-80586000D02*
X134719900Y-80213300D01*
%TO.N,A4*%
X138920000Y-122000000D02*
X138920000Y-116000000D01*
X138920000Y-122000000D02*
X138920000Y-124120000D01*
%TO.N,A3*%
X127699700Y-43080000D02*
X127119000Y-43660700D01*
X127119000Y-43660700D02*
X127119000Y-108902700D01*
X136380000Y-122000000D02*
X136380000Y-116000000D01*
X130513000Y-110133000D02*
X136380000Y-116000000D01*
X136380000Y-122000000D02*
X136380000Y-124120000D01*
X128349300Y-110133000D02*
X130513000Y-110133000D01*
X127119000Y-108902700D02*
X128349300Y-110133000D01*
%TO.N,A7*%
X133840000Y-122000000D02*
X133840000Y-124120000D01*
X133840000Y-122000000D02*
X133840000Y-116000000D01*
%TO.N,A8*%
X131300000Y-122000000D02*
X131300000Y-116000000D01*
X131300000Y-116000000D02*
X124481800Y-109181800D01*
X124481800Y-109181800D02*
X124481800Y-59539200D01*
X131300000Y-122000000D02*
X131300000Y-124120000D01*
%TO.N,A9*%
X128760000Y-122000000D02*
X128760000Y-124120000D01*
X128760000Y-122000000D02*
X128760000Y-116000000D01*
%TO.N,A10*%
X126220000Y-122000000D02*
X126220000Y-124120000D01*
X110480000Y-63340000D02*
X110480000Y-110854300D01*
X126220000Y-122000000D02*
X126220000Y-116000000D01*
%TO.N,A11*%
X109756300Y-65156300D02*
X109756300Y-111989000D01*
X123680000Y-122000000D02*
X123680000Y-116000000D01*
X109756300Y-111989000D02*
X110339400Y-112572100D01*
X123680000Y-122000000D02*
X123680000Y-124120000D01*
X108000000Y-63400000D02*
X109756300Y-65156300D01*
%TO.N,A12*%
X121140000Y-122000000D02*
X121140000Y-124120000D01*
X121140000Y-122000000D02*
X121140000Y-116000000D01*
%TO.N,A17*%
X109254600Y-111685400D02*
X107440000Y-113500000D01*
X109254600Y-79894600D02*
X109254600Y-111685400D01*
X108000000Y-78640000D02*
X109254600Y-79894600D01*
%TO.N,A18*%
X103291400Y-85888600D02*
X103291400Y-115931400D01*
X108000000Y-81180000D02*
X103291400Y-85888600D01*
X103291400Y-115931400D02*
X103360000Y-116000000D01*
X103360000Y-122000000D02*
X103360000Y-124120000D01*
X103360000Y-122000000D02*
X103360000Y-116000000D01*
%TO.N,A19*%
X100820000Y-122000000D02*
X100820000Y-124120000D01*
X100820000Y-122000000D02*
X100820000Y-116000000D01*
%TO.N,A20*%
X98280000Y-122000000D02*
X98280000Y-116000000D01*
X98280000Y-122000000D02*
X98280000Y-124120000D01*
X103968100Y-86260000D02*
X103968100Y-115321900D01*
%TO.N,A21*%
X95740000Y-122000000D02*
X95740000Y-124120000D01*
X95740000Y-122000000D02*
X95740000Y-116000000D01*
%TO.N,BR_N*%
X93200000Y-122000000D02*
X93200000Y-124120000D01*
X93200000Y-122000000D02*
X93200000Y-116000000D01*
%TO.N,BGACK_N*%
X90660000Y-122000000D02*
X90660000Y-116000000D01*
X90660000Y-122000000D02*
X90660000Y-124120000D01*
%TO.N,D15*%
X130732600Y-77367400D02*
X132000000Y-76100000D01*
X130732600Y-90740400D02*
X130732600Y-77367400D01*
X130459500Y-91013500D02*
X130732600Y-90740400D01*
%TO.N,BG_N*%
X88120000Y-122000000D02*
X88120000Y-124120000D01*
X88120000Y-122000000D02*
X88120000Y-116000000D01*
%TO.N,D14*%
X131141500Y-107885600D02*
X131521700Y-108265800D01*
X132000000Y-73560000D02*
X133214800Y-74774800D01*
X133214800Y-74774800D02*
X133214800Y-79340000D01*
X132264700Y-102778700D02*
X131141500Y-103901900D01*
X132264700Y-80290100D02*
X132264700Y-102778700D01*
X131141500Y-103901900D02*
X131141500Y-107885600D01*
X133214800Y-79340000D02*
X132264700Y-80290100D01*
%TO.N,D13*%
X120272500Y-74887100D02*
X120272500Y-107577700D01*
X120272500Y-107577700D02*
X119856100Y-107994100D01*
%TO.N,D11*%
X130165200Y-91676100D02*
X130165200Y-107006500D01*
X130165200Y-67774800D02*
X130165200Y-90350900D01*
X130165200Y-90350900D02*
X129782800Y-90733300D01*
X129782800Y-91293700D02*
X130165200Y-91676100D01*
X132000000Y-65940000D02*
X130165200Y-67774800D01*
X129782800Y-90733300D02*
X129782800Y-91293700D01*
%TO.N,D10*%
X132000000Y-64025200D02*
X132000000Y-63400000D01*
X72880000Y-107503900D02*
X73951900Y-106432000D01*
X133716500Y-65741700D02*
X132000000Y-64025200D01*
X133039400Y-101075900D02*
X133039400Y-80475000D01*
X72880000Y-122000000D02*
X72880000Y-124120000D01*
X72880000Y-122000000D02*
X72880000Y-116000000D01*
X133039400Y-80475000D02*
X133716500Y-79797900D01*
X133716500Y-79797900D02*
X133716500Y-65741700D01*
X72880000Y-116000000D02*
X72880000Y-107503900D01*
%TO.N,D1*%
X69340000Y-113500000D02*
X69340000Y-66024100D01*
X69340000Y-66024100D02*
X76213200Y-59150900D01*
X76213200Y-59150900D02*
X76213200Y-36651300D01*
%TO.N,D9*%
X129639100Y-90167600D02*
X129137400Y-90669300D01*
X129639100Y-63220900D02*
X129639100Y-90167600D01*
X70340000Y-122000000D02*
X70340000Y-124120000D01*
X132000000Y-60860000D02*
X129639100Y-63220900D01*
X70340000Y-122000000D02*
X70340000Y-116000000D01*
X129137400Y-90669300D02*
X129137400Y-98603600D01*
%TO.N,D2*%
X127620700Y-47459300D02*
X127620700Y-108447500D01*
X132000000Y-43080000D02*
X127620700Y-47459300D01*
X127620700Y-108447500D02*
X128629500Y-109456300D01*
%TO.N,D8*%
X128799100Y-61520900D02*
X128799100Y-72290000D01*
X67800000Y-122000000D02*
X67800000Y-124120000D01*
X132000000Y-58320000D02*
X128799100Y-61520900D01*
X67800000Y-122000000D02*
X67800000Y-116000000D01*
%TO.N,D3*%
X134218200Y-80005600D02*
X133716500Y-80507300D01*
X133716500Y-80507300D02*
X133716500Y-104829800D01*
X133214800Y-64280400D02*
X134218200Y-65283800D01*
X134218200Y-65283800D02*
X134218200Y-80005600D01*
X132000000Y-45620000D02*
X133214800Y-46834800D01*
X133716500Y-104829800D02*
X131818300Y-106728000D01*
X133214800Y-46834800D02*
X133214800Y-64280400D01*
%TO.N,D7*%
X65260000Y-122000000D02*
X65260000Y-116000000D01*
X65260000Y-122000000D02*
X65260000Y-124120000D01*
%TO.N,D4*%
X61720000Y-113500000D02*
X64550000Y-110670000D01*
X132000000Y-48160000D02*
X128122400Y-52037600D01*
X64550000Y-110670000D02*
X64550000Y-75028300D01*
X64550000Y-75028300D02*
X64550100Y-75028300D01*
X128122400Y-73422600D02*
X128560100Y-73860300D01*
X128122400Y-52037600D02*
X128122400Y-73422600D01*
%TO.N,D6*%
X62720000Y-122000000D02*
X62720000Y-116000000D01*
X62720000Y-122000000D02*
X62720000Y-124120000D01*
%TO.N,D5*%
X60762700Y-116000000D02*
X65383300Y-111379400D01*
X60180000Y-116000000D02*
X60762700Y-116000000D01*
X60180000Y-122000000D02*
X60180000Y-124120000D01*
X65383300Y-111379400D02*
X65383300Y-68930700D01*
X60180000Y-122000000D02*
X60180000Y-116000000D01*
X65383300Y-68930700D02*
X74801600Y-59512400D01*
X74801600Y-59512400D02*
X74801600Y-49365400D01*
%TD*%
M02*
