%TF.GenerationSoftware,KiCad,Pcbnew,10.0.5-1-g226df246f3*%
%TF.CreationDate,2026-09-10T20:59:29+01:00*%
%TF.ProjectId,zorro-breakout,7a6f7272-6f2d-4627-9265-616b6f75742e,rev?*%
%TF.SameCoordinates,Original*%
%TF.FileFunction,Soldermask,Bot*%
%TF.FilePolarity,Negative*%
%FSLAX46Y46*%
G04 Gerber Fmt 4.6, Leading zero omitted, Abs format (unit mm)*
G04 Created by KiCad (PCBNEW 10.0.5-1-g226df246f3) date 2026-09-10 20:59:29*
%MOMM*%
%LPD*%
G01*
G04 APERTURE LIST*
%ADD10R,1.524000X5.000000*%
G04 APERTURE END LIST*
D10*
%TO.C,J1*%
X166860000Y-124120000D03*
X164320000Y-124120000D03*
X161780000Y-124120000D03*
X159240000Y-124120000D03*
X156700000Y-124120000D03*
X154160000Y-124120000D03*
X151620000Y-124120000D03*
X149080000Y-124120000D03*
X146540000Y-124120000D03*
X144000000Y-124120000D03*
X141460000Y-124120000D03*
X138920000Y-124120000D03*
X136380000Y-124120000D03*
X133840000Y-124120000D03*
X131300000Y-124120000D03*
X128760000Y-124120000D03*
X126220000Y-124120000D03*
X123680000Y-124120000D03*
X121140000Y-124120000D03*
X118600000Y-124120000D03*
X116060000Y-124120000D03*
X113520000Y-124120000D03*
X110980000Y-124120000D03*
X108440000Y-124120000D03*
X105900000Y-124120000D03*
X103360000Y-124120000D03*
X100820000Y-124120000D03*
X98280000Y-124120000D03*
X95740000Y-124120000D03*
X93200000Y-124120000D03*
X90660000Y-124120000D03*
X88120000Y-124120000D03*
X85580000Y-124120000D03*
X83040000Y-124120000D03*
X80500000Y-124120000D03*
X77960000Y-124120000D03*
X75420000Y-124120000D03*
X72880000Y-124120000D03*
X70340000Y-124120000D03*
X67800000Y-124120000D03*
X65260000Y-124120000D03*
X62720000Y-124120000D03*
X60180000Y-124120000D03*
X57640000Y-124120000D03*
X55100000Y-124120000D03*
X52560000Y-124120000D03*
X50020000Y-124120000D03*
X47480000Y-124120000D03*
X44940000Y-124120000D03*
X42400000Y-124120000D03*
%TD*%
M02*
