<?xml version="1.0" standalone="no"?>
 <!DOCTYPE svg PUBLIC "-//W3C//DTD SVG 1.1//EN" 
 "http://www.w3.org/Graphics/SVG/1.1/DTD/svg11.dtd"> 
<svg
  xmlns:svg="http://www.w3.org/2000/svg"
  xmlns="http://www.w3.org/2000/svg"
  xmlns:xlink="http://www.w3.org/1999/xlink"
  xmlns:inkscape="http://www.inkscape.org/namespaces/inkscape"
  version="1.1"
  width="179.9844mm" height="107.6198mm" viewBox="0.0000 0.0000 179.9844 107.6198">
<title>SVG Image created as zorro-breakout-F_Cu.svg date 2026-09-10T20:59:31 </title>
  <desc>Image generated by PCBNEW </desc>
<g style="fill:#000000; fill-opacity:1.0000;stroke:#000000; stroke-opacity:1.0000;
stroke-linecap:round; stroke-linejoin:round;"
 transform="translate(0 0) scale(1 1)">
<path style="fill:#C83434; fill-opacity:1.0000; stroke:none;fill-rule:evenodd;"
d="M 14.1500,19.8500
14.1500,18.1500
15.8500,18.1500
15.8500,19.8500
Z" /> 
</g>
<g style="fill:#C83434; fill-opacity:1.0000; stroke:none;">
<circle cx="17.5400" cy="19.0000" r="0.8500" /> 
<circle cx="15.0000" cy="21.5400" r="0.8500" /> 
<circle cx="17.5400" cy="21.5400" r="0.8500" /> 
<circle cx="15.0000" cy="24.0800" r="0.8500" /> 
<circle cx="17.5400" cy="24.0800" r="0.8500" /> 
<circle cx="15.0000" cy="26.6200" r="0.8500" /> 
<circle cx="17.5400" cy="26.6200" r="0.8500" /> 
<circle cx="15.0000" cy="29.1600" r="0.8500" /> 
<circle cx="17.5400" cy="29.1600" r="0.8500" /> 
<circle cx="15.0000" cy="31.7000" r="0.8500" /> 
<circle cx="17.5400" cy="31.7000" r="0.8500" /> 
<path style="fill:#C83434; fill-opacity:1.0000; stroke:none;fill-rule:evenodd;"
d="M 14.1500,46.8500
14.1500,45.1500
15.8500,45.1500
15.8500,46.8500
Z" /> 
<circle cx="17.5400" cy="46.0000" r="0.8500" /> 
<circle cx="15.0000" cy="48.5400" r="0.8500" /> 
<circle cx="17.5400" cy="48.5400" r="0.8500" /> 
<circle cx="15.0000" cy="51.0800" r="0.8500" /> 
<circle cx="17.5400" cy="51.0800" r="0.8500" /> 
<circle cx="15.0000" cy="53.6200" r="0.8500" /> 
<circle cx="17.5400" cy="53.6200" r="0.8500" /> 
<path style="fill:#C83434; fill-opacity:1.0000; stroke:none;fill-rule:evenodd;"
d="M 137.1500,28.8500
137.1500,27.1500
138.8500,27.1500
138.8500,28.8500
Z" /> 
<circle cx="140.5400" cy="28.0000" r="0.8500" /> 
<circle cx="138.0000" cy="30.5400" r="0.8500" /> 
<circle cx="140.5400" cy="30.5400" r="0.8500" /> 
<circle cx="138.0000" cy="33.0800" r="0.8500" /> 
<circle cx="140.5400" cy="33.0800" r="0.8500" /> 
<circle cx="138.0000" cy="35.6200" r="0.8500" /> 
<circle cx="140.5400" cy="35.6200" r="0.8500" /> 
<circle cx="138.0000" cy="38.1600" r="0.8500" /> 
<circle cx="140.5400" cy="38.1600" r="0.8500" /> 
<circle cx="138.0000" cy="40.7000" r="0.8500" /> 
<circle cx="140.5400" cy="40.7000" r="0.8500" /> 
<circle cx="138.0000" cy="43.2400" r="0.8500" /> 
<circle cx="140.5400" cy="43.2400" r="0.8500" /> 
<circle cx="138.0000" cy="45.7800" r="0.8500" /> 
<circle cx="140.5400" cy="45.7800" r="0.8500" /> 
<circle cx="138.0000" cy="48.3200" r="0.8500" /> 
<circle cx="140.5400" cy="48.3200" r="0.8500" /> 
<circle cx="138.0000" cy="50.8600" r="0.8500" /> 
<circle cx="140.5400" cy="50.8600" r="0.8500" /> 
<circle cx="138.0000" cy="53.4000" r="0.8500" /> 
<circle cx="140.5400" cy="53.4000" r="0.8500" /> 
<circle cx="138.0000" cy="55.9400" r="0.8500" /> 
<circle cx="140.5400" cy="55.9400" r="0.8500" /> 
<circle cx="138.0000" cy="58.4800" r="0.8500" /> 
<circle cx="140.5400" cy="58.4800" r="0.8500" /> 
<circle cx="138.0000" cy="61.0200" r="0.8500" /> 
<circle cx="140.5400" cy="61.0200" r="0.8500" /> 
<circle cx="138.0000" cy="63.5600" r="0.8500" /> 
<circle cx="140.5400" cy="63.5600" r="0.8500" /> 
<circle cx="138.0000" cy="66.1000" r="0.8500" /> 
<circle cx="140.5400" cy="66.1000" r="0.8500" /> 
<path style="fill:#C83434; fill-opacity:1.0000; stroke:none;fill-rule:evenodd;"
d="M 27.1500,63.8500
27.1500,62.1500
28.8500,62.1500
28.8500,63.8500
Z" /> 
<path style="fill:#C83434; fill-opacity:1.0000; stroke:none;fill-rule:evenodd;"
d="M 14.1500,63.8500
14.1500,62.1500
15.8500,62.1500
15.8500,63.8500
Z" /> 
<path style="fill:#C83434; fill-opacity:1.0000; stroke:none;fill-rule:evenodd;"
d="M 51.1500,17.8500
51.1500,16.1500
52.8500,16.1500
52.8500,17.8500
Z" /> 
<circle cx="52.0000" cy="19.5400" r="0.8500" /> 
<circle cx="52.0000" cy="22.0800" r="0.8500" /> 
<circle cx="52.0000" cy="24.6200" r="0.8500" /> 
<circle cx="52.0000" cy="27.1600" r="0.8500" /> 
<circle cx="52.0000" cy="29.7000" r="0.8500" /> 
<circle cx="52.0000" cy="32.2400" r="0.8500" /> 
<circle cx="52.0000" cy="34.7800" r="0.8500" /> 
<circle cx="52.0000" cy="37.3200" r="0.8500" /> 
<circle cx="52.0000" cy="39.8600" r="0.8500" /> 
<path style="fill:#C83434; fill-opacity:1.0000; stroke:none;fill-rule:evenodd;"
d="M 14.1500,72.8500
14.1500,71.1500
15.8500,71.1500
15.8500,72.8500
Z" /> 
<circle cx="17.5400" cy="72.0000" r="0.8500" /> 
<circle cx="15.0000" cy="74.5400" r="0.8500" /> 
<circle cx="17.5400" cy="74.5400" r="0.8500" /> 
<circle cx="15.0000" cy="77.0800" r="0.8500" /> 
<circle cx="17.5400" cy="77.0800" r="0.8500" /> 
<circle cx="15.0000" cy="79.6200" r="0.8500" /> 
<circle cx="17.5400" cy="79.6200" r="0.8500" /> 
<circle cx="15.0000" cy="82.1600" r="0.8500" /> 
<circle cx="17.5400" cy="82.1600" r="0.8500" /> 
<circle cx="15.0000" cy="84.7000" r="0.8500" /> 
<circle cx="17.5400" cy="84.7000" r="0.8500" /> 
<path style="fill:#C83434; fill-opacity:1.0000; stroke:none;fill-rule:evenodd;"
d="M 40.1500,63.8500
40.1500,62.1500
41.8500,62.1500
41.8500,63.8500
Z" /> 
<path style="fill:#C83434; fill-opacity:1.0000; stroke:none;fill-rule:evenodd;"
d="M 51.1500,49.8500
51.1500,48.1500
52.8500,48.1500
52.8500,49.8500
Z" /> 
<circle cx="54.5400" cy="49.0000" r="0.8500" /> 
<circle cx="52.0000" cy="51.5400" r="0.8500" /> 
<circle cx="54.5400" cy="51.5400" r="0.8500" /> 
<circle cx="52.0000" cy="54.0800" r="0.8500" /> 
<circle cx="54.5400" cy="54.0800" r="0.8500" /> 
<path style="fill:#C83434; fill-opacity:1.0000; stroke:none;fill-rule:evenodd;"
d="M 146.0980,106.6200
146.0980,101.6200
147.6220,101.6200
147.6220,106.6200
Z" /> 
<path style="fill:#C83434; fill-opacity:1.0000; stroke:none;fill-rule:evenodd;"
d="M 143.5580,106.6200
143.5580,101.6200
145.0820,101.6200
145.0820,106.6200
Z" /> 
<path style="fill:#C83434; fill-opacity:1.0000; stroke:none;fill-rule:evenodd;"
d="M 141.0180,106.6200
141.0180,101.6200
142.5420,101.6200
142.5420,106.6200
Z" /> 
<path style="fill:#C83434; fill-opacity:1.0000; stroke:none;fill-rule:evenodd;"
d="M 138.4780,106.6200
138.4780,101.6200
140.0020,101.6200
140.0020,106.6200
Z" /> 
<path style="fill:#C83434; fill-opacity:1.0000; stroke:none;fill-rule:evenodd;"
d="M 135.9380,106.6200
135.9380,101.6200
137.4620,101.6200
137.4620,106.6200
Z" /> 
<path style="fill:#C83434; fill-opacity:1.0000; stroke:none;fill-rule:evenodd;"
d="M 133.3980,106.6200
133.3980,101.6200
134.9220,101.6200
134.9220,106.6200
Z" /> 
<path style="fill:#C83434; fill-opacity:1.0000; stroke:none;fill-rule:evenodd;"
d="M 130.8580,106.6200
130.8580,101.6200
132.3820,101.6200
132.3820,106.6200
Z" /> 
<path style="fill:#C83434; fill-opacity:1.0000; stroke:none;fill-rule:evenodd;"
d="M 128.3180,106.6200
128.3180,101.6200
129.8420,101.6200
129.8420,106.6200
Z" /> 
<path style="fill:#C83434; fill-opacity:1.0000; stroke:none;fill-rule:evenodd;"
d="M 125.7780,106.6200
125.7780,101.6200
127.3020,101.6200
127.3020,106.6200
Z" /> 
<path style="fill:#C83434; fill-opacity:1.0000; stroke:none;fill-rule:evenodd;"
d="M 123.2380,106.6200
123.2380,101.6200
124.7620,101.6200
124.7620,106.6200
Z" /> 
<path style="fill:#C83434; fill-opacity:1.0000; stroke:none;fill-rule:evenodd;"
d="M 120.6980,106.6200
120.6980,101.6200
122.2220,101.6200
122.2220,106.6200
Z" /> 
<path style="fill:#C83434; fill-opacity:1.0000; stroke:none;fill-rule:evenodd;"
d="M 118.1580,106.6200
118.1580,101.6200
119.6820,101.6200
119.6820,106.6200
Z" /> 
<path style="fill:#C83434; fill-opacity:1.0000; stroke:none;fill-rule:evenodd;"
d="M 115.6180,106.6200
115.6180,101.6200
117.1420,101.6200
117.1420,106.6200
Z" /> 
<path style="fill:#C83434; fill-opacity:1.0000; stroke:none;fill-rule:evenodd;"
d="M 113.0780,106.6200
113.0780,101.6200
114.6020,101.6200
114.6020,106.6200
Z" /> 
<path style="fill:#C83434; fill-opacity:1.0000; stroke:none;fill-rule:evenodd;"
d="M 110.5380,106.6200
110.5380,101.6200
112.0620,101.6200
112.0620,106.6200
Z" /> 
<path style="fill:#C83434; fill-opacity:1.0000; stroke:none;fill-rule:evenodd;"
d="M 107.9980,106.6200
107.9980,101.6200
109.5220,101.6200
109.5220,106.6200
Z" /> 
<path style="fill:#C83434; fill-opacity:1.0000; stroke:none;fill-rule:evenodd;"
d="M 105.4580,106.6200
105.4580,101.6200
106.9820,101.6200
106.9820,106.6200
Z" /> 
<path style="fill:#C83434; fill-opacity:1.0000; stroke:none;fill-rule:evenodd;"
d="M 102.9180,106.6200
102.9180,101.6200
104.4420,101.6200
104.4420,106.6200
Z" /> 
<path style="fill:#C83434; fill-opacity:1.0000; stroke:none;fill-rule:evenodd;"
d="M 100.3780,106.6200
100.3780,101.6200
101.9020,101.6200
101.9020,106.6200
Z" /> 
<path style="fill:#C83434; fill-opacity:1.0000; stroke:none;fill-rule:evenodd;"
d="M 97.8380,106.6200
97.8380,101.6200
99.3620,101.6200
99.3620,106.6200
Z" /> 
<path style="fill:#C83434; fill-opacity:1.0000; stroke:none;fill-rule:evenodd;"
d="M 95.2980,106.6200
95.2980,101.6200
96.8220,101.6200
96.8220,106.6200
Z" /> 
<path style="fill:#C83434; fill-opacity:1.0000; stroke:none;fill-rule:evenodd;"
d="M 92.7580,106.6200
92.7580,101.6200
94.2820,101.6200
94.2820,106.6200
Z" /> 
<path style="fill:#C83434; fill-opacity:1.0000; stroke:none;fill-rule:evenodd;"
d="M 90.2180,106.6200
90.2180,101.6200
91.7420,101.6200
91.7420,106.6200
Z" /> 
<path style="fill:#C83434; fill-opacity:1.0000; stroke:none;fill-rule:evenodd;"
d="M 87.6780,106.6200
87.6780,101.6200
89.2020,101.6200
89.2020,106.6200
Z" /> 
<path style="fill:#C83434; fill-opacity:1.0000; stroke:none;fill-rule:evenodd;"
d="M 85.1380,106.6200
85.1380,101.6200
86.6620,101.6200
86.6620,106.6200
Z" /> 
<path style="fill:#C83434; fill-opacity:1.0000; stroke:none;fill-rule:evenodd;"
d="M 82.5980,106.6200
82.5980,101.6200
84.1220,101.6200
84.1220,106.6200
Z" /> 
<path style="fill:#C83434; fill-opacity:1.0000; stroke:none;fill-rule:evenodd;"
d="M 80.0580,106.6200
80.0580,101.6200
81.5820,101.6200
81.5820,106.6200
Z" /> 
<path style="fill:#C83434; fill-opacity:1.0000; stroke:none;fill-rule:evenodd;"
d="M 77.5180,106.6200
77.5180,101.6200
79.0420,101.6200
79.0420,106.6200
Z" /> 
<path style="fill:#C83434; fill-opacity:1.0000; stroke:none;fill-rule:evenodd;"
d="M 74.9780,106.6200
74.9780,101.6200
76.5020,101.6200
76.5020,106.6200
Z" /> 
<path style="fill:#C83434; fill-opacity:1.0000; stroke:none;fill-rule:evenodd;"
d="M 72.4380,106.6200
72.4380,101.6200
73.9620,101.6200
73.9620,106.6200
Z" /> 
<path style="fill:#C83434; fill-opacity:1.0000; stroke:none;fill-rule:evenodd;"
d="M 69.8980,106.6200
69.8980,101.6200
71.4220,101.6200
71.4220,106.6200
Z" /> 
<path style="fill:#C83434; fill-opacity:1.0000; stroke:none;fill-rule:evenodd;"
d="M 67.3580,106.6200
67.3580,101.6200
68.8820,101.6200
68.8820,106.6200
Z" /> 
<path style="fill:#C83434; fill-opacity:1.0000; stroke:none;fill-rule:evenodd;"
d="M 64.8180,106.6200
64.8180,101.6200
66.3420,101.6200
66.3420,106.6200
Z" /> 
<path style="fill:#C83434; fill-opacity:1.0000; stroke:none;fill-rule:evenodd;"
d="M 62.2780,106.6200
62.2780,101.6200
63.8020,101.6200
63.8020,106.6200
Z" /> 
<path style="fill:#C83434; fill-opacity:1.0000; stroke:none;fill-rule:evenodd;"
d="M 59.7380,106.6200
59.7380,101.6200
61.2620,101.6200
61.2620,106.6200
Z" /> 
<path style="fill:#C83434; fill-opacity:1.0000; stroke:none;fill-rule:evenodd;"
d="M 57.1980,106.6200
57.1980,101.6200
58.7220,101.6200
58.7220,106.6200
Z" /> 
<path style="fill:#C83434; fill-opacity:1.0000; stroke:none;fill-rule:evenodd;"
d="M 54.6580,106.6200
54.6580,101.6200
56.1820,101.6200
56.1820,106.6200
Z" /> 
<path style="fill:#C83434; fill-opacity:1.0000; stroke:none;fill-rule:evenodd;"
d="M 52.1180,106.6200
52.1180,101.6200
53.6420,101.6200
53.6420,106.6200
Z" /> 
<path style="fill:#C83434; fill-opacity:1.0000; stroke:none;fill-rule:evenodd;"
d="M 49.5780,106.6200
49.5780,101.6200
51.1020,101.6200
51.1020,106.6200
Z" /> 
<path style="fill:#C83434; fill-opacity:1.0000; stroke:none;fill-rule:evenodd;"
d="M 47.0380,106.6200
47.0380,101.6200
48.5620,101.6200
48.5620,106.6200
Z" /> 
<path style="fill:#C83434; fill-opacity:1.0000; stroke:none;fill-rule:evenodd;"
d="M 44.4980,106.6200
44.4980,101.6200
46.0220,101.6200
46.0220,106.6200
Z" /> 
<path style="fill:#C83434; fill-opacity:1.0000; stroke:none;fill-rule:evenodd;"
d="M 41.9580,106.6200
41.9580,101.6200
43.4820,101.6200
43.4820,106.6200
Z" /> 
<path style="fill:#C83434; fill-opacity:1.0000; stroke:none;fill-rule:evenodd;"
d="M 39.4180,106.6200
39.4180,101.6200
40.9420,101.6200
40.9420,106.6200
Z" /> 
<path style="fill:#C83434; fill-opacity:1.0000; stroke:none;fill-rule:evenodd;"
d="M 36.8780,106.6200
36.8780,101.6200
38.4020,101.6200
38.4020,106.6200
Z" /> 
<path style="fill:#C83434; fill-opacity:1.0000; stroke:none;fill-rule:evenodd;"
d="M 34.3380,106.6200
34.3380,101.6200
35.8620,101.6200
35.8620,106.6200
Z" /> 
<path style="fill:#C83434; fill-opacity:1.0000; stroke:none;fill-rule:evenodd;"
d="M 31.7980,106.6200
31.7980,101.6200
33.3220,101.6200
33.3220,106.6200
Z" /> 
<path style="fill:#C83434; fill-opacity:1.0000; stroke:none;fill-rule:evenodd;"
d="M 29.2580,106.6200
29.2580,101.6200
30.7820,101.6200
30.7820,106.6200
Z" /> 
<path style="fill:#C83434; fill-opacity:1.0000; stroke:none;fill-rule:evenodd;"
d="M 26.7180,106.6200
26.7180,101.6200
28.2420,101.6200
28.2420,106.6200
Z" /> 
<path style="fill:#C83434; fill-opacity:1.0000; stroke:none;fill-rule:evenodd;"
d="M 24.1780,106.6200
24.1780,101.6200
25.7020,101.6200
25.7020,106.6200
Z" /> 
<path style="fill:#C83434; fill-opacity:1.0000; stroke:none;fill-rule:evenodd;"
d="M 21.6380,106.6200
21.6380,101.6200
23.1620,101.6200
23.1620,106.6200
Z" /> 
<path style="fill:#C83434; fill-opacity:1.0000; stroke:none;fill-rule:evenodd;"
d="M 111.1500,18.8500
111.1500,17.1500
112.8500,17.1500
112.8500,18.8500
Z" /> 
<circle cx="112.0000" cy="20.5400" r="0.8500" /> 
<circle cx="112.0000" cy="23.0800" r="0.8500" /> 
<circle cx="112.0000" cy="25.6200" r="0.8500" /> 
<circle cx="112.0000" cy="28.1600" r="0.8500" /> 
<circle cx="112.0000" cy="30.7000" r="0.8500" /> 
<circle cx="112.0000" cy="33.2400" r="0.8500" /> 
<circle cx="112.0000" cy="35.7800" r="0.8500" /> 
<circle cx="112.0000" cy="38.3200" r="0.8500" /> 
<circle cx="112.0000" cy="40.8600" r="0.8500" /> 
<circle cx="112.0000" cy="43.4000" r="0.8500" /> 
<circle cx="112.0000" cy="45.9400" r="0.8500" /> 
<circle cx="112.0000" cy="48.4800" r="0.8500" /> 
<circle cx="112.0000" cy="51.0200" r="0.8500" /> 
<circle cx="112.0000" cy="53.5600" r="0.8500" /> 
<circle cx="112.0000" cy="56.1000" r="0.8500" /> 
<circle cx="112.0000" cy="58.6400" r="0.8500" /> 
<path style="fill:#C83434; fill-opacity:1.0000; stroke:none;fill-rule:evenodd;"
d="M 87.1500,18.8500
87.1500,17.1500
88.8500,17.1500
88.8500,18.8500
Z" /> 
<circle cx="88.0000" cy="20.5400" r="0.8500" /> 
<circle cx="88.0000" cy="23.0800" r="0.8500" /> 
<circle cx="88.0000" cy="25.6200" r="0.8500" /> 
<circle cx="88.0000" cy="28.1600" r="0.8500" /> 
<circle cx="88.0000" cy="30.7000" r="0.8500" /> 
<circle cx="88.0000" cy="33.2400" r="0.8500" /> 
<circle cx="88.0000" cy="35.7800" r="0.8500" /> 
<circle cx="88.0000" cy="38.3200" r="0.8500" /> 
<circle cx="88.0000" cy="40.8600" r="0.8500" /> 
<circle cx="88.0000" cy="43.4000" r="0.8500" /> 
<circle cx="88.0000" cy="45.9400" r="0.8500" /> 
<circle cx="88.0000" cy="48.4800" r="0.8500" /> 
<circle cx="88.0000" cy="51.0200" r="0.8500" /> 
<circle cx="88.0000" cy="53.5600" r="0.8500" /> 
<circle cx="88.0000" cy="56.1000" r="0.8500" /> 
<circle cx="88.0000" cy="58.6400" r="0.8500" /> 
<circle cx="88.0000" cy="61.1800" r="0.8500" /> 
<circle cx="88.0000" cy="63.7200" r="0.8500" /> 
<circle cx="88.0000" cy="66.2600" r="0.8500" /> 
<circle cx="88.0000" cy="68.8000" r="0.8500" /> 
<circle cx="88.0000" cy="71.3400" r="0.8500" /> 
<circle cx="88.0000" cy="73.8800" r="0.8500" /> 
<circle cx="88.0000" cy="76.4200" r="0.8500" /> 
<path style="fill:#C83434; fill-opacity:1.0000; stroke:none;fill-rule:evenodd;"
d="M 51.1500,68.8500
51.1500,67.1500
52.8500,67.1500
52.8500,68.8500
Z" /> 
<circle cx="52.0000" cy="70.5400" r="0.8500" /> 
<circle cx="52.0000" cy="73.0800" r="0.8500" /> 
<circle cx="52.0000" cy="75.6200" r="0.8500" /> 
<circle cx="52.0000" cy="78.1600" r="0.8500" /> 
<circle cx="52.0000" cy="80.7000" r="0.8500" /> 
<circle cx="131.6200" cy="15.2776" r="0.3250" /> 
<circle cx="128.0800" cy="93.5000" r="0.3250" /> 
<circle cx="128.0800" cy="24.3499" r="0.3250" /> 
<circle cx="129.0800" cy="26.9526" r="0.3250" /> 
<circle cx="85.9000" cy="96.0000" r="0.3250" /> 
<circle cx="22.6436" cy="94.2744" r="0.3250" /> 
<circle cx="32.5600" cy="96.0000" r="0.3250" /> 
<circle cx="100.1400" cy="93.5000" r="0.3250" /> 
<circle cx="84.9000" cy="93.5000" r="0.3250" /> 
<circle cx="39.1800" cy="93.5000" r="0.3250" /> 
<circle cx="143.3200" cy="93.5000" r="0.3250" /> 
<circle cx="145.8600" cy="93.5000" r="0.3250" /> 
<circle cx="35.1000" cy="96.0000" r="0.3250" /> 
<circle cx="22.4000" cy="96.0000" r="0.3250" /> 
<circle cx="115.3800" cy="93.5000" r="0.3250" /> 
<circle cx="37.6400" cy="96.0000" r="0.3250" /> 
<circle cx="34.1000" cy="93.5000" r="0.3250" /> 
<circle cx="130.6200" cy="93.5000" r="0.3250" /> 
<circle cx="54.4200" cy="93.5000" r="0.3250" /> 
<circle cx="36.6400" cy="93.5000" r="0.3250" /> 
<circle cx="144.3200" cy="96.0000" r="0.3250" /> 
<circle cx="69.6600" cy="93.5000" r="0.3250" /> 
<circle cx="146.8600" cy="96.0000" r="0.3250" /> 
<circle cx="21.4000" cy="93.5000" r="0.3250" /> 
<circle cx="20.0912" cy="96.7075" r="0.3250" /> 
<circle cx="135.7000" cy="93.5000" r="0.3250" /> 
<circle cx="134.1600" cy="96.0000" r="0.3250" /> 
<circle cx="134.7567" cy="59.9100" r="0.3250" /> 
<circle cx="130.2250" cy="62.5126" r="0.3250" /> 
<circle cx="55.4200" cy="96.0000" r="0.3250" /> 
<circle cx="134.4083" cy="87.4715" r="0.3250" /> 
<circle cx="57.9600" cy="96.0000" r="0.3250" /> 
<circle cx="57.9600" cy="87.1072" r="0.3250" /> 
<circle cx="136.0860" cy="86.7168" r="0.3250" /> 
<circle cx="60.5000" cy="34.5100" r="0.3250" /> 
<circle cx="60.5000" cy="96.0000" r="0.3250" /> 
<circle cx="63.0400" cy="47.1423" r="0.3250" /> 
<circle cx="63.0400" cy="96.0000" r="0.3250" /> 
<circle cx="65.5800" cy="49.7499" r="0.3250" /> 
<circle cx="65.5800" cy="96.0000" r="0.3250" /> 
<circle cx="126.5400" cy="96.0000" r="0.3250" /> 
<circle cx="133.0524" cy="88.0951" r="0.3250" /> 
<circle cx="79.8200" cy="93.5000" r="0.3250" /> 
<circle cx="78.7386" cy="57.3154" r="0.3250" /> 
<circle cx="93.5590" cy="57.7265" r="0.3250" /> 
<circle cx="107.7600" cy="93.5000" r="0.3250" /> 
<circle cx="133.7316" cy="91.0140" r="0.3250" /> 
<circle cx="105.2200" cy="93.5000" r="0.3250" /> 
<circle cx="136.7981" cy="89.7861" r="0.3250" /> 
<circle cx="139.2700" cy="87.7824" r="0.3250" /> 
<circle cx="102.6800" cy="93.5000" r="0.3250" /> 
<circle cx="29.0200" cy="93.5000" r="0.3250" /> 
<circle cx="31.4048" cy="64.9901" r="0.3250" /> 
<circle cx="136.7000" cy="96.0000" r="0.3250" /> 
<circle cx="28.3375" cy="98.2705" r="0.3250" /> 
<circle cx="139.2400" cy="96.0000" r="0.3250" /> 
<circle cx="137.7647" cy="72.6115" r="0.3250" /> 
<circle cx="98.6000" cy="21.8100" r="0.3250" /> 
<circle cx="51.0152" cy="95.4026" r="0.3250" /> 
<circle cx="96.0600" cy="96.0000" r="0.3250" /> 
<circle cx="59.3396" cy="76.9187" r="0.3250" /> 
<circle cx="59.3396" cy="26.2654" r="0.3250" /> 
<circle cx="93.5200" cy="96.0000" r="0.3250" /> 
<circle cx="92.8823" cy="77.7608" r="0.3250" /> 
<circle cx="26.7983" cy="24.6200" r="0.3250" /> 
<circle cx="85.1744" cy="39.5392" r="0.3250" /> 
<circle cx="88.4400" cy="96.0000" r="0.3250" /> 
<circle cx="82.3600" cy="93.5000" r="0.3250" /> 
<circle cx="82.3600" cy="43.9817" r="0.3250" /> 
<circle cx="23.9400" cy="93.5000" r="0.3250" /> 
<circle cx="23.9400" cy="35.3526" r="0.3250" /> 
<circle cx="24.9400" cy="36.0719" r="0.3250" /> 
<circle cx="31.5600" cy="93.5000" r="0.3250" /> 
<circle cx="36.9059" cy="37.3200" r="0.3250" /> 
<circle cx="18.7792" cy="98.9563" r="0.3250" /> 
<circle cx="141.7800" cy="96.0000" r="0.3250" /> 
<circle cx="40.8222" cy="94.9835" r="0.3250" /> 
<circle cx="124.0000" cy="96.0000" r="0.3250" /> 
<circle cx="56.2133" cy="86.4260" r="0.3250" /> 
<circle cx="123.0000" cy="85.9888" r="0.3250" /> 
<circle cx="123.0000" cy="93.5000" r="0.3250" /> 
<circle cx="57.4398" cy="67.5962" r="0.3250" /> 
<circle cx="121.4600" cy="67.5962" r="0.3250" /> 
<circle cx="121.4600" cy="96.0000" r="0.3250" /> 
<circle cx="135.4077" cy="76.9180" r="0.3250" /> 
<circle cx="138.2400" cy="93.5000" r="0.3250" /> 
<circle cx="120.4600" cy="93.5000" r="0.3250" /> 
<circle cx="117.3534" cy="29.4300" r="0.3250" /> 
<circle cx="114.7199" cy="31.9701" r="0.3250" /> 
<circle cx="117.9200" cy="93.5000" r="0.3250" /> 
<circle cx="110.1793" cy="25.9366" r="0.3250" /> 
<circle cx="118.9200" cy="96.0000" r="0.3250" /> 
<circle cx="107.6997" cy="23.0800" r="0.3250" /> 
<circle cx="108.4607" cy="20.5400" r="0.3250" /> 
<circle cx="109.4761" cy="33.2400" r="0.3250" /> 
<circle cx="113.8400" cy="96.0000" r="0.3250" /> 
<circle cx="107.0037" cy="18.0000" r="0.3250" /> 
<circle cx="104.4818" cy="39.5392" r="0.3250" /> 
<circle cx="108.7600" cy="96.0000" r="0.3250" /> 
<circle cx="103.5523" cy="42.7104" r="0.3250" /> 
<circle cx="106.2200" cy="96.0000" r="0.3250" /> 
<circle cx="90.4800" cy="43.3400" r="0.3250" /> 
<circle cx="90.4800" cy="90.8543" r="0.3250" /> 
<circle cx="90.3394" cy="92.5721" r="0.3250" /> 
<circle cx="103.6800" cy="96.0000" r="0.3250" /> 
<circle cx="101.1400" cy="96.0000" r="0.3250" /> 
<circle cx="87.4400" cy="93.5000" r="0.3250" /> 
<circle cx="80.8200" cy="64.3039" r="0.3250" /> 
<circle cx="80.8200" cy="96.0000" r="0.3250" /> 
<circle cx="83.9681" cy="66.2600" r="0.3250" /> 
<circle cx="78.2800" cy="96.0000" r="0.3250" /> 
<circle cx="83.9681" cy="95.3219" r="0.3250" /> 
<circle cx="74.7400" cy="71.3400" r="0.3250" /> 
<circle cx="75.7400" cy="68.8000" r="0.3250" /> 
<circle cx="75.7400" cy="96.0000" r="0.3250" /> 
<circle cx="72.2000" cy="76.3940" r="0.3250" /> 
<circle cx="73.2000" cy="80.7839" r="0.3250" /> 
<circle cx="73.2000" cy="96.0000" r="0.3250" /> 
<circle cx="70.6600" cy="96.0000" r="0.3250" /> 
<circle cx="70.6600" cy="82.8785" r="0.3250" /> 
<circle cx="67.1200" cy="70.1293" r="0.3250" /> 
<circle cx="110.4595" cy="71.0135" r="0.3250" /> 
<circle cx="68.8925" cy="83.5552" r="0.3250" /> 
<circle cx="68.1200" cy="96.0000" r="0.3250" /> 
<circle cx="64.5800" cy="93.5000" r="0.3250" /> 
<circle cx="111.5217" cy="88.2658" r="0.3250" /> 
<circle cx="99.8561" cy="87.9941" r="0.3250" /> 
<circle cx="100.2725" cy="54.8871" r="0.3250" /> 
<circle cx="62.0400" cy="93.5000" r="0.3250" /> 
<circle cx="59.5000" cy="93.5000" r="0.3250" /> 
<circle cx="115.1708" cy="87.5842" r="0.3250" /> 
<circle cx="110.1652" cy="87.0065" r="0.3250" /> 
<circle cx="56.9600" cy="93.5000" r="0.3250" /> 
<circle cx="53.3932" cy="15.9746" r="0.3250" /> 
<circle cx="113.0394" cy="81.0759" r="0.3250" /> 
<circle cx="53.9519" cy="86.4320" r="0.3250" /> 
<circle cx="56.2132" cy="16.6513" r="0.3250" /> 
<circle cx="49.3400" cy="93.5000" r="0.3250" /> 
<circle cx="109.1374" cy="78.6036" r="0.3250" /> 
<circle cx="50.3384" cy="84.2320" r="0.3250" /> 
<circle cx="50.3400" cy="96.0000" r="0.3250" /> 
<circle cx="108.6295" cy="89.4563" r="0.3250" /> 
<circle cx="46.8000" cy="93.5000" r="0.3250" /> 
<circle cx="47.8000" cy="96.0000" r="0.3250" /> 
<circle cx="47.8000" cy="56.6386" r="0.3250" /> 
<circle cx="108.7991" cy="52.2900" r="0.3250" /> 
<circle cx="111.8183" cy="86.7280" r="0.3250" /> 
<circle cx="44.2600" cy="93.5000" r="0.3250" /> 
<circle cx="45.2600" cy="96.0000" r="0.3250" /> 
<circle cx="45.2600" cy="44.6701" r="0.3250" /> 
<circle cx="108.5601" cy="53.8603" r="0.3250" /> 
<circle cx="41.7200" cy="93.5000" r="0.3250" /> 
<circle cx="44.5501" cy="55.0283" r="0.3250" /> 
<circle cx="43.5678" cy="85.7371" r="0.3250" /> 
<circle cx="42.7200" cy="96.0000" r="0.3250" /> 
<circle cx="111.1362" cy="79.9069" r="0.3250" /> 
<circle cx="54.8016" cy="29.3654" r="0.3250" /> 
<circle cx="26.4800" cy="93.5000" r="0.3250" /> 
</g>
<g style="fill:none; 
stroke:#C83434; stroke-width:0.3000; stroke-opacity:1; 
stroke-linecap:round; stroke-linejoin:round;">
<path d="M131.6200 102.0000
L131.6200 104.1200
" />
<path d="M131.6200 102.0000
L131.6200 96.0000
" />
<path d="M15.0000 19.0000
L17.5400 19.0000
" />
<path d="M131.6200 96.0000
L131.6200 15.2776
" />
<path d="M15.0000 21.5400
L17.5400 21.5400
" />
<path d="M128.0800 93.5000
L128.0800 24.3499
" />
<path d="M15.0000 24.0800
L17.5400 24.0800
" />
<path d="M129.0800 102.0000
L129.0800 104.1200
" />
<path d="M129.0800 96.0000
L129.0800 26.9526
" />
<path d="M129.0800 102.0000
L129.0800 96.0000
" />
<path d="M22.6436 31.7236
L22.6436 94.2744
" />
<path d="M17.5400 26.6200
L22.6436 31.7236
" />
<path d="M85.9000 102.0000
L85.9000 96.0000
" />
<path d="M15.0000 26.6200
L17.5400 26.6200
" />
<path d="M85.9000 102.0000
L85.9000 104.1200
" />
<path d="M32.5600 102.0000
L32.5600 96.0000
" />
<path d="M15.0000 29.1600
L17.5400 29.1600
" />
<path d="M32.5600 102.0000
L32.5600 104.1200
" />
</g>
<g style="fill:none; 
stroke:#C83434; stroke-width:0.5000; stroke-opacity:1; 
stroke-linecap:round; stroke-linejoin:round;">
<path d="M15.0000 82.1600
L17.5400 82.1600
" />
</g>
<g style="fill:none; 
stroke:#C83434; stroke-width:0.3000; stroke-opacity:1; 
stroke-linecap:round; stroke-linejoin:round;">
<path d="M144.3200 102.0000
L144.3200 104.1200
" />
</g>
<g style="fill:none; 
stroke:#C83434; stroke-width:0.5000; stroke-opacity:1; 
stroke-linecap:round; stroke-linejoin:round;">
<path d="M15.0000 84.7000
L17.5400 84.7000
" />
<path d="M146.8600 102.0000
L146.8600 96.0000
" />
</g>
<g style="fill:none; 
stroke:#C83434; stroke-width:0.3000; stroke-opacity:1; 
stroke-linecap:round; stroke-linejoin:round;">
<path d="M35.1000 102.0000
L35.1000 104.1200
" />
<path d="M22.4000 102.0000
L22.4000 104.1200
" />
</g>
<g style="fill:none; 
stroke:#C83434; stroke-width:0.5000; stroke-opacity:1; 
stroke-linecap:round; stroke-linejoin:round;">
<path d="M22.4000 102.0000
L22.4000 96.0000
" />
<path d="M138.0000 66.1000
L140.5400 66.1000
" />
<path d="M37.6400 102.0000
L37.6400 96.0000
" />
</g>
<g style="fill:none; 
stroke:#C83434; stroke-width:0.3000; stroke-opacity:1; 
stroke-linecap:round; stroke-linejoin:round;">
<path d="M146.8600 102.0000
L146.8600 104.1200
" />
</g>
<g style="fill:none; 
stroke:#C83434; stroke-width:0.5000; stroke-opacity:1; 
stroke-linecap:round; stroke-linejoin:round;">
<path d="M15.0000 53.6200
L17.5400 53.6200
" />
<path d="M144.3200 102.0000
L144.3200 96.0000
" />
</g>
<g style="fill:none; 
stroke:#C83434; stroke-width:0.3000; stroke-opacity:1; 
stroke-linecap:round; stroke-linejoin:round;">
<path d="M37.6400 102.0000
L37.6400 104.1200
" />
</g>
<g style="fill:none; 
stroke:#C83434; stroke-width:0.5000; stroke-opacity:1; 
stroke-linecap:round; stroke-linejoin:round;">
<path d="M15.0000 31.7000
L17.5400 31.7000
" />
<path d="M52.0000 54.0800
L54.5400 54.0800
" />
<path d="M35.1000 102.0000
L35.1000 96.0000
" />
<path d="M15.0000 77.0800
L17.5400 77.0800
" />
<path d="M15.0000 79.6200
L17.5400 79.6200
" />
</g>
<g style="fill:none; 
stroke:#C83434; stroke-width:0.3000; stroke-opacity:1; 
stroke-linecap:round; stroke-linejoin:round;">
<path d="M20.0912 48.5512
L20.0912 96.7075
" />
<path d="M15.0000 46.0000
L17.5400 46.0000
" />
<path d="M17.5400 46.0000
L20.0912 48.5512
" />
<path d="M134.1600 102.0000
L134.1600 96.0000
" />
<path d="M134.1600 102.0000
L134.1600 104.1200
" />
<path d="M15.0000 48.5400
L17.5400 48.5400
" />
<path d="M15.0000 51.0800
L17.5400 51.0800
" />
<path d="M55.4200 102.0000
L55.4200 104.1200
" />
<path d="M55.4200 102.0000
L55.4200 96.0000
" />
<path d="M138.0000 28.0000
L138.0000 29.2017
" />
<path d="M138.0000 28.0000
L140.5400 28.0000
" />
<path d="M134.0679 32.7583
L134.0679 87.1311
" />
<path d="M138.0000 29.2017
L137.6245 29.2017
" />
<path d="M137.6245 29.2017
L134.0679 32.7583
" />
<path d="M134.0679 87.1311
L134.4083 87.4715
" />
<path d="M136.0860 32.4540
L136.0860 86.7168
" />
<path d="M57.9600 102.0000
L57.9600 104.1200
" />
<path d="M57.9600 102.0000
L57.9600 96.0000
" />
<path d="M138.0000 30.5400
L136.0860 32.4540
" />
<path d="M138.0000 30.5400
L140.5400 30.5400
" />
<path d="M60.5000 102.0000
L60.5000 96.0000
" />
<path d="M60.5000 102.0000
L60.5000 104.1200
" />
<path d="M138.0000 33.0800
L140.5400 33.0800
" />
<path d="M63.0400 102.0000
L63.0400 104.1200
" />
<path d="M138.0000 35.6200
L140.5400 35.6200
" />
<path d="M63.0400 102.0000
L63.0400 96.0000
" />
<path d="M65.5800 102.0000
L65.5800 104.1200
" />
<path d="M138.0000 38.1600
L140.5400 38.1600
" />
<path d="M65.5800 102.0000
L65.5800 96.0000
" />
<path d="M138.0000 40.7000
L140.5400 40.7000
" />
<path d="M126.5400 102.0000
L126.5400 104.1200
" />
<path d="M138.0000 43.2400
L140.5400 43.2400
" />
<path d="M126.5400 102.0000
L126.5400 96.0000
" />
<path d="M138.0000 45.7800
L140.5400 45.7800
" />
<path d="M138.0000 48.3200
L140.5400 48.3200
" />
<path d="M90.9800 102.0000
L90.9800 104.1200
" />
<path d="M90.9800 96.0000
L93.5590 93.4210
" />
<path d="M138.0000 50.8600
L140.5400 50.8600
" />
<path d="M93.5590 93.4210
L93.5590 57.7265
" />
<path d="M90.9800 102.0000
L90.9800 96.0000
" />
<path d="M138.0000 53.4000
L140.5400 53.4000
" />
<path d="M136.7981 57.1419
L136.7981 89.7861
" />
<path d="M138.0000 55.9400
L136.7981 57.1419
" />
<path d="M138.0000 55.9400
L140.5400 55.9400
" />
<path d="M138.0000 58.4800
L140.5400 58.4800
" />
<path d="M138.0000 61.0200
L140.5400 61.0200
" />
<path d="M30.0200 92.5002
L31.4048 91.1154
" />
<path d="M30.0200 96.0000
L30.0200 92.5002
" />
<path d="M31.4048 91.1154
L31.4048 64.9901
" />
<path d="M138.0000 63.5600
L140.5400 63.5600
" />
<path d="M30.0200 102.0000
L30.0200 96.0000
" />
<path d="M30.0200 102.0000
L30.0200 104.1200
" />
<path d="M28.3375 64.5392
L28.3375 98.2705
" />
<path d="M136.7000 102.0000
L136.7000 104.1200
" />
<path d="M136.7000 102.0000
L136.7000 96.0000
" />
<path d="M28.0000 64.2017
L28.3375 64.5392
" />
<path d="M28.0000 63.0000
L28.0000 64.2017
" />
<path d="M139.2400 102.0000
L139.2400 104.1200
" />
<path d="M139.2400 102.0000
L139.2400 96.0000
" />
<path d="M98.6000 96.0000
L98.6000 21.8100
" />
<path d="M98.6000 102.0000
L98.6000 96.0000
" />
<path d="M98.6000 102.0000
L98.6000 104.1200
" />
<path d="M96.0600 102.0000
L96.0600 96.0000
" />
<path d="M96.0600 102.0000
L96.0600 104.1200
" />
<path d="M59.3396 76.9187
L59.3396 26.2654
" />
<path d="M93.5200 102.0000
L93.5200 96.0000
" />
<path d="M93.5200 102.0000
L93.5200 104.1200
" />
<path d="M27.4800 102.0000
L27.4800 104.1200
" />
<path d="M27.4800 102.0000
L27.4800 96.0000
" />
<path d="M27.4800 96.0000
L27.4800 83.9635
" />
<path d="M26.7983 83.2818
L26.7983 24.6200
" />
<path d="M27.4800 83.9635
L26.7983 83.2818
" />
<path d="M88.4400 102.0000
L88.4400 104.1200
" />
<path d="M88.4400 102.0000
L88.4400 96.0000
" />
<path d="M82.3600 93.5000
L82.3600 43.9817
" />
<path d="M23.9400 93.5000
L23.9400 35.3526
" />
<path d="M24.9400 102.0000
L24.9400 96.0000
" />
<path d="M24.9400 96.0000
L24.9400 36.0719
" />
<path d="M24.9400 102.0000
L24.9400 104.1200
" />
<path d="M36.9059 88.1541
L36.9059 37.3200
" />
<path d="M31.5600 93.5000
L36.9059 88.1541
" />
</g>
<g style="fill:none; 
stroke:#C83434; stroke-width:0.5000; stroke-opacity:1; 
stroke-linecap:round; stroke-linejoin:round;">
<path d="M15.0000 72.0000
L17.5400 72.0000
" />
</g>
<g style="fill:none; 
stroke:#C83434; stroke-width:0.3000; stroke-opacity:1; 
stroke-linecap:round; stroke-linejoin:round;">
<path d="M17.5400 74.5400
L18.7792 75.7792
" />
</g>
<g style="fill:none; 
stroke:#C83434; stroke-width:0.5000; stroke-opacity:1; 
stroke-linecap:round; stroke-linejoin:round;">
<path d="M15.0000 74.5400
L17.5400 74.5400
" />
</g>
<g style="fill:none; 
stroke:#C83434; stroke-width:0.3000; stroke-opacity:1; 
stroke-linecap:round; stroke-linejoin:round;">
<path d="M18.7792 75.7792
L18.7792 98.9563
" />
<path d="M141.7800 102.0000
L141.7800 96.0000
" />
<path d="M17.5400 72.0000
L17.5400 74.5400
" />
<path d="M141.7800 102.0000
L141.7800 104.1200
" />
<path d="M41.0000 63.0000
L41.0000 64.2017
" />
<path d="M41.0000 64.2017
L40.8222 64.3795
" />
<path d="M124.0000 102.0000
L124.0000 96.0000
" />
<path d="M40.8222 64.3795
L40.8222 94.9835
" />
<path d="M124.0000 102.0000
L124.0000 104.1200
" />
<path d="M52.0000 49.0000
L54.5400 49.0000
" />
<path d="M123.0000 93.5000
L123.0000 85.9888
" />
<path d="M54.5400 49.0000
L56.2133 50.6733
" />
<path d="M56.2133 50.6733
L56.2133 86.4260
" />
<path d="M121.4600 102.0000
L121.4600 96.0000
" />
<path d="M52.0000 51.5400
L54.5400 51.5400
" />
<path d="M121.4600 102.0000
L121.4600 104.1200
" />
<path d="M138.2400 93.5000
L135.4077 90.6677
" />
<path d="M135.4077 90.6677
L135.4077 76.9180
" />
<path d="M117.3534 90.3934
L117.3534 29.4300
" />
<path d="M120.4600 93.5000
L117.3534 90.3934
" />
<path d="M114.7199 60.2133
L114.7199 31.9701
" />
<path d="M114.3472 89.9272
L114.3472 60.5860
" />
<path d="M117.9200 93.5000
L114.3472 89.9272
" />
<path d="M114.3472 60.5860
L114.7199 60.2133
" />
<path d="M118.9200 102.0000
L118.9200 96.0000
" />
<path d="M118.9200 102.0000
L118.9200 104.1200
" />
<path d="M107.6997 23.0800
L107.1190 23.6607
" />
<path d="M107.1190 23.6607
L107.1190 88.9027
" />
<path d="M116.3800 102.0000
L116.3800 96.0000
" />
<path d="M110.5130 90.1330
L116.3800 96.0000
" />
<path d="M116.3800 102.0000
L116.3800 104.1200
" />
<path d="M108.3493 90.1330
L110.5130 90.1330
" />
<path d="M107.1190 88.9027
L108.3493 90.1330
" />
<path d="M113.8400 102.0000
L113.8400 104.1200
" />
<path d="M113.8400 102.0000
L113.8400 96.0000
" />
<path d="M111.3000 102.0000
L111.3000 96.0000
" />
<path d="M111.3000 96.0000
L104.4818 89.1818
" />
<path d="M104.4818 89.1818
L104.4818 39.5392
" />
<path d="M111.3000 102.0000
L111.3000 104.1200
" />
<path d="M108.7600 102.0000
L108.7600 104.1200
" />
<path d="M108.7600 102.0000
L108.7600 96.0000
" />
<path d="M106.2200 102.0000
L106.2200 104.1200
" />
<path d="M90.4800 43.3400
L90.4800 90.8543
" />
<path d="M106.2200 102.0000
L106.2200 96.0000
" />
<path d="M89.7563 45.1563
L89.7563 91.9890
" />
<path d="M103.6800 102.0000
L103.6800 96.0000
" />
<path d="M89.7563 91.9890
L90.3394 92.5721
" />
<path d="M103.6800 102.0000
L103.6800 104.1200
" />
<path d="M88.0000 43.4000
L89.7563 45.1563
" />
<path d="M101.1400 102.0000
L101.1400 104.1200
" />
<path d="M101.1400 102.0000
L101.1400 96.0000
" />
<path d="M89.2546 91.6854
L87.4400 93.5000
" />
<path d="M89.2546 59.8946
L89.2546 91.6854
" />
<path d="M88.0000 58.6400
L89.2546 59.8946
" />
<path d="M83.2914 65.8886
L83.2914 95.9314
" />
<path d="M88.0000 61.1800
L83.2914 65.8886
" />
<path d="M83.2914 95.9314
L83.3600 96.0000
" />
<path d="M83.3600 102.0000
L83.3600 104.1200
" />
<path d="M83.3600 102.0000
L83.3600 96.0000
" />
<path d="M80.8200 102.0000
L80.8200 104.1200
" />
<path d="M80.8200 102.0000
L80.8200 96.0000
" />
<path d="M78.2800 102.0000
L78.2800 96.0000
" />
<path d="M78.2800 102.0000
L78.2800 104.1200
" />
<path d="M83.9681 66.2600
L83.9681 95.3219
" />
<path d="M75.7400 102.0000
L75.7400 104.1200
" />
<path d="M75.7400 102.0000
L75.7400 96.0000
" />
<path d="M73.2000 102.0000
L73.2000 104.1200
" />
<path d="M73.2000 102.0000
L73.2000 96.0000
" />
<path d="M70.6600 102.0000
L70.6600 96.0000
" />
<path d="M70.6600 102.0000
L70.6600 104.1200
" />
<path d="M110.7326 57.3674
L112.0000 56.1000
" />
<path d="M110.7326 70.7404
L110.7326 57.3674
" />
<path d="M110.4595 71.0135
L110.7326 70.7404
" />
<path d="M68.1200 102.0000
L68.1200 104.1200
" />
<path d="M68.1200 102.0000
L68.1200 96.0000
" />
<path d="M111.1415 87.8856
L111.5217 88.2658
" />
<path d="M112.0000 53.5600
L113.2148 54.7748
" />
<path d="M113.2148 54.7748
L113.2148 59.3400
" />
<path d="M112.2647 82.7787
L111.1415 83.9019
" />
<path d="M112.2647 60.2901
L112.2647 82.7787
" />
<path d="M111.1415 83.9019
L111.1415 87.8856
" />
<path d="M113.2148 59.3400
L112.2647 60.2901
" />
<path d="M100.2725 54.8871
L100.2725 87.5777
" />
<path d="M100.2725 87.5777
L99.8561 87.9941
" />
<path d="M110.1652 71.6761
L110.1652 87.0065
" />
<path d="M110.1652 47.7748
L110.1652 70.3509
" />
<path d="M110.1652 70.3509
L109.7828 70.7333
" />
<path d="M109.7828 71.2937
L110.1652 71.6761
" />
<path d="M112.0000 45.9400
L110.1652 47.7748
" />
<path d="M109.7828 70.7333
L109.7828 71.2937
" />
<path d="M112.0000 44.0252
L112.0000 43.4000
" />
<path d="M52.8800 87.5039
L53.9519 86.4320
" />
<path d="M113.7165 45.7417
L112.0000 44.0252
" />
<path d="M113.0394 81.0759
L113.0394 60.4750
" />
<path d="M52.8800 102.0000
L52.8800 104.1200
" />
<path d="M52.8800 102.0000
L52.8800 96.0000
" />
<path d="M113.0394 60.4750
L113.7165 59.7979
" />
<path d="M113.7165 59.7979
L113.7165 45.7417
" />
<path d="M52.8800 96.0000
L52.8800 87.5039
" />
<path d="M49.3400 93.5000
L49.3400 46.0241
" />
<path d="M49.3400 46.0241
L56.2132 39.1509
" />
<path d="M56.2132 39.1509
L56.2132 16.6513
" />
<path d="M109.6391 70.1676
L109.1374 70.6693
" />
<path d="M109.6391 43.2209
L109.6391 70.1676
" />
<path d="M50.3400 102.0000
L50.3400 104.1200
" />
<path d="M112.0000 40.8600
L109.6391 43.2209
" />
<path d="M50.3400 102.0000
L50.3400 96.0000
" />
<path d="M109.1374 70.6693
L109.1374 78.6036
" />
<path d="M107.6207 27.4593
L107.6207 88.4475
" />
<path d="M112.0000 23.0800
L107.6207 27.4593
" />
<path d="M107.6207 88.4475
L108.6295 89.4563
" />
<path d="M108.7991 41.5209
L108.7991 52.2900
" />
<path d="M47.8000 102.0000
L47.8000 104.1200
" />
<path d="M112.0000 38.3200
L108.7991 41.5209
" />
<path d="M47.8000 102.0000
L47.8000 96.0000
" />
<path d="M114.2182 60.0056
L113.7165 60.5073
" />
<path d="M113.7165 60.5073
L113.7165 84.8298
" />
<path d="M113.2148 44.2804
L114.2182 45.2838
" />
<path d="M114.2182 45.2838
L114.2182 60.0056
" />
<path d="M112.0000 25.6200
L113.2148 26.8348
" />
<path d="M113.7165 84.8298
L111.8183 86.7280
" />
<path d="M113.2148 26.8348
L113.2148 44.2804
" />
<path d="M45.2600 102.0000
L45.2600 96.0000
" />
<path d="M45.2600 102.0000
L45.2600 104.1200
" />
<path d="M41.7200 93.5000
L44.5500 90.6700
" />
<path d="M112.0000 28.1600
L108.1224 32.0376
" />
<path d="M44.5500 90.6700
L44.5500 55.0283
" />
<path d="M44.5500 55.0283
L44.5501 55.0283
" />
<path d="M108.1224 53.4226
L108.5601 53.8603
" />
<path d="M108.1224 32.0376
L108.1224 53.4226
" />
<path d="M42.7200 102.0000
L42.7200 96.0000
" />
<path d="M42.7200 102.0000
L42.7200 104.1200
" />
<path d="M40.7627 96.0000
L45.3833 91.3794
" />
<path d="M40.1800 96.0000
L40.7627 96.0000
" />
<path d="M40.1800 102.0000
L40.1800 104.1200
" />
<path d="M45.3833 91.3794
L45.3833 48.9307
" />
<path d="M40.1800 102.0000
L40.1800 96.0000
" />
<path d="M45.3833 48.9307
L54.8016 39.5124
" />
<path d="M54.8016 39.5124
L54.8016 29.3654
" />
</g>
<g style="fill:#FFFFFF; fill-opacity:1.0000; stroke:none;">
<circle cx="131.6200" cy="15.2776" r="0.1500" /> 
<circle cx="128.0800" cy="93.5000" r="0.1500" /> 
<circle cx="128.0800" cy="24.3499" r="0.1500" /> 
<circle cx="129.0800" cy="26.9526" r="0.1500" /> 
<circle cx="85.9000" cy="96.0000" r="0.1500" /> 
<circle cx="22.6436" cy="94.2744" r="0.1500" /> 
<circle cx="32.5600" cy="96.0000" r="0.1500" /> 
<circle cx="100.1400" cy="93.5000" r="0.1500" /> 
<circle cx="84.9000" cy="93.5000" r="0.1500" /> 
<circle cx="39.1800" cy="93.5000" r="0.1500" /> 
<circle cx="143.3200" cy="93.5000" r="0.1500" /> 
<circle cx="145.8600" cy="93.5000" r="0.1500" /> 
<circle cx="35.1000" cy="96.0000" r="0.1500" /> 
<circle cx="22.4000" cy="96.0000" r="0.1500" /> 
<circle cx="115.3800" cy="93.5000" r="0.1500" /> 
<circle cx="37.6400" cy="96.0000" r="0.1500" /> 
<circle cx="34.1000" cy="93.5000" r="0.1500" /> 
<circle cx="130.6200" cy="93.5000" r="0.1500" /> 
<circle cx="54.4200" cy="93.5000" r="0.1500" /> 
<circle cx="36.6400" cy="93.5000" r="0.1500" /> 
<circle cx="144.3200" cy="96.0000" r="0.1500" /> 
<circle cx="69.6600" cy="93.5000" r="0.1500" /> 
<circle cx="146.8600" cy="96.0000" r="0.1500" /> 
<circle cx="21.4000" cy="93.5000" r="0.1500" /> 
<circle cx="20.0912" cy="96.7075" r="0.1500" /> 
<circle cx="135.7000" cy="93.5000" r="0.1500" /> 
<circle cx="134.1600" cy="96.0000" r="0.1500" /> 
<circle cx="134.7567" cy="59.9100" r="0.1500" /> 
<circle cx="130.2250" cy="62.5126" r="0.1500" /> 
<circle cx="55.4200" cy="96.0000" r="0.1500" /> 
<circle cx="134.4083" cy="87.4715" r="0.1500" /> 
<circle cx="57.9600" cy="96.0000" r="0.1500" /> 
<circle cx="57.9600" cy="87.1072" r="0.1500" /> 
<circle cx="136.0860" cy="86.7168" r="0.1500" /> 
<circle cx="60.5000" cy="34.5100" r="0.1500" /> 
<circle cx="60.5000" cy="96.0000" r="0.1500" /> 
<circle cx="63.0400" cy="47.1423" r="0.1500" /> 
<circle cx="63.0400" cy="96.0000" r="0.1500" /> 
<circle cx="65.5800" cy="49.7499" r="0.1500" /> 
<circle cx="65.5800" cy="96.0000" r="0.1500" /> 
<circle cx="126.5400" cy="96.0000" r="0.1500" /> 
<circle cx="133.0524" cy="88.0951" r="0.1500" /> 
<circle cx="79.8200" cy="93.5000" r="0.1500" /> 
<circle cx="78.7386" cy="57.3154" r="0.1500" /> 
<circle cx="93.5590" cy="57.7265" r="0.1500" /> 
<circle cx="107.7600" cy="93.5000" r="0.1500" /> 
<circle cx="133.7316" cy="91.0140" r="0.1500" /> 
<circle cx="105.2200" cy="93.5000" r="0.1500" /> 
<circle cx="136.7981" cy="89.7861" r="0.1500" /> 
<circle cx="139.2700" cy="87.7824" r="0.1500" /> 
<circle cx="102.6800" cy="93.5000" r="0.1500" /> 
<circle cx="29.0200" cy="93.5000" r="0.1500" /> 
<circle cx="31.4048" cy="64.9901" r="0.1500" /> 
<circle cx="136.7000" cy="96.0000" r="0.1500" /> 
<circle cx="28.3375" cy="98.2705" r="0.1500" /> 
<circle cx="139.2400" cy="96.0000" r="0.1500" /> 
<circle cx="137.7647" cy="72.6115" r="0.1500" /> 
<circle cx="98.6000" cy="21.8100" r="0.1500" /> 
<circle cx="51.0152" cy="95.4026" r="0.1500" /> 
<circle cx="96.0600" cy="96.0000" r="0.1500" /> 
<circle cx="59.3396" cy="76.9187" r="0.1500" /> 
<circle cx="59.3396" cy="26.2654" r="0.1500" /> 
<circle cx="93.5200" cy="96.0000" r="0.1500" /> 
<circle cx="92.8823" cy="77.7608" r="0.1500" /> 
<circle cx="26.7983" cy="24.6200" r="0.1500" /> 
<circle cx="85.1744" cy="39.5392" r="0.1500" /> 
<circle cx="88.4400" cy="96.0000" r="0.1500" /> 
<circle cx="82.3600" cy="93.5000" r="0.1500" /> 
<circle cx="82.3600" cy="43.9817" r="0.1500" /> 
<circle cx="23.9400" cy="93.5000" r="0.1500" /> 
<circle cx="23.9400" cy="35.3526" r="0.1500" /> 
<circle cx="24.9400" cy="36.0719" r="0.1500" /> 
<circle cx="31.5600" cy="93.5000" r="0.1500" /> 
<circle cx="36.9059" cy="37.3200" r="0.1500" /> 
<circle cx="18.7792" cy="98.9563" r="0.1500" /> 
<circle cx="141.7800" cy="96.0000" r="0.1500" /> 
<circle cx="40.8222" cy="94.9835" r="0.1500" /> 
<circle cx="124.0000" cy="96.0000" r="0.1500" /> 
<circle cx="56.2133" cy="86.4260" r="0.1500" /> 
<circle cx="123.0000" cy="85.9888" r="0.1500" /> 
<circle cx="123.0000" cy="93.5000" r="0.1500" /> 
<circle cx="57.4398" cy="67.5962" r="0.1500" /> 
<circle cx="121.4600" cy="67.5962" r="0.1500" /> 
<circle cx="121.4600" cy="96.0000" r="0.1500" /> 
<circle cx="135.4077" cy="76.9180" r="0.1500" /> 
<circle cx="138.2400" cy="93.5000" r="0.1500" /> 
<circle cx="120.4600" cy="93.5000" r="0.1500" /> 
<circle cx="117.3534" cy="29.4300" r="0.1500" /> 
<circle cx="114.7199" cy="31.9701" r="0.1500" /> 
<circle cx="117.9200" cy="93.5000" r="0.1500" /> 
<circle cx="110.1793" cy="25.9366" r="0.1500" /> 
<circle cx="118.9200" cy="96.0000" r="0.1500" /> 
<circle cx="107.6997" cy="23.0800" r="0.1500" /> 
<circle cx="108.4607" cy="20.5400" r="0.1500" /> 
<circle cx="109.4761" cy="33.2400" r="0.1500" /> 
<circle cx="113.8400" cy="96.0000" r="0.1500" /> 
<circle cx="107.0037" cy="18.0000" r="0.1500" /> 
<circle cx="104.4818" cy="39.5392" r="0.1500" /> 
<circle cx="108.7600" cy="96.0000" r="0.1500" /> 
<circle cx="103.5523" cy="42.7104" r="0.1500" /> 
<circle cx="106.2200" cy="96.0000" r="0.1500" /> 
<circle cx="90.4800" cy="43.3400" r="0.1500" /> 
<circle cx="90.4800" cy="90.8543" r="0.1500" /> 
<circle cx="90.3394" cy="92.5721" r="0.1500" /> 
<circle cx="103.6800" cy="96.0000" r="0.1500" /> 
<circle cx="101.1400" cy="96.0000" r="0.1500" /> 
<circle cx="87.4400" cy="93.5000" r="0.1500" /> 
<circle cx="80.8200" cy="64.3039" r="0.1500" /> 
<circle cx="80.8200" cy="96.0000" r="0.1500" /> 
<circle cx="83.9681" cy="66.2600" r="0.1500" /> 
<circle cx="78.2800" cy="96.0000" r="0.1500" /> 
<circle cx="83.9681" cy="95.3219" r="0.1500" /> 
<circle cx="74.7400" cy="71.3400" r="0.1500" /> 
<circle cx="75.7400" cy="68.8000" r="0.1500" /> 
<circle cx="75.7400" cy="96.0000" r="0.1500" /> 
<circle cx="72.2000" cy="76.3940" r="0.1500" /> 
<circle cx="73.2000" cy="80.7839" r="0.1500" /> 
<circle cx="73.2000" cy="96.0000" r="0.1500" /> 
<circle cx="70.6600" cy="96.0000" r="0.1500" /> 
<circle cx="70.6600" cy="82.8785" r="0.1500" /> 
<circle cx="67.1200" cy="70.1293" r="0.1500" /> 
<circle cx="110.4595" cy="71.0135" r="0.1500" /> 
<circle cx="68.8925" cy="83.5552" r="0.1500" /> 
<circle cx="68.1200" cy="96.0000" r="0.1500" /> 
<circle cx="64.5800" cy="93.5000" r="0.1500" /> 
<circle cx="111.5217" cy="88.2658" r="0.1500" /> 
<circle cx="99.8561" cy="87.9941" r="0.1500" /> 
<circle cx="100.2725" cy="54.8871" r="0.1500" /> 
<circle cx="62.0400" cy="93.5000" r="0.1500" /> 
<circle cx="59.5000" cy="93.5000" r="0.1500" /> 
<circle cx="115.1708" cy="87.5842" r="0.1500" /> 
<circle cx="110.1652" cy="87.0065" r="0.1500" /> 
<circle cx="56.9600" cy="93.5000" r="0.1500" /> 
<circle cx="53.3932" cy="15.9746" r="0.1500" /> 
<circle cx="113.0394" cy="81.0759" r="0.1500" /> 
<circle cx="53.9519" cy="86.4320" r="0.1500" /> 
<circle cx="56.2132" cy="16.6513" r="0.1500" /> 
<circle cx="49.3400" cy="93.5000" r="0.1500" /> 
<circle cx="109.1374" cy="78.6036" r="0.1500" /> 
<circle cx="50.3384" cy="84.2320" r="0.1500" /> 
<circle cx="50.3400" cy="96.0000" r="0.1500" /> 
<circle cx="108.6295" cy="89.4563" r="0.1500" /> 
<circle cx="46.8000" cy="93.5000" r="0.1500" /> 
<circle cx="47.8000" cy="96.0000" r="0.1500" /> 
<circle cx="47.8000" cy="56.6386" r="0.1500" /> 
<circle cx="108.7991" cy="52.2900" r="0.1500" /> 
<circle cx="111.8183" cy="86.7280" r="0.1500" /> 
<circle cx="44.2600" cy="93.5000" r="0.1500" /> 
<circle cx="45.2600" cy="96.0000" r="0.1500" /> 
<circle cx="45.2600" cy="44.6701" r="0.1500" /> 
<circle cx="108.5601" cy="53.8603" r="0.1500" /> 
<circle cx="41.7200" cy="93.5000" r="0.1500" /> 
<circle cx="44.5501" cy="55.0283" r="0.1500" /> 
<circle cx="43.5678" cy="85.7371" r="0.1500" /> 
<circle cx="42.7200" cy="96.0000" r="0.1500" /> 
<circle cx="111.1362" cy="79.9069" r="0.1500" /> 
<circle cx="54.8016" cy="29.3654" r="0.1500" /> 
<circle cx="26.4800" cy="93.5000" r="0.1500" /> 
</g>
<g style="fill:#FFFFFF; fill-opacity:1.0000; stroke:none;">
<circle cx="15.0000" cy="19.0000" r="0.5000" /> 
</g>
<g style="fill:#FFFFFF; fill-opacity:1.0000; stroke:none;">
<circle cx="17.5400" cy="19.0000" r="0.5000" /> 
</g>
<g style="fill:#FFFFFF; fill-opacity:1.0000; stroke:none;">
<circle cx="15.0000" cy="21.5400" r="0.5000" /> 
</g>
<g style="fill:#FFFFFF; fill-opacity:1.0000; stroke:none;">
<circle cx="17.5400" cy="21.5400" r="0.5000" /> 
</g>
<g style="fill:#FFFFFF; fill-opacity:1.0000; stroke:none;">
<circle cx="15.0000" cy="24.0800" r="0.5000" /> 
</g>
<g style="fill:#FFFFFF; fill-opacity:1.0000; stroke:none;">
<circle cx="17.5400" cy="24.0800" r="0.5000" /> 
</g>
<g style="fill:#FFFFFF; fill-opacity:1.0000; stroke:none;">
<circle cx="15.0000" cy="26.6200" r="0.5000" /> 
</g>
<g style="fill:#FFFFFF; fill-opacity:1.0000; stroke:none;">
<circle cx="17.5400" cy="26.6200" r="0.5000" /> 
</g>
<g style="fill:#FFFFFF; fill-opacity:1.0000; stroke:none;">
<circle cx="15.0000" cy="29.1600" r="0.5000" /> 
</g>
<g style="fill:#FFFFFF; fill-opacity:1.0000; stroke:none;">
<circle cx="17.5400" cy="29.1600" r="0.5000" /> 
</g>
<g style="fill:#FFFFFF; fill-opacity:1.0000; stroke:none;">
<circle cx="15.0000" cy="31.7000" r="0.5000" /> 
</g>
<g style="fill:#FFFFFF; fill-opacity:1.0000; stroke:none;">
<circle cx="17.5400" cy="31.7000" r="0.5000" /> 
</g>
<g style="fill:#FFFFFF; fill-opacity:1.0000; stroke:none;">
<circle cx="15.0000" cy="46.0000" r="0.5000" /> 
</g>
<g style="fill:#FFFFFF; fill-opacity:1.0000; stroke:none;">
<circle cx="17.5400" cy="46.0000" r="0.5000" /> 
</g>
<g style="fill:#FFFFFF; fill-opacity:1.0000; stroke:none;">
<circle cx="15.0000" cy="48.5400" r="0.5000" /> 
</g>
<g style="fill:#FFFFFF; fill-opacity:1.0000; stroke:none;">
<circle cx="17.5400" cy="48.5400" r="0.5000" /> 
</g>
<g style="fill:#FFFFFF; fill-opacity:1.0000; stroke:none;">
<circle cx="15.0000" cy="51.0800" r="0.5000" /> 
</g>
<g style="fill:#FFFFFF; fill-opacity:1.0000; stroke:none;">
<circle cx="17.5400" cy="51.0800" r="0.5000" /> 
</g>
<g style="fill:#FFFFFF; fill-opacity:1.0000; stroke:none;">
<circle cx="15.0000" cy="53.6200" r="0.5000" /> 
</g>
<g style="fill:#FFFFFF; fill-opacity:1.0000; stroke:none;">
<circle cx="17.5400" cy="53.6200" r="0.5000" /> 
</g>
<g style="fill:#FFFFFF; fill-opacity:1.0000; stroke:none;">
<circle cx="138.0000" cy="28.0000" r="0.5000" /> 
</g>
<g style="fill:#FFFFFF; fill-opacity:1.0000; stroke:none;">
<circle cx="140.5400" cy="28.0000" r="0.5000" /> 
</g>
<g style="fill:#FFFFFF; fill-opacity:1.0000; stroke:none;">
<circle cx="138.0000" cy="30.5400" r="0.5000" /> 
</g>
<g style="fill:#FFFFFF; fill-opacity:1.0000; stroke:none;">
<circle cx="140.5400" cy="30.5400" r="0.5000" /> 
</g>
<g style="fill:#FFFFFF; fill-opacity:1.0000; stroke:none;">
<circle cx="138.0000" cy="33.0800" r="0.5000" /> 
</g>
<g style="fill:#FFFFFF; fill-opacity:1.0000; stroke:none;">
<circle cx="140.5400" cy="33.0800" r="0.5000" /> 
</g>
<g style="fill:#FFFFFF; fill-opacity:1.0000; stroke:none;">
<circle cx="138.0000" cy="35.6200" r="0.5000" /> 
</g>
<g style="fill:#FFFFFF; fill-opacity:1.0000; stroke:none;">
<circle cx="140.5400" cy="35.6200" r="0.5000" /> 
</g>
<g style="fill:#FFFFFF; fill-opacity:1.0000; stroke:none;">
<circle cx="138.0000" cy="38.1600" r="0.5000" /> 
</g>
<g style="fill:#FFFFFF; fill-opacity:1.0000; stroke:none;">
<circle cx="140.5400" cy="38.1600" r="0.5000" /> 
</g>
<g style="fill:#FFFFFF; fill-opacity:1.0000; stroke:none;">
<circle cx="138.0000" cy="40.7000" r="0.5000" /> 
</g>
<g style="fill:#FFFFFF; fill-opacity:1.0000; stroke:none;">
<circle cx="140.5400" cy="40.7000" r="0.5000" /> 
</g>
<g style="fill:#FFFFFF; fill-opacity:1.0000; stroke:none;">
<circle cx="138.0000" cy="43.2400" r="0.5000" /> 
</g>
<g style="fill:#FFFFFF; fill-opacity:1.0000; stroke:none;">
<circle cx="140.5400" cy="43.2400" r="0.5000" /> 
</g>
<g style="fill:#FFFFFF; fill-opacity:1.0000; stroke:none;">
<circle cx="138.0000" cy="45.7800" r="0.5000" /> 
</g>
<g style="fill:#FFFFFF; fill-opacity:1.0000; stroke:none;">
<circle cx="140.5400" cy="45.7800" r="0.5000" /> 
</g>
<g style="fill:#FFFFFF; fill-opacity:1.0000; stroke:none;">
<circle cx="138.0000" cy="48.3200" r="0.5000" /> 
</g>
<g style="fill:#FFFFFF; fill-opacity:1.0000; stroke:none;">
<circle cx="140.5400" cy="48.3200" r="0.5000" /> 
</g>
<g style="fill:#FFFFFF; fill-opacity:1.0000; stroke:none;">
<circle cx="138.0000" cy="50.8600" r="0.5000" /> 
</g>
<g style="fill:#FFFFFF; fill-opacity:1.0000; stroke:none;">
<circle cx="140.5400" cy="50.8600" r="0.5000" /> 
</g>
<g style="fill:#FFFFFF; fill-opacity:1.0000; stroke:none;">
<circle cx="138.0000" cy="53.4000" r="0.5000" /> 
</g>
<g style="fill:#FFFFFF; fill-opacity:1.0000; stroke:none;">
<circle cx="140.5400" cy="53.4000" r="0.5000" /> 
</g>
<g style="fill:#FFFFFF; fill-opacity:1.0000; stroke:none;">
<circle cx="138.0000" cy="55.9400" r="0.5000" /> 
</g>
<g style="fill:#FFFFFF; fill-opacity:1.0000; stroke:none;">
<circle cx="140.5400" cy="55.9400" r="0.5000" /> 
</g>
<g style="fill:#FFFFFF; fill-opacity:1.0000; stroke:none;">
<circle cx="138.0000" cy="58.4800" r="0.5000" /> 
</g>
<g style="fill:#FFFFFF; fill-opacity:1.0000; stroke:none;">
<circle cx="140.5400" cy="58.4800" r="0.5000" /> 
</g>
<g style="fill:#FFFFFF; fill-opacity:1.0000; stroke:none;">
<circle cx="138.0000" cy="61.0200" r="0.5000" /> 
</g>
<g style="fill:#FFFFFF; fill-opacity:1.0000; stroke:none;">
<circle cx="140.5400" cy="61.0200" r="0.5000" /> 
</g>
<g style="fill:#FFFFFF; fill-opacity:1.0000; stroke:none;">
<circle cx="138.0000" cy="63.5600" r="0.5000" /> 
</g>
<g style="fill:#FFFFFF; fill-opacity:1.0000; stroke:none;">
<circle cx="140.5400" cy="63.5600" r="0.5000" /> 
</g>
<g style="fill:#FFFFFF; fill-opacity:1.0000; stroke:none;">
<circle cx="138.0000" cy="66.1000" r="0.5000" /> 
</g>
<g style="fill:#FFFFFF; fill-opacity:1.0000; stroke:none;">
<circle cx="140.5400" cy="66.1000" r="0.5000" /> 
</g>
<g style="fill:#FFFFFF; fill-opacity:1.0000; stroke:none;">
<circle cx="28.0000" cy="63.0000" r="0.5000" /> 
</g>
<g style="fill:#FFFFFF; fill-opacity:1.0000; stroke:none;">
<circle cx="15.0000" cy="63.0000" r="0.5000" /> 
</g>
<g style="fill:#FFFFFF; fill-opacity:1.0000; stroke:none;">
<circle cx="52.0000" cy="17.0000" r="0.5000" /> 
</g>
<g style="fill:#FFFFFF; fill-opacity:1.0000; stroke:none;">
<circle cx="52.0000" cy="19.5400" r="0.5000" /> 
</g>
<g style="fill:#FFFFFF; fill-opacity:1.0000; stroke:none;">
<circle cx="52.0000" cy="22.0800" r="0.5000" /> 
</g>
<g style="fill:#FFFFFF; fill-opacity:1.0000; stroke:none;">
<circle cx="52.0000" cy="24.6200" r="0.5000" /> 
</g>
<g style="fill:#FFFFFF; fill-opacity:1.0000; stroke:none;">
<circle cx="52.0000" cy="27.1600" r="0.5000" /> 
</g>
<g style="fill:#FFFFFF; fill-opacity:1.0000; stroke:none;">
<circle cx="52.0000" cy="29.7000" r="0.5000" /> 
</g>
<g style="fill:#FFFFFF; fill-opacity:1.0000; stroke:none;">
<circle cx="52.0000" cy="32.2400" r="0.5000" /> 
</g>
<g style="fill:#FFFFFF; fill-opacity:1.0000; stroke:none;">
<circle cx="52.0000" cy="34.7800" r="0.5000" /> 
</g>
<g style="fill:#FFFFFF; fill-opacity:1.0000; stroke:none;">
<circle cx="52.0000" cy="37.3200" r="0.5000" /> 
</g>
<g style="fill:#FFFFFF; fill-opacity:1.0000; stroke:none;">
<circle cx="52.0000" cy="39.8600" r="0.5000" /> 
</g>
<g style="fill:#FFFFFF; fill-opacity:1.0000; stroke:none;">
<circle cx="15.0000" cy="72.0000" r="0.5000" /> 
</g>
<g style="fill:#FFFFFF; fill-opacity:1.0000; stroke:none;">
<circle cx="17.5400" cy="72.0000" r="0.5000" /> 
</g>
<g style="fill:#FFFFFF; fill-opacity:1.0000; stroke:none;">
<circle cx="15.0000" cy="74.5400" r="0.5000" /> 
</g>
<g style="fill:#FFFFFF; fill-opacity:1.0000; stroke:none;">
<circle cx="17.5400" cy="74.5400" r="0.5000" /> 
</g>
<g style="fill:#FFFFFF; fill-opacity:1.0000; stroke:none;">
<circle cx="15.0000" cy="77.0800" r="0.5000" /> 
</g>
<g style="fill:#FFFFFF; fill-opacity:1.0000; stroke:none;">
<circle cx="17.5400" cy="77.0800" r="0.5000" /> 
</g>
<g style="fill:#FFFFFF; fill-opacity:1.0000; stroke:none;">
<circle cx="15.0000" cy="79.6200" r="0.5000" /> 
</g>
<g style="fill:#FFFFFF; fill-opacity:1.0000; stroke:none;">
<circle cx="17.5400" cy="79.6200" r="0.5000" /> 
</g>
<g style="fill:#FFFFFF; fill-opacity:1.0000; stroke:none;">
<circle cx="15.0000" cy="82.1600" r="0.5000" /> 
</g>
<g style="fill:#FFFFFF; fill-opacity:1.0000; stroke:none;">
<circle cx="17.5400" cy="82.1600" r="0.5000" /> 
</g>
<g style="fill:#FFFFFF; fill-opacity:1.0000; stroke:none;">
<circle cx="15.0000" cy="84.7000" r="0.5000" /> 
</g>
<g style="fill:#FFFFFF; fill-opacity:1.0000; stroke:none;">
<circle cx="17.5400" cy="84.7000" r="0.5000" /> 
</g>
<g style="fill:#FFFFFF; fill-opacity:1.0000; stroke:none;">
<circle cx="41.0000" cy="63.0000" r="0.5000" /> 
</g>
<g style="fill:#FFFFFF; fill-opacity:1.0000; stroke:none;">
<circle cx="52.0000" cy="49.0000" r="0.5000" /> 
</g>
<g style="fill:#FFFFFF; fill-opacity:1.0000; stroke:none;">
<circle cx="54.5400" cy="49.0000" r="0.5000" /> 
</g>
<g style="fill:#FFFFFF; fill-opacity:1.0000; stroke:none;">
<circle cx="52.0000" cy="51.5400" r="0.5000" /> 
</g>
<g style="fill:#FFFFFF; fill-opacity:1.0000; stroke:none;">
<circle cx="54.5400" cy="51.5400" r="0.5000" /> 
</g>
<g style="fill:#FFFFFF; fill-opacity:1.0000; stroke:none;">
<circle cx="52.0000" cy="54.0800" r="0.5000" /> 
</g>
<g style="fill:#FFFFFF; fill-opacity:1.0000; stroke:none;">
<circle cx="54.5400" cy="54.0800" r="0.5000" /> 
</g>
<g style="fill:#FFFFFF; fill-opacity:1.0000; stroke:none;">
<circle cx="112.0000" cy="18.0000" r="0.5000" /> 
</g>
<g style="fill:#FFFFFF; fill-opacity:1.0000; stroke:none;">
<circle cx="112.0000" cy="20.5400" r="0.5000" /> 
</g>
<g style="fill:#FFFFFF; fill-opacity:1.0000; stroke:none;">
<circle cx="112.0000" cy="23.0800" r="0.5000" /> 
</g>
<g style="fill:#FFFFFF; fill-opacity:1.0000; stroke:none;">
<circle cx="112.0000" cy="25.6200" r="0.5000" /> 
</g>
<g style="fill:#FFFFFF; fill-opacity:1.0000; stroke:none;">
<circle cx="112.0000" cy="28.1600" r="0.5000" /> 
</g>
<g style="fill:#FFFFFF; fill-opacity:1.0000; stroke:none;">
<circle cx="112.0000" cy="30.7000" r="0.5000" /> 
</g>
<g style="fill:#FFFFFF; fill-opacity:1.0000; stroke:none;">
<circle cx="112.0000" cy="33.2400" r="0.5000" /> 
</g>
<g style="fill:#FFFFFF; fill-opacity:1.0000; stroke:none;">
<circle cx="112.0000" cy="35.7800" r="0.5000" /> 
</g>
<g style="fill:#FFFFFF; fill-opacity:1.0000; stroke:none;">
<circle cx="112.0000" cy="38.3200" r="0.5000" /> 
</g>
<g style="fill:#FFFFFF; fill-opacity:1.0000; stroke:none;">
<circle cx="112.0000" cy="40.8600" r="0.5000" /> 
</g>
<g style="fill:#FFFFFF; fill-opacity:1.0000; stroke:none;">
<circle cx="112.0000" cy="43.4000" r="0.5000" /> 
</g>
<g style="fill:#FFFFFF; fill-opacity:1.0000; stroke:none;">
<circle cx="112.0000" cy="45.9400" r="0.5000" /> 
</g>
<g style="fill:#FFFFFF; fill-opacity:1.0000; stroke:none;">
<circle cx="112.0000" cy="48.4800" r="0.5000" /> 
</g>
<g style="fill:#FFFFFF; fill-opacity:1.0000; stroke:none;">
<circle cx="112.0000" cy="51.0200" r="0.5000" /> 
</g>
<g style="fill:#FFFFFF; fill-opacity:1.0000; stroke:none;">
<circle cx="112.0000" cy="53.5600" r="0.5000" /> 
</g>
<g style="fill:#FFFFFF; fill-opacity:1.0000; stroke:none;">
<circle cx="112.0000" cy="56.1000" r="0.5000" /> 
</g>
<g style="fill:#FFFFFF; fill-opacity:1.0000; stroke:none;">
<circle cx="112.0000" cy="58.6400" r="0.5000" /> 
</g>
<g style="fill:#FFFFFF; fill-opacity:1.0000; stroke:none;">
<circle cx="88.0000" cy="18.0000" r="0.5000" /> 
</g>
<g style="fill:#FFFFFF; fill-opacity:1.0000; stroke:none;">
<circle cx="88.0000" cy="20.5400" r="0.5000" /> 
</g>
<g style="fill:#FFFFFF; fill-opacity:1.0000; stroke:none;">
<circle cx="88.0000" cy="23.0800" r="0.5000" /> 
</g>
<g style="fill:#FFFFFF; fill-opacity:1.0000; stroke:none;">
<circle cx="88.0000" cy="25.6200" r="0.5000" /> 
</g>
<g style="fill:#FFFFFF; fill-opacity:1.0000; stroke:none;">
<circle cx="88.0000" cy="28.1600" r="0.5000" /> 
</g>
<g style="fill:#FFFFFF; fill-opacity:1.0000; stroke:none;">
<circle cx="88.0000" cy="30.7000" r="0.5000" /> 
</g>
<g style="fill:#FFFFFF; fill-opacity:1.0000; stroke:none;">
<circle cx="88.0000" cy="33.2400" r="0.5000" /> 
</g>
<g style="fill:#FFFFFF; fill-opacity:1.0000; stroke:none;">
<circle cx="88.0000" cy="35.7800" r="0.5000" /> 
</g>
<g style="fill:#FFFFFF; fill-opacity:1.0000; stroke:none;">
<circle cx="88.0000" cy="38.3200" r="0.5000" /> 
</g>
<g style="fill:#FFFFFF; fill-opacity:1.0000; stroke:none;">
<circle cx="88.0000" cy="40.8600" r="0.5000" /> 
</g>
<g style="fill:#FFFFFF; fill-opacity:1.0000; stroke:none;">
<circle cx="88.0000" cy="43.4000" r="0.5000" /> 
</g>
<g style="fill:#FFFFFF; fill-opacity:1.0000; stroke:none;">
<circle cx="88.0000" cy="45.9400" r="0.5000" /> 
</g>
<g style="fill:#FFFFFF; fill-opacity:1.0000; stroke:none;">
<circle cx="88.0000" cy="48.4800" r="0.5000" /> 
</g>
<g style="fill:#FFFFFF; fill-opacity:1.0000; stroke:none;">
<circle cx="88.0000" cy="51.0200" r="0.5000" /> 
</g>
<g style="fill:#FFFFFF; fill-opacity:1.0000; stroke:none;">
<circle cx="88.0000" cy="53.5600" r="0.5000" /> 
</g>
<g style="fill:#FFFFFF; fill-opacity:1.0000; stroke:none;">
<circle cx="88.0000" cy="56.1000" r="0.5000" /> 
</g>
<g style="fill:#FFFFFF; fill-opacity:1.0000; stroke:none;">
<circle cx="88.0000" cy="58.6400" r="0.5000" /> 
</g>
<g style="fill:#FFFFFF; fill-opacity:1.0000; stroke:none;">
<circle cx="88.0000" cy="61.1800" r="0.5000" /> 
</g>
<g style="fill:#FFFFFF; fill-opacity:1.0000; stroke:none;">
<circle cx="88.0000" cy="63.7200" r="0.5000" /> 
</g>
<g style="fill:#FFFFFF; fill-opacity:1.0000; stroke:none;">
<circle cx="88.0000" cy="66.2600" r="0.5000" /> 
</g>
<g style="fill:#FFFFFF; fill-opacity:1.0000; stroke:none;">
<circle cx="88.0000" cy="68.8000" r="0.5000" /> 
</g>
<g style="fill:#FFFFFF; fill-opacity:1.0000; stroke:none;">
<circle cx="88.0000" cy="71.3400" r="0.5000" /> 
</g>
<g style="fill:#FFFFFF; fill-opacity:1.0000; stroke:none;">
<circle cx="88.0000" cy="73.8800" r="0.5000" /> 
</g>
<g style="fill:#FFFFFF; fill-opacity:1.0000; stroke:none;">
<circle cx="88.0000" cy="76.4200" r="0.5000" /> 
</g>
<g style="fill:#FFFFFF; fill-opacity:1.0000; stroke:none;">
<circle cx="52.0000" cy="68.0000" r="0.5000" /> 
</g>
<g style="fill:#FFFFFF; fill-opacity:1.0000; stroke:none;">
<circle cx="52.0000" cy="70.5400" r="0.5000" /> 
</g>
<g style="fill:#FFFFFF; fill-opacity:1.0000; stroke:none;">
<circle cx="52.0000" cy="73.0800" r="0.5000" /> 
</g>
<g style="fill:#FFFFFF; fill-opacity:1.0000; stroke:none;">
<circle cx="52.0000" cy="75.6200" r="0.5000" /> 
</g>
<g style="fill:#FFFFFF; fill-opacity:1.0000; stroke:none;">
<circle cx="52.0000" cy="78.1600" r="0.5000" /> 
</g>
<g style="fill:#FFFFFF; fill-opacity:1.0000; stroke:none;">
<circle cx="52.0000" cy="80.7000" r="0.5000" /> 
</g> 
</svg>
