M48
; DRILL file KiCad 10.0.5-1-g226df246f3 date 2026-09-11T15:50:22
; FORMAT={-:-/ absolute / metric / decimal}
; #@! TF.CreationDate,2026-09-11T15:50:22+01:00
; #@! TF.GenerationSoftware,Kicad,Pcbnew,10.0.5-1-g226df246f3
; #@! TF.FileFunction,Plated,1,2,PTH
FMAT,2
METRIC
; #@! TA.AperFunction,Plated,PTH,ViaDrill
T1C0.300
; #@! TA.AperFunction,Plated,PTH,ComponentDrill
T2C1.000
%
G90
G05
T1
X38.803Y-106.501
X39.561Y-105.148
X40.544Y-77.767
X40.816Y-118.803
X41.61Y-66.0
X41.61Y-107.196
X43.802Y-52.24
X43.802Y-118.435
X44.94Y-54.78
X46.478Y-108.094
X46.478Y-118.478
X50.47Y-44.62
X51.155Y-81.796
X51.83Y-118.5
X52.455Y-105.825
X53.279Y-49.16
X54.222Y-57.32
X54.222Y-118.5
X57.6Y-118.9
X61.0Y-103.005
X62.202Y-48.43
X62.911Y-53.51
X65.26Y-58.59
X69.778Y-108.094
X70.289Y-80.532
X71.237Y-118.057
X73.523Y-100.871
X75.492Y-45.572
X75.563Y-87.938
X75.563Y-99.944
X76.334Y-107.68
X77.213Y-64.67
X78.713Y-77.338
X79.404Y-54.447
X80.154Y-117.753
X80.251Y-62.13
X81.595Y-95.15
X81.628Y-79.351
X82.328Y-118.5
X82.424Y-59.59
X83.1Y-69.75
X83.413Y-117.731
X83.86Y-109.096
X84.794Y-113.45
X85.58Y-67.182
X86.3Y-74.1
X86.343Y-88.619
X86.343Y-118.116
X87.736Y-97.707
X88.517Y-117.755
X89.39Y-98.699
X90.66Y-93.08
X93.2Y-91.203
X94.898Y-93.88
X94.898Y-118.498
X95.74Y-88.8
X97.5Y-97.3
X101.956Y-46.26
X102.088Y-118.5
X102.247Y-107.045
X103.79Y-104.329
X103.9Y-97.3
X106.115Y-113.623
X106.2Y-117.0
X108.392Y-112.57
X108.392Y-117.686
X110.54Y-117.598
X111.391Y-117.912
X111.61Y-58.647
X112.3Y-115.8
X113.087Y-117.923
X113.831Y-77.869
X114.6Y-113.3
X114.8Y-115.1
X115.558Y-82.45
X116.753Y-118.5
X116.79Y-85.023
X118.445Y-117.557
X124.17Y-79.212
X124.17Y-118.01
X124.751Y-98.767
X125.031Y-118.323
X126.002Y-38.0
X126.002Y-97.763
X126.701Y-55.78
X126.82Y-118.0
X128.183Y-108.934
X129.39Y-53.763
X129.451Y-118.5
X129.532Y-106.611
X130.45Y-43.22
X130.535Y-42.275
X130.771Y-89.451
X130.904Y-100.622
X131.563Y-107.911
X131.584Y-106.691
X131.949Y-95.15
X132.245Y-98.44
X132.523Y-118.141
X132.941Y-108.812
X135.565Y-107.703
X136.264Y-109.184
X138.133Y-57.111
X138.133Y-118.5
X138.92Y-49.43
X139.7Y-114.8
X139.8Y-116.6
X140.571Y-51.902
X140.571Y-118.5
X141.268Y-74.83
X142.89Y-71.605
X142.89Y-117.608
X144.0Y-102.407
X144.881Y-44.35
X144.881Y-116.508
X145.566Y-109.542
X146.934Y-112.471
X146.943Y-75.555
X147.852Y-111.467
X148.6Y-107.1
X151.62Y-86.765
X153.408Y-92.663
X154.085Y-111.558
X154.094Y-108.679
X154.689Y-117.847
X156.297Y-97.594
X156.7Y-101.526
X157.685Y-112.236
X157.685Y-117.349
X158.726Y-99.945
X158.726Y-117.534
X159.676Y-103.284
X160.77Y-116.912
X161.78Y-117.738
X161.792Y-99.168
X163.167Y-116.55
T2
X35.0Y-39.0
X35.0Y-41.54
X35.0Y-44.08
X35.0Y-46.62
X35.0Y-49.16
X35.0Y-51.7
X35.0Y-66.0
X35.0Y-68.54
X35.0Y-71.08
X35.0Y-73.62
X35.0Y-83.0
X35.0Y-92.0
X35.0Y-94.54
X35.0Y-97.08
X35.0Y-99.62
X35.0Y-102.16
X35.0Y-104.7
X37.54Y-39.0
X37.54Y-41.54
X37.54Y-44.08
X37.54Y-46.62
X37.54Y-49.16
X37.54Y-51.7
X37.54Y-66.0
X37.54Y-68.54
X37.54Y-71.08
X37.54Y-73.62
X37.54Y-92.0
X37.54Y-94.54
X37.54Y-97.08
X37.54Y-99.62
X37.54Y-102.16
X37.54Y-104.7
X48.0Y-83.0
X61.0Y-83.0
X72.0Y-37.0
X72.0Y-39.54
X72.0Y-42.08
X72.0Y-44.62
X72.0Y-47.16
X72.0Y-49.7
X72.0Y-52.24
X72.0Y-54.78
X72.0Y-57.32
X72.0Y-59.86
X72.0Y-69.0
X72.0Y-71.54
X72.0Y-74.08
X72.0Y-88.0
X72.0Y-90.54
X72.0Y-93.08
X72.0Y-95.62
X72.0Y-98.16
X72.0Y-100.7
X74.54Y-69.0
X74.54Y-71.54
X74.54Y-74.08
X108.0Y-38.0
X108.0Y-40.54
X108.0Y-43.08
X108.0Y-45.62
X108.0Y-48.16
X108.0Y-50.7
X108.0Y-53.24
X108.0Y-55.78
X108.0Y-58.32
X108.0Y-60.86
X108.0Y-63.4
X108.0Y-65.94
X108.0Y-68.48
X108.0Y-71.02
X108.0Y-73.56
X108.0Y-76.1
X108.0Y-78.64
X108.0Y-81.18
X108.0Y-83.72
X108.0Y-86.26
X108.0Y-88.8
X108.0Y-91.34
X108.0Y-93.88
X108.0Y-96.42
X132.0Y-38.0
X132.0Y-40.54
X132.0Y-43.08
X132.0Y-45.62
X132.0Y-48.16
X132.0Y-50.7
X132.0Y-53.24
X132.0Y-55.78
X132.0Y-58.32
X132.0Y-60.86
X132.0Y-63.4
X132.0Y-65.94
X132.0Y-68.48
X132.0Y-71.02
X132.0Y-73.56
X132.0Y-76.1
X132.0Y-78.64
X158.0Y-48.0
X158.0Y-50.54
X158.0Y-53.08
X158.0Y-55.62
X158.0Y-58.16
X158.0Y-60.7
X158.0Y-63.24
X158.0Y-65.78
X158.0Y-68.32
X158.0Y-70.86
X158.0Y-73.4
X158.0Y-75.94
X158.0Y-78.48
X158.0Y-81.02
X158.0Y-83.56
X158.0Y-86.1
X160.54Y-48.0
X160.54Y-50.54
X160.54Y-53.08
X160.54Y-55.62
X160.54Y-58.16
X160.54Y-60.7
X160.54Y-63.24
X160.54Y-65.78
X160.54Y-68.32
X160.54Y-70.86
X160.54Y-73.4
X160.54Y-75.94
X160.54Y-78.48
X160.54Y-81.02
X160.54Y-83.56
X160.54Y-86.1
M30
