M48
; DRILL file KiCad 10.0.5-1-g226df246f3 date 2026-09-11T10:55:31
; FORMAT={-:-/ absolute / metric / decimal}
; #@! TF.CreationDate,2026-09-11T10:55:31+01:00
; #@! TF.GenerationSoftware,Kicad,Pcbnew,10.0.5-1-g226df246f3
; #@! TF.FileFunction,Plated,1,4,PTH
FMAT,2
METRIC
; #@! TA.AperFunction,Plated,PTH,ViaDrill
T1C0.300
; #@! TA.AperFunction,Plated,PTH,ComponentDrill
T2C1.000
%
G90
G05
T1
X38.779Y-118.956
X40.091Y-116.707
X41.4Y-113.5
X42.4Y-116.0
X42.644Y-114.274
X43.94Y-55.353
X43.94Y-113.5
X44.94Y-56.072
X46.48Y-113.5
X46.798Y-44.62
X48.337Y-118.27
X49.02Y-113.5
X51.405Y-84.99
X51.56Y-113.5
X52.56Y-116.0
X54.1Y-113.5
X55.1Y-116.0
X56.64Y-113.5
X56.906Y-57.32
X57.64Y-116.0
X59.18Y-113.5
X60.822Y-114.983
X61.72Y-113.5
X62.72Y-116.0
X63.568Y-105.737
X64.26Y-113.5
X64.55Y-75.028
X65.26Y-64.67
X65.26Y-116.0
X66.8Y-113.5
X67.8Y-76.639
X67.8Y-116.0
X69.34Y-113.5
X70.338Y-104.232
X70.34Y-116.0
X71.015Y-115.403
X73.393Y-35.975
X73.952Y-106.432
X74.42Y-113.5
X74.802Y-49.365
X75.42Y-116.0
X76.213Y-36.651
X76.213Y-106.426
X76.96Y-113.5
X77.44Y-87.596
X77.96Y-107.107
X77.96Y-116.0
X79.34Y-46.265
X79.34Y-96.919
X79.5Y-113.5
X80.5Y-54.51
X80.5Y-116.0
X82.04Y-113.5
X83.04Y-67.142
X83.04Y-116.0
X84.58Y-113.5
X85.58Y-69.75
X85.58Y-116.0
X87.12Y-90.129
X88.12Y-116.0
X88.892Y-103.555
X89.66Y-113.5
X90.66Y-102.878
X90.66Y-116.0
X92.2Y-96.394
X93.2Y-100.784
X93.2Y-116.0
X94.74Y-91.34
X95.74Y-88.8
X95.74Y-116.0
X98.28Y-116.0
X98.739Y-77.315
X99.82Y-113.5
X100.82Y-84.304
X100.82Y-116.0
X102.36Y-63.982
X102.36Y-113.5
X103.968Y-86.26
X103.968Y-115.322
X104.9Y-113.5
X105.174Y-59.539
X105.9Y-116.0
X107.44Y-113.5
X108.44Y-116.0
X110.339Y-112.572
X110.48Y-63.34
X110.48Y-110.854
X112.882Y-97.761
X113.52Y-116.0
X113.559Y-77.727
X116.06Y-116.0
X118.6Y-41.81
X119.856Y-107.994
X120.14Y-113.5
X120.272Y-74.887
X121.14Y-116.0
X122.68Y-113.5
X123.552Y-62.71
X123.68Y-116.0
X124.482Y-59.539
X125.22Y-113.5
X126.22Y-116.0
X127.004Y-38.0
X127.7Y-43.08
X127.76Y-113.5
X128.461Y-40.54
X128.56Y-73.86
X128.63Y-109.456
X128.76Y-116.0
X128.799Y-72.29
X129.137Y-98.604
X129.476Y-53.24
X130.165Y-107.006
X130.179Y-45.937
X130.459Y-91.013
X131.136Y-99.907
X131.522Y-108.266
X131.818Y-106.728
X133.039Y-101.076
X133.84Y-116.0
X134.72Y-51.97
X135.171Y-107.584
X135.38Y-113.5
X137.353Y-49.43
X137.92Y-113.5
X138.92Y-116.0
X140.46Y-113.5
X141.46Y-87.596
X141.46Y-116.0
X143.0Y-105.989
X143.0Y-113.5
X144.0Y-116.0
X146.54Y-116.0
X148.08Y-44.35
X148.08Y-113.5
X149.08Y-46.953
X150.225Y-82.513
X150.62Y-113.5
X151.62Y-35.278
X153.052Y-108.095
X153.732Y-111.014
X154.16Y-116.0
X154.408Y-107.471
X154.757Y-79.91
X155.408Y-96.918
X155.7Y-113.5
X156.086Y-106.717
X156.7Y-116.0
X156.798Y-109.786
X157.765Y-92.611
X158.24Y-113.5
X159.24Y-116.0
X159.27Y-107.782
X161.78Y-116.0
X163.32Y-113.5
X164.32Y-116.0
X165.86Y-113.5
X166.86Y-116.0
T2
X35.0Y-39.0
X35.0Y-41.54
X35.0Y-44.08
X35.0Y-46.62
X35.0Y-49.16
X35.0Y-51.7
X35.0Y-66.0
X35.0Y-68.54
X35.0Y-71.08
X35.0Y-73.62
X35.0Y-83.0
X35.0Y-92.0
X35.0Y-94.54
X35.0Y-97.08
X35.0Y-99.62
X35.0Y-102.16
X35.0Y-104.7
X37.54Y-39.0
X37.54Y-41.54
X37.54Y-44.08
X37.54Y-46.62
X37.54Y-49.16
X37.54Y-51.7
X37.54Y-66.0
X37.54Y-68.54
X37.54Y-71.08
X37.54Y-73.62
X37.54Y-92.0
X37.54Y-94.54
X37.54Y-97.08
X37.54Y-99.62
X37.54Y-102.16
X37.54Y-104.7
X48.0Y-83.0
X61.0Y-83.0
X72.0Y-37.0
X72.0Y-39.54
X72.0Y-42.08
X72.0Y-44.62
X72.0Y-47.16
X72.0Y-49.7
X72.0Y-52.24
X72.0Y-54.78
X72.0Y-57.32
X72.0Y-59.86
X72.0Y-69.0
X72.0Y-71.54
X72.0Y-74.08
X72.0Y-88.0
X72.0Y-90.54
X72.0Y-93.08
X72.0Y-95.62
X72.0Y-98.16
X72.0Y-100.7
X74.54Y-69.0
X74.54Y-71.54
X74.54Y-74.08
X108.0Y-38.0
X108.0Y-40.54
X108.0Y-43.08
X108.0Y-45.62
X108.0Y-48.16
X108.0Y-50.7
X108.0Y-53.24
X108.0Y-55.78
X108.0Y-58.32
X108.0Y-60.86
X108.0Y-63.4
X108.0Y-65.94
X108.0Y-68.48
X108.0Y-71.02
X108.0Y-73.56
X108.0Y-76.1
X108.0Y-78.64
X108.0Y-81.18
X108.0Y-83.72
X108.0Y-86.26
X108.0Y-88.8
X108.0Y-91.34
X108.0Y-93.88
X108.0Y-96.42
X132.0Y-38.0
X132.0Y-40.54
X132.0Y-43.08
X132.0Y-45.62
X132.0Y-48.16
X132.0Y-50.7
X132.0Y-53.24
X132.0Y-55.78
X132.0Y-58.32
X132.0Y-60.86
X132.0Y-63.4
X132.0Y-65.94
X132.0Y-68.48
X132.0Y-71.02
X132.0Y-73.56
X132.0Y-76.1
X132.0Y-78.64
X158.0Y-48.0
X158.0Y-50.54
X158.0Y-53.08
X158.0Y-55.62
X158.0Y-58.16
X158.0Y-60.7
X158.0Y-63.24
X158.0Y-65.78
X158.0Y-68.32
X158.0Y-70.86
X158.0Y-73.4
X158.0Y-75.94
X158.0Y-78.48
X158.0Y-81.02
X158.0Y-83.56
X158.0Y-86.1
X160.54Y-48.0
X160.54Y-50.54
X160.54Y-53.08
X160.54Y-55.62
X160.54Y-58.16
X160.54Y-60.7
X160.54Y-63.24
X160.54Y-65.78
X160.54Y-68.32
X160.54Y-70.86
X160.54Y-73.4
X160.54Y-75.94
X160.54Y-78.48
X160.54Y-81.02
X160.54Y-83.56
X160.54Y-86.1
M30
